<svg width="160" height="160" viewBox="0 0 160 160" fill="none" xmlns="http://www.w3.org/2000/svg">
<g clip-path="url(#clip0)">
<rect width="160" height="160" fill="#0A0C0E"/>
<path d="M46.4144 135.5H54.8894V137.435H48.8294V139.595H51.7394C53.0094 139.595 53.9744 139.86 54.6344 140.39C55.3044 140.92 55.6394 141.685 55.6394 142.685C55.6394 143.735 55.2694 144.55 54.5294 145.13C53.7894 145.71 52.7444 146 51.3944 146H46.4144V135.5ZM51.2594 144.2C51.8794 144.2 52.3544 144.08 52.6844 143.84C53.0144 143.59 53.1794 143.23 53.1794 142.76C53.1794 141.84 52.5394 141.38 51.2594 141.38H48.8294V144.2H51.2594ZM61.0886 146.12C60.2386 146.12 59.4736 145.945 58.7936 145.595C58.1236 145.235 57.5986 144.74 57.2186 144.11C56.8386 143.48 56.6486 142.765 56.6486 141.965C56.6486 141.165 56.8386 140.45 57.2186 139.82C57.5986 139.19 58.1236 138.7 58.7936 138.35C59.4736 137.99 60.2386 137.81 61.0886 137.81C61.9386 137.81 62.6986 137.99 63.3686 138.35C64.0386 138.7 64.5636 139.19 64.9436 139.82C65.3236 140.45 65.5136 141.165 65.5136 141.965C65.5136 142.765 65.3236 143.48 64.9436 144.11C64.5636 144.74 64.0386 145.235 63.3686 145.595C62.6986 145.945 61.9386 146.12 61.0886 146.12ZM61.0886 144.2C61.6886 144.2 62.1786 144 62.5586 143.6C62.9486 143.19 63.1436 142.645 63.1436 141.965C63.1436 141.285 62.9486 140.745 62.5586 140.345C62.1786 139.935 61.6886 139.73 61.0886 139.73C60.4886 139.73 59.9936 139.935 59.6036 140.345C59.2136 140.745 59.0186 141.285 59.0186 141.965C59.0186 142.645 59.2136 143.19 59.6036 143.6C59.9936 144 60.4886 144.2 61.0886 144.2ZM74.968 141.995C74.968 142.025 74.953 142.235 74.923 142.625H68.818C68.928 143.125 69.188 143.52 69.598 143.81C70.008 144.1 70.518 144.245 71.128 144.245C71.548 144.245 71.918 144.185 72.238 144.065C72.568 143.935 72.873 143.735 73.153 143.465L74.398 144.815C73.638 145.685 72.528 146.12 71.068 146.12C70.158 146.12 69.353 145.945 68.653 145.595C67.953 145.235 67.413 144.74 67.033 144.11C66.653 143.48 66.463 142.765 66.463 141.965C66.463 141.175 66.648 140.465 67.018 139.835C67.398 139.195 67.913 138.7 68.563 138.35C69.223 137.99 69.958 137.81 70.768 137.81C71.558 137.81 72.273 137.98 72.913 138.32C73.553 138.66 74.053 139.15 74.413 139.79C74.783 140.42 74.968 141.155 74.968 141.995ZM70.783 139.58C70.253 139.58 69.808 139.73 69.448 140.03C69.088 140.33 68.868 140.74 68.788 141.26H72.763C72.683 140.75 72.463 140.345 72.103 140.045C71.743 139.735 71.303 139.58 70.783 139.58ZM82.9267 141.785C83.8767 142.105 84.3517 142.745 84.3517 143.705C84.3517 144.435 84.0767 145 83.5267 145.4C82.9767 145.8 82.1567 146 81.0667 146H76.7617V137.93H80.8867C81.8967 137.93 82.6867 138.115 83.2567 138.485C83.8267 138.845 84.1117 139.355 84.1117 140.015C84.1117 140.415 84.0067 140.77 83.7967 141.08C83.5967 141.38 83.3067 141.615 82.9267 141.785ZM78.9067 141.245H80.6767C81.4967 141.245 81.9067 140.955 81.9067 140.375C81.9067 139.805 81.4967 139.52 80.6767 139.52H78.9067V141.245ZM80.8717 144.41C81.7317 144.41 82.1617 144.115 82.1617 143.525C82.1617 143.215 82.0617 142.99 81.8617 142.85C81.6617 142.7 81.3467 142.625 80.9167 142.625H78.9067V144.41H80.8717ZM86.0928 137.93H88.4178V142.73L92.3478 137.93H94.4928V146H92.1678V141.2L88.2528 146H86.0928V137.93ZM100.297 142.94H99.0822V146H96.7422V137.93H99.0822V141.065H100.342L102.532 137.93H105.022L102.202 141.8L105.217 146H102.457L100.297 142.94ZM106.366 137.93H108.691V142.73L112.621 137.93H114.766V146H112.441V141.2L108.526 146H106.366V137.93Z" fill="white"/>
<path d="M42.2 79.2001L60.6 73.2001L64.8 56L57 54.4C55.8 54.2 54.8 54.2 53.6 54.6L46.2 57.2C43.8 58 42.2 60.4 42.2 63V79.2001V79.2001Z" fill="#FFA726"/>
<path d="M103.6 83.8L84.8 102.6C77.6 109.8 65.8 109.8 58.6 102.6L45.6 89.6C40.8 84.8 40.8 77 45.6 72.2L71.8 46C74.2 43.6 78.2 43.6 80.6 46C83 48.4 83.4 50 85 50.4C86.2 50.8 89 50 92 53C95 56 94 59 95 60.2C96 61.2 98.6 62.6 99.6 64.8C100.6 67 99.8 69.4 100.8 71.4C101.8 73.4 104.4 74.6 105.2 77.2C105.8 78.8 105.8 81.6 103.6 83.8Z" fill="#FFB74D"/>
<path d="M118.8 58.4C119.6 56.6 120 54.8 120 53C120 46.8 115.6 41.6 109.8 40.2C108.4 34.4 103.2 30 97 30C95.2 30 93.2 30.4 91.6 31.2C89.2 29.2 86.2 28 83 28C76.2 28 70.8 33.4 70.6 33.6L73.4 36.4C73.4 36.4 77.8 32 83 32C85.6 32 88 33 89.6 35L90.8 36.2L92.2 35.4C93.6 34.4 95.4 34 97 34C101.6 34 105.6 37.6 106 42.2L106.2 43.8L107.8 44C112.4 44.4 116 48.4 116 53C116 54.6 115.6 56.4 114.6 57.8L113.8 59.2L115 60.4C117 62.2 118 64.6 118 67C118 72.2 113.6 76.6 113.6 76.6L115 78L116.4 79.4C116.6 79.2 122 73.8 122 67C122 63.8 120.8 60.8 118.8 58.4Z" fill="#F44336"/>
</g>
<defs>
<clipPath id="clip0">
<rect width="160" height="160" fill="white"/>
</clipPath>
</defs>
</svg>
