<svg width="160" height="160" viewBox="0 0 160 160" fill="none" xmlns="http://www.w3.org/2000/svg">
<g clip-path="url(#clip0)">
<rect width="160" height="160" fill="#0A0C0E"/>
<path d="M61.4565 143.75H56.5815L55.6515 146H53.1615L57.8415 135.5H60.2415L64.9365 146H62.3865L61.4565 143.75ZM60.6915 141.905L59.0265 137.885L57.3615 141.905H60.6915ZM66.1489 137.93H68.4739V141.08H71.9839V137.93H74.3239V146H71.9839V142.985H68.4739V146H66.1489V137.93ZM76.564 137.93H78.889V142.73L82.819 137.93H84.964V146H82.639V141.2L78.724 146H76.564V137.93ZM95.0884 146V141.17L92.6734 145.22H91.6834L89.3284 141.155V146H87.2134V137.93H89.6584L92.2384 142.595L94.9834 137.93H97.1734L97.2034 146H95.0884ZM107.29 141.995C107.29 142.025 107.275 142.235 107.245 142.625H101.14C101.25 143.125 101.51 143.52 101.92 143.81C102.33 144.1 102.84 144.245 103.45 144.245C103.87 144.245 104.24 144.185 104.56 144.065C104.89 143.935 105.195 143.735 105.475 143.465L106.72 144.815C105.96 145.685 104.85 146.12 103.39 146.12C102.48 146.12 101.675 145.945 100.975 145.595C100.275 145.235 99.7348 144.74 99.3548 144.11C98.9748 143.48 98.7848 142.765 98.7848 141.965C98.7848 141.175 98.9698 140.465 99.3398 139.835C99.7198 139.195 100.235 138.7 100.885 138.35C101.545 137.99 102.28 137.81 103.09 137.81C103.88 137.81 104.595 137.98 105.235 138.32C105.875 138.66 106.375 139.15 106.735 139.79C107.105 140.42 107.29 141.155 107.29 141.995ZM103.105 139.58C102.575 139.58 102.13 139.73 101.77 140.03C101.41 140.33 101.19 140.74 101.11 141.26H105.085C105.005 140.75 104.785 140.345 104.425 140.045C104.065 139.735 103.625 139.58 103.105 139.58Z" fill="white"/>
<path d="M80 26.5C65.0885 26.5 53 43.2895 53 64V113.5H107V64C107 43.2895 94.9115 26.5 80 26.5Z" fill="#394D5C"/>
<path d="M80 80.5C90.7696 80.5 99.5 68.4117 99.5 53.5C99.5 38.5883 90.7696 26.5 80 26.5C69.2304 26.5 60.5 38.5883 60.5 53.5C60.5 68.4117 69.2304 80.5 80 80.5Z" fill="#F4F4E6"/>
<path d="M72.5 52C74.9853 52 77 50.6569 77 49C77 47.3431 74.9853 46 72.5 46C70.0147 46 68 47.3431 68 49C68 50.6569 70.0147 52 72.5 52Z" fill="#394D5C"/>
<path d="M87.5 52C89.9853 52 92 50.6569 92 49C92 47.3431 89.9853 46 87.5 46C85.0147 46 83 47.3431 83 49C83 50.6569 85.0147 52 87.5 52Z" fill="#394D5C"/>
<path d="M86 70H74C73.6022 70 73.2206 69.842 72.9393 69.5607C72.658 69.2794 72.5 68.8978 72.5 68.5C72.5 68.1022 72.658 67.7206 72.9393 67.4393C73.2206 67.158 73.6022 67 74 67H86C86.3978 67 86.7794 67.158 87.0607 67.4393C87.342 67.7206 87.5 68.1022 87.5 68.5C87.5 68.8978 87.342 69.2794 87.0607 69.5607C86.7794 69.842 86.3978 70 86 70Z" fill="#F98C96"/>
<path d="M81.5 76H78.5C78.1022 76 77.7206 75.842 77.4393 75.5607C77.158 75.2794 77 74.8978 77 74.5C77 74.1022 77.158 73.7206 77.4393 73.4393C77.7206 73.158 78.1022 73 78.5 73H81.5C81.8978 73 82.2794 73.158 82.5607 73.4393C82.842 73.7206 83 74.1022 83 74.5C83 74.8978 82.842 75.2794 82.5607 75.5607C82.2794 75.842 81.8978 76 81.5 76Z" fill="#F98C96"/>
<path d="M68 97V88C68 86.8065 67.5259 85.6619 66.682 84.818C65.8381 83.9741 64.6935 83.5 63.5 83.5C62.3065 83.5 61.1619 83.9741 60.318 84.818C59.4741 85.6619 59 86.8065 59 88V101.5C59.0225 102.326 59.3309 103.119 59.8724 103.744C60.414 104.368 61.1553 104.785 61.97 104.925L74.954 106.779C75.5812 106.868 76.2203 106.822 76.8281 106.643C77.4359 106.464 77.9981 106.157 78.4766 105.741C78.9552 105.326 79.3388 104.813 79.6017 104.236C79.8645 103.66 80.0004 103.034 80 102.4V102.4C79.9999 101.322 79.6063 100.282 78.8932 99.4739C78.18 98.666 77.1963 98.1463 76.127 98.0125L68 97Z" fill="#F4F4E6"/>
<path d="M92 97V88C92 86.8065 92.4741 85.6619 93.318 84.818C94.1619 83.9741 95.3065 83.5 96.5 83.5C97.6935 83.5 98.8381 83.9741 99.682 84.818C100.526 85.6619 101 86.8065 101 88V101.5C100.977 102.326 100.669 103.119 100.128 103.744C99.586 104.368 98.8447 104.785 98.03 104.925L85.046 106.779C84.4188 106.868 83.7797 106.822 83.1719 106.643C82.5641 106.464 82.0019 106.157 81.5234 105.741C81.0448 105.326 80.6612 104.813 80.3983 104.236C80.1355 103.66 79.9996 103.034 80 102.4V102.4C80.0001 101.322 80.3937 100.282 81.1068 99.4739C81.82 98.666 82.8037 98.1463 83.873 98.0125L92 97Z" fill="#F4F4E6"/>
<path d="M102.5 68.5H99.5V74.5H102.5V68.5Z" fill="#AABECE"/>
<path d="M102.5 109H99.5V113.5H102.5V109Z" fill="#AABECE"/>
<path d="M102.5 77.5H99.5V80.5H102.5V77.5Z" fill="#AABECE"/>
<path d="M69.5 43H75.5L72.5 34L69.5 43Z" fill="#F98C96"/>
<path d="M84.5 43H90.5L87.5 34L84.5 43Z" fill="#F98C96"/>
<path d="M90.5 55H84.5L87.5 64L90.5 55Z" fill="#F98C96"/>
<path d="M75.5 55H69.5L72.5 64L75.5 55Z" fill="#F98C96"/>
</g>
<defs>
<clipPath id="clip0">
<rect width="160" height="160" fill="white"/>
</clipPath>
</defs>
</svg>
