<svg width="160" height="160" viewBox="0 0 160 160" fill="none" xmlns="http://www.w3.org/2000/svg">
<g clip-path="url(#clip0)">
<rect width="160" height="160" fill="#0A0C0E"/>
<path d="M45.4458 143.75H40.5708L39.6408 146H37.1508L41.8308 135.5H44.2308L48.9258 146H46.3758L45.4458 143.75ZM44.6808 141.905L43.0158 137.885L41.3508 141.905H44.6808ZM56.3032 141.785C57.2532 142.105 57.7282 142.745 57.7282 143.705C57.7282 144.435 57.4532 145 56.9032 145.4C56.3532 145.8 55.5332 146 54.4432 146H50.1382V137.93H54.2632C55.2732 137.93 56.0632 138.115 56.6332 138.485C57.2032 138.845 57.4882 139.355 57.4882 140.015C57.4882 140.415 57.3832 140.77 57.1732 141.08C56.9732 141.38 56.6832 141.615 56.3032 141.785ZM52.2832 141.245H54.0532C54.8732 141.245 55.2832 140.955 55.2832 140.375C55.2832 139.805 54.8732 139.52 54.0532 139.52H52.2832V141.245ZM54.2482 144.41C55.1082 144.41 55.5382 144.115 55.5382 143.525C55.5382 143.215 55.4382 142.99 55.2382 142.85C55.0382 142.7 54.7232 142.625 54.2932 142.625H52.2832V144.41H54.2482ZM66.2492 139.85H63.5192V146H61.1942V139.85H58.4642V137.93H66.2492V139.85ZM70.9397 146.12C70.0897 146.12 69.3247 145.945 68.6447 145.595C67.9747 145.235 67.4497 144.74 67.0697 144.11C66.6897 143.48 66.4997 142.765 66.4997 141.965C66.4997 141.165 66.6897 140.45 67.0697 139.82C67.4497 139.19 67.9747 138.7 68.6447 138.35C69.3247 137.99 70.0897 137.81 70.9397 137.81C71.7897 137.81 72.5497 137.99 73.2197 138.35C73.8897 138.7 74.4147 139.19 74.7947 139.82C75.1747 140.45 75.3647 141.165 75.3647 141.965C75.3647 142.765 75.1747 143.48 74.7947 144.11C74.4147 144.74 73.8897 145.235 73.2197 145.595C72.5497 145.945 71.7897 146.12 70.9397 146.12ZM70.9397 144.2C71.5397 144.2 72.0297 144 72.4097 143.6C72.7997 143.19 72.9947 142.645 72.9947 141.965C72.9947 141.285 72.7997 140.745 72.4097 140.345C72.0297 139.935 71.5397 139.73 70.9397 139.73C70.3397 139.73 69.8447 139.935 69.4547 140.345C69.0647 140.745 68.8697 141.285 68.8697 141.965C68.8697 142.645 69.0647 143.19 69.4547 143.6C69.8447 144 70.3397 144.2 70.9397 144.2ZM81.7291 137.81C82.4791 137.81 83.1591 137.985 83.7691 138.335C84.3891 138.675 84.8741 139.16 85.2241 139.79C85.5741 140.41 85.7491 141.135 85.7491 141.965C85.7491 142.795 85.5741 143.525 85.2241 144.155C84.8741 144.775 84.3891 145.26 83.7691 145.61C83.1591 145.95 82.4791 146.12 81.7291 146.12C80.6991 146.12 79.8891 145.795 79.2991 145.145V148.91H76.9591V137.93H79.1941V138.86C79.7741 138.16 80.6191 137.81 81.7291 137.81ZM81.3241 144.2C81.9241 144.2 82.4141 144 82.7941 143.6C83.1841 143.19 83.3791 142.645 83.3791 141.965C83.3791 141.285 83.1841 140.745 82.7941 140.345C82.4141 139.935 81.9241 139.73 81.3241 139.73C80.7241 139.73 80.2291 139.935 79.8391 140.345C79.4591 140.745 79.2691 141.285 79.2691 141.965C79.2691 142.645 79.4591 143.19 79.8391 143.6C80.2291 144 80.7241 144.2 81.3241 144.2ZM91.2292 146.12C90.3692 146.12 89.5942 145.945 88.9042 145.595C88.2242 145.235 87.6892 144.74 87.2992 144.11C86.9192 143.48 86.7292 142.765 86.7292 141.965C86.7292 141.165 86.9192 140.45 87.2992 139.82C87.6892 139.19 88.2242 138.7 88.9042 138.35C89.5942 137.99 90.3692 137.81 91.2292 137.81C92.0792 137.81 92.8192 137.99 93.4492 138.35C94.0892 138.7 94.5542 139.205 94.8442 139.865L93.0292 140.84C92.6092 140.1 92.0042 139.73 91.2142 139.73C90.6042 139.73 90.0992 139.93 89.6992 140.33C89.2992 140.73 89.0992 141.275 89.0992 141.965C89.0992 142.655 89.2992 143.2 89.6992 143.6C90.0992 144 90.6042 144.2 91.2142 144.2C92.0142 144.2 92.6192 143.83 93.0292 143.09L94.8442 144.08C94.5542 144.72 94.0892 145.22 93.4492 145.58C92.8192 145.94 92.0792 146.12 91.2292 146.12ZM99.8211 142.94H98.6061V146H96.2661V137.93H98.6061V141.065H99.8661L102.056 137.93H104.546L101.726 141.8L104.741 146H101.981L99.8211 142.94ZM109.421 146.12C108.571 146.12 107.806 145.945 107.126 145.595C106.456 145.235 105.931 144.74 105.551 144.11C105.171 143.48 104.981 142.765 104.981 141.965C104.981 141.165 105.171 140.45 105.551 139.82C105.931 139.19 106.456 138.7 107.126 138.35C107.806 137.99 108.571 137.81 109.421 137.81C110.271 137.81 111.031 137.99 111.701 138.35C112.371 138.7 112.896 139.19 113.276 139.82C113.656 140.45 113.846 141.165 113.846 141.965C113.846 142.765 113.656 143.48 113.276 144.11C112.896 144.74 112.371 145.235 111.701 145.595C111.031 145.945 110.271 146.12 109.421 146.12ZM109.421 144.2C110.021 144.2 110.511 144 110.891 143.6C111.281 143.19 111.476 142.645 111.476 141.965C111.476 141.285 111.281 140.745 110.891 140.345C110.511 139.935 110.021 139.73 109.421 139.73C108.821 139.73 108.326 139.935 107.936 140.345C107.546 140.745 107.351 141.285 107.351 141.965C107.351 142.645 107.546 143.19 107.936 143.6C108.326 144 108.821 144.2 109.421 144.2ZM123.301 141.995C123.301 142.025 123.286 142.235 123.256 142.625H117.151C117.261 143.125 117.521 143.52 117.931 143.81C118.341 144.1 118.851 144.245 119.461 144.245C119.881 144.245 120.251 144.185 120.571 144.065C120.901 143.935 121.206 143.735 121.486 143.465L122.731 144.815C121.971 145.685 120.861 146.12 119.401 146.12C118.491 146.12 117.686 145.945 116.986 145.595C116.286 145.235 115.746 144.74 115.366 144.11C114.986 143.48 114.796 142.765 114.796 141.965C114.796 141.175 114.981 140.465 115.351 139.835C115.731 139.195 116.246 138.7 116.896 138.35C117.556 137.99 118.291 137.81 119.101 137.81C119.891 137.81 120.606 137.98 121.246 138.32C121.886 138.66 122.386 139.15 122.746 139.79C123.116 140.42 123.301 141.155 123.301 141.995ZM119.116 139.58C118.586 139.58 118.141 139.73 117.781 140.03C117.421 140.33 117.201 140.74 117.121 141.26H121.096C121.016 140.75 120.796 140.345 120.436 140.045C120.076 139.735 119.636 139.58 119.116 139.58Z" fill="white"/>
<path d="M118 100V70H110V100C110 110 118 118 128 118V110C122.4 110 118 105.6 118 100Z" fill="#3F51B5"/>
<path d="M80 108C100.987 108 118 90.9868 118 70C118 49.0132 100.987 32 80 32C59.0132 32 42 49.0132 42 70C42 90.9868 59.0132 108 80 108Z" fill="#90A4AE"/>
<path d="M80 74C82.2091 74 84 72.2091 84 70C84 67.7909 82.2091 66 80 66C77.7909 66 76 67.7909 76 70C76 72.2091 77.7909 74 80 74Z" fill="#37474F"/>
<path d="M80 60C85.5228 60 90 55.5228 90 50C90 44.4772 85.5228 40 80 40C74.4772 40 70 44.4772 70 50C70 55.5228 74.4772 60 80 60Z" fill="#253278"/>
<path d="M80 100C85.5228 100 90 95.5228 90 90C90 84.4772 85.5228 80 80 80C74.4772 80 70 84.4772 70 90C70 95.5228 74.4772 100 80 100Z" fill="#253278"/>
<path d="M100 80C105.523 80 110 75.5228 110 70C110 64.4772 105.523 60 100 60C94.4772 60 90 64.4772 90 70C90 75.5228 94.4772 80 100 80Z" fill="#253278"/>
<path d="M60 80C65.5228 80 70 75.5228 70 70C70 64.4772 65.5228 60 60 60C54.4772 60 50 64.4772 50 70C50 75.5228 54.4772 80 60 80Z" fill="#253278"/>
</g>
<defs>
<clipPath id="clip0">
<rect width="160" height="160" fill="white"/>
</clipPath>
</defs>
</svg>
