<svg width="160" height="160" viewBox="0 0 160 160" fill="none" xmlns="http://www.w3.org/2000/svg">
<rect width="160" height="160" fill="#0A0C0E"/>
<path d="M35.0013 135.5H43.4763V137.435H37.4163V139.595H40.3263C41.5963 139.595 42.5613 139.86 43.2213 140.39C43.8913 140.92 44.2263 141.685 44.2263 142.685C44.2263 143.735 43.8563 144.55 43.1163 145.13C42.3763 145.71 41.3313 146 39.9813 146H35.0013V135.5ZM39.8463 144.2C40.4663 144.2 40.9413 144.08 41.2713 143.84C41.6013 143.59 41.7663 143.23 41.7663 142.76C41.7663 141.84 41.1263 141.38 39.8463 141.38H37.4163V144.2H39.8463ZM45.8955 137.93H48.2205V142.73L52.1505 137.93H54.2955V146H51.9705V141.2L48.0555 146H45.8955V137.93ZM60.3249 146.12C59.4749 146.12 58.7099 145.945 58.0299 145.595C57.3599 145.235 56.8349 144.74 56.4549 144.11C56.0749 143.48 55.8849 142.765 55.8849 141.965C55.8849 141.165 56.0749 140.45 56.4549 139.82C56.8349 139.19 57.3599 138.7 58.0299 138.35C58.7099 137.99 59.4749 137.81 60.3249 137.81C61.1749 137.81 61.9349 137.99 62.6049 138.35C63.2749 138.7 63.7999 139.19 64.1799 139.82C64.5599 140.45 64.7499 141.165 64.7499 141.965C64.7499 142.765 64.5599 143.48 64.1799 144.11C63.7999 144.74 63.2749 145.235 62.6049 145.595C61.9349 145.945 61.1749 146.12 60.3249 146.12ZM60.3249 144.2C60.9249 144.2 61.4149 144 61.7949 143.6C62.1849 143.19 62.3799 142.645 62.3799 141.965C62.3799 141.285 62.1849 140.745 61.7949 140.345C61.4149 139.935 60.9249 139.73 60.3249 139.73C59.7249 139.73 59.2299 139.935 58.8399 140.345C58.4499 140.745 58.2549 141.285 58.2549 141.965C58.2549 142.645 58.4499 143.19 58.8399 143.6C59.2299 144 59.7249 144.2 60.3249 144.2ZM72.8244 139.85H68.6844V146H66.3594V137.93H72.8244V139.85ZM78.8195 137.81C79.5695 137.81 80.2495 137.985 80.8595 138.335C81.4795 138.675 81.9645 139.16 82.3145 139.79C82.6645 140.41 82.8395 141.135 82.8395 141.965C82.8395 142.795 82.6645 143.525 82.3145 144.155C81.9645 144.775 81.4795 145.26 80.8595 145.61C80.2495 145.95 79.5695 146.12 78.8195 146.12C77.7895 146.12 76.9795 145.795 76.3895 145.145V148.91H74.0495V137.93H76.2845V138.86C76.8645 138.16 77.7095 137.81 78.8195 137.81ZM78.4145 144.2C79.0145 144.2 79.5045 144 79.8845 143.6C80.2745 143.19 80.4695 142.645 80.4695 141.965C80.4695 141.285 80.2745 140.745 79.8845 140.345C79.5045 139.935 79.0145 139.73 78.4145 139.73C77.8145 139.73 77.3195 139.935 76.9295 140.345C76.5495 140.745 76.3595 141.285 76.3595 141.965C76.3595 142.645 76.5495 143.19 76.9295 143.6C77.3195 144 77.8145 144.2 78.4145 144.2ZM87.4827 137.81C88.7327 137.81 89.6927 138.11 90.3627 138.71C91.0327 139.3 91.3677 140.195 91.3677 141.395V146H89.1777V144.995C88.7377 145.745 87.9177 146.12 86.7177 146.12C86.0977 146.12 85.5577 146.015 85.0977 145.805C84.6477 145.595 84.3027 145.305 84.0627 144.935C83.8227 144.565 83.7027 144.145 83.7027 143.675C83.7027 142.925 83.9827 142.335 84.5427 141.905C85.1127 141.475 85.9877 141.26 87.1677 141.26H89.0277C89.0277 140.75 88.8727 140.36 88.5627 140.09C88.2527 139.81 87.7877 139.67 87.1677 139.67C86.7377 139.67 86.3127 139.74 85.8927 139.88C85.4827 140.01 85.1327 140.19 84.8427 140.42L84.0027 138.785C84.4427 138.475 84.9677 138.235 85.5777 138.065C86.1977 137.895 86.8327 137.81 87.4827 137.81ZM87.3027 144.545C87.7027 144.545 88.0577 144.455 88.3677 144.275C88.6777 144.085 88.8977 143.81 89.0277 143.45V142.625H87.4227C86.4627 142.625 85.9827 142.94 85.9827 143.57C85.9827 143.87 86.0977 144.11 86.3277 144.29C86.5677 144.46 86.8927 144.545 87.3027 144.545ZM104.545 141.935C104.545 143.185 104.125 144.175 103.285 144.905C102.455 145.625 101.265 146.04 99.7154 146.15V148.91H97.5704V146.15C96.0204 146.04 94.8254 145.63 93.9854 144.92C93.1554 144.2 92.7404 143.205 92.7404 141.935C92.7404 140.685 93.1504 139.715 93.9704 139.025C94.8004 138.335 96.0004 137.935 97.5704 137.825V134.87H99.7154V137.825C101.265 137.935 102.455 138.34 103.285 139.04C104.125 139.74 104.545 140.705 104.545 141.935ZM95.0054 141.935C95.0054 142.655 95.2104 143.21 95.6204 143.6C96.0304 143.99 96.6804 144.235 97.5704 144.335V139.64C96.6804 139.73 96.0304 139.965 95.6204 140.345C95.2104 140.715 95.0054 141.245 95.0054 141.935ZM99.7154 144.335C100.605 144.235 101.255 143.99 101.665 143.6C102.085 143.21 102.295 142.655 102.295 141.935C102.295 141.245 102.085 140.715 101.665 140.345C101.255 139.965 100.605 139.73 99.7154 139.64V144.335ZM106.13 137.93H108.455V142.73L112.385 137.93H114.53V146H112.205V141.2L108.29 146H106.13V137.93ZM116.779 137.93H119.104V142.73L123.034 137.93H125.179V146H122.854V141.2L118.939 146H116.779V137.93Z" fill="white"/>
<g opacity="0.9">
<path d="M105.6 62H107.8C108.8 62 110.8 62.4 110.8 64.2C110.8 66 110.2 67.8 109.8 68.8C109.4 69.8 109.4 73.4 109.2 75C108.8 76.6 108.8 78 108.2 79.2C107.6 80.4 107 81.4 105 81.4H103.4L105.6 62Z" fill="#FFA726"/>
<path d="M54.4 62H52.2C51.2 62 49.2 62.4 49.2 64.2C49.2 66 49.8 67.8 50.2 68.8C50.6 69.8 50.6 73.4 50.8 75C51.2 76.6 51.2 78 51.8 79.2C52.4 80.4 53 81.4 55 81.4H56.6L54.4 62Z" fill="#FFA726"/>
<path d="M106.2 66.6C108 66.6 108.6 68 108.6 68.6C108.6 70.6 106.6 73.6 106.6 73.6C106.6 73.6 106.8 71.8 107 71.2C107.6 69.4 107.2 69.2 106.4 69.2C105.8 69.2 105.8 68.4 105.8 67.8C105.8 67.2 105.4 66.6 106.2 66.6Z" fill="#BD7A18"/>
<path d="M105.4 65.6C105.4 65.6 106.6 63.2 108.2 63.2C109.2 63.2 109.8 63.2 109.8 64.4C109.8 65.8 109.2 67.4 109.2 67.4C109.2 67.4 109.6 64.6 108.6 64.4C107.6 64.2 105.6 65.2 105.4 65.6Z" fill="#BD7A18"/>
<path d="M54.2 67.6C54.2 68 54.2 69 53.6 69C52.8 69 52.4 69.4 53 71C53.2 71.6 53.4 73.4 53.4 73.4C53.4 73.4 51.4 70.4 51.4 68.4C51.4 68 52 66.4 53.8 66.4C54.6 66.6 54.2 67.2 54.2 67.6Z" fill="#BD7A18"/>
<path d="M54.6 65.6C54.6 65.6 53.4 63.2 51.8 63.2C50.8 63.2 50.2 63.2 50.2 64.4C50.2 65.8 50.8 67.4 50.8 67.4C50.8 67.4 50.4 64.6 51.4 64.4C52.4 64.2 54.4 65.2 54.6 65.6Z" fill="#BD7A18"/>
<path d="M107.8 62C107.8 61 107.4 57.4 106.2 50.4C104.2 39.6 91 28 80 28C69 28 55.8 39.6 53.8 50.2C52.6 57.4 52.2 60.6 52.2 61.8C55.2 65.6 53.2 65.4 53.2 70.6C53.6 75.4 55.4 75.8 55.8 84.8C55.8 85.8 55.8 89 57.4 92.2C59.4 95.8 65.4 112 80 112C94.6 112 100.6 95.8 102.2 92.2C103.8 88.6 103.8 85.4 103.8 84.8C104.2 75.8 106 75.4 106.4 70.6C106.8 65.8 104.8 66.2 107.8 62Z" fill="#FFB74D"/>
<path d="M85.8 64.6C85.8 64.6 85.4 66.8 86.4 67.2C87.4 67.6 89.4 66.2 92.8 66.2C94.8 66.2 95.4 65.8 96.6 65.2C97.6 64.6 98.6 63.6 98.6 63.6C98.6 63.6 95.6 63 94.4 63C92 62.6 88 63.2 85.8 64.6Z" fill="#616161"/>
<path d="M74.2 64.6C74.2 64.6 74.6 66.8 73.6 67.2C72.6 67.6 70.6 66.2 67.2 66.2C65.2 66.2 64.6 65.8 63.4 65.2C62.4 64.6 61.4 63.6 61.4 63.6C61.4 63.6 64.4 63 65.6 63C68 62.6 72 63.2 74.2 64.6Z" fill="#616161"/>
<path d="M54.4 68.4C54.4 65.8 58 52.8 58 51C58 46.4 60.6 40.4 65.2 38.4C67.8 37.2 72 43.6 80 43.6C88 43.6 92.2 37.4 94.8 38.4C99.4 40.4 102 46.4 102 51C101.6 52.6 105.4 65.8 105.4 68.4L106.6 70.6C107 65.8 105 66 107.8 61.8C107.8 60.8 107.4 57.2 106.2 50.2C104.2 39.6 91 28 80 28C69 28 55.8 39.6 53.8 50.2C52.6 57.4 52.2 60.6 52.2 61.8C55.2 65.6 53.2 65.4 53.2 70.6L54.4 68.4Z" fill="#616161"/>
<path d="M86.8 103.2C83.2 103.2 87.2 98.6 86.4 98C85.8 97.4 81.6 98.6 80 98.6C78.4 98.6 74.2 97.4 73.6 98C73 98.6 77.2 103.2 73.2 103.2C68.6 103.2 69 100.2 69 99.4C69 98.4 70.2 94.8 72 94.6C73.6 94.2 78.4 95.2 79.8 95.2C81 95.2 86.2 94.2 87.6 94.6C88.8 95 90.6 98.4 90.6 99.4C90.6 100.4 91.4 103.2 86.8 103.2ZM53.2 70.6C53.6 75.4 55.4 75.8 55.8 84.8C55.8 85.8 55.8 89 57.4 92.2C59.4 95.8 65.4 112 80 112C94.6 112 100.6 95.8 102.2 92.2C103.8 88.6 103.8 85.4 103.8 84.8C104.2 75.8 106 75.4 106.4 70.6L105.2 68.4C105.2 71 100.2 84 99.8 84.6C99.2 86.2 96.8 87.2 96.2 87.8C95.6 89 94.6 96.6 92.6 96.6C91.6 96.6 90.8 91.8 90.4 91.2C90 90 88 88.8 84.2 88.8C82 88.8 83 91 80 91.4C77 91.4 78 88.8 75.8 88.8C71.6 88.8 70 90 69.4 91C69 91.6 68 96.4 67 96.4C65 96.4 64 88.6 63.4 87.6C62.8 87 60.4 86 59.8 84.4C59.4 83.8 54.6 70.8 54.4 68.2L53.2 70.6Z" fill="#918873"/>
<path d="M81.2 70.8H79L78 87.2C78 88.2 78.8 89.2 80 89.2C81 89.2 82 88.2 82 87.2L81.2 70.8Z" fill="#FFC062"/>
<path d="M90.4 72.4C92.0569 72.4 93.4 71.236 93.4 69.8C93.4 68.3641 92.0569 67.2 90.4 67.2C88.7432 67.2 87.4 68.3641 87.4 69.8C87.4 71.236 88.7432 72.4 90.4 72.4Z" fill="#70574F"/>
<path d="M90.4 70.8C91.1732 70.8 91.8 70.2628 91.8 69.6C91.8 68.9373 91.1732 68.4 90.4 68.4C89.6268 68.4 89 68.9373 89 69.6C89 70.2628 89.6268 70.8 90.4 70.8Z" fill="#1F1F1F"/>
<path d="M89.8 69.2C90.1314 69.2 90.4 68.9314 90.4 68.6C90.4 68.2686 90.1314 68 89.8 68C89.4686 68 89.2 68.2686 89.2 68.6C89.2 68.9314 89.4686 69.2 89.8 69.2Z" fill="white"/>
<path d="M69.6 72.4C71.2568 72.4 72.6 71.236 72.6 69.8C72.6 68.3641 71.2568 67.2 69.6 67.2C67.9431 67.2 66.6 68.3641 66.6 69.8C66.6 71.236 67.9431 72.4 69.6 72.4Z" fill="#70574F"/>
<path d="M69.6 70.8C70.3732 70.8 71 70.2628 71 69.6C71 68.9373 70.3732 68.4 69.6 68.4C68.8268 68.4 68.2 68.9373 68.2 69.6C68.2 70.2628 68.8268 70.8 69.6 70.8Z" fill="#1F1F1F"/>
<path d="M69 69.2C69.3313 69.2 69.6 68.9314 69.6 68.6C69.6 68.2686 69.3313 68 69 68C68.6686 68 68.4 68.2686 68.4 68.6C68.4 68.9314 68.6686 69.2 69 69.2Z" fill="white"/>
<path d="M108.2 61.4C108 61.2 107.6 61.2 107.4 61.4L100.6 70.4H98.4C98.2 70.4 98 70.6 98 70.8C98 71 98.2 71.2 98.4 71.2H100.8C101 71.2 101.2 71.2 101.2 71L108.2 61.8C108.6 61.8 108.4 61.6 108.2 61.4Z" fill="#546E7A"/>
<path d="M61.4 70.4H59.2L52.4 61.4C52.2 61.2 52 61.2 51.6 61.4C51.4 61.6 51.4 61.8 51.6 62.2L58.6 71.4C58.6 71.6 58.8 71.6 59 71.6H61.4C61.6 71.6 61.8 71.4 61.8 71.2C61.8 71 61.8 70.4 61.4 70.4Z" fill="#546E7A"/>
<path d="M76.2 71.4C76 71.6 76 72 76 72.2C76 72.4 76.4 72.4 76.6 72.4C77.4 71.8 78.6 71.6 79.6 71.6C80.8 71.6 81.8 71.8 83 72.4H83.2C83.4 72.4 83.6 72.2 83.6 72.2C83.8 72 83.6 71.6 83.4 71.6C81 70.2 78 70.2 76.2 71.4Z" fill="#546E7A"/>
<path d="M91 64C86.6 64 83 67.6 83 72C83 76.4 86.6 80 91 80C95.4 80 99 76.4 99 72C99 67.6 95.4 64 91 64ZM91 79C87.2 79 84 75.8 84 72C84 68.2 87.2 65 91 65C94.8 65 98 68.2 98 72C98 75.8 94.8 79 91 79Z" fill="#90A4AE"/>
<path d="M69 64C64.6 64 61 67.6 61 72C61 76.4 64.6 80 69 80C73.4 80 77 76.4 77 72C77 67.6 73.4 64 69 64ZM69 79C65.2 79 62 75.8 62 72C62 68.2 65.2 65 69 65C72.8 65 76 68.2 76 72C76 75.8 72.8 79 69 79Z" fill="#90A4AE"/>
</g>
</svg>
