<svg width="160" height="160" viewBox="0 0 160 160" fill="none" xmlns="http://www.w3.org/2000/svg">
<rect width="160" height="160" fill="#0A0C0E"/>
<path d="M29.86 146L29.845 139.715L26.755 144.89H25.675L22.585 139.835V146H20.305V135.5H22.315L26.245 142.025L30.115 135.5H32.125L32.14 146H29.86ZM42.6534 137.93L39.0084 146.495C38.6384 147.425 38.1784 148.08 37.6284 148.46C37.0884 148.84 36.4334 149.03 35.6634 149.03C35.2434 149.03 34.8284 148.965 34.4184 148.835C34.0084 148.705 33.6734 148.525 33.4134 148.295L34.2684 146.63C34.4484 146.79 34.6534 146.915 34.8834 147.005C35.1234 147.095 35.3584 147.14 35.5884 147.14C35.9084 147.14 36.1684 147.06 36.3684 146.9C36.5684 146.75 36.7484 146.495 36.9084 146.135L36.9384 146.06L33.4434 137.93H35.8584L38.1234 143.405L40.4034 137.93H42.6534ZM50.9509 137.93V146H48.6109V139.85H46.0609L45.9859 141.275C45.9459 142.335 45.8459 143.215 45.6859 143.915C45.5259 144.615 45.2659 145.165 44.9059 145.565C44.5459 145.965 44.0459 146.165 43.4059 146.165C43.0659 146.165 42.6609 146.105 42.1909 145.985L42.3109 144.065C42.4709 144.085 42.5859 144.095 42.6559 144.095C43.0059 144.095 43.2659 143.97 43.4359 143.72C43.6159 143.46 43.7359 143.135 43.7959 142.745C43.8559 142.345 43.9009 141.82 43.9309 141.17L44.0509 137.93H50.9509ZM57.5662 140.51C58.6162 140.52 59.4212 140.76 59.9812 141.23C60.5412 141.69 60.8212 142.345 60.8212 143.195C60.8212 144.085 60.5062 144.78 59.8762 145.28C59.2562 145.77 58.3812 146.015 57.2512 146.015L53.2012 146V137.93H55.5262V140.51H57.5662ZM57.0412 144.35C57.4912 144.36 57.8362 144.265 58.0762 144.065C58.3162 143.865 58.4362 143.565 58.4362 143.165C58.4362 142.775 58.3162 142.49 58.0762 142.31C57.8462 142.13 57.5012 142.035 57.0412 142.025L55.5262 142.01V144.35H57.0412ZM68.3308 139.85H65.6008V146H63.2758V139.85H60.5458V137.93H68.3308V139.85ZM80.3862 141.935C80.3862 143.185 79.9662 144.175 79.1262 144.905C78.2962 145.625 77.1062 146.04 75.5562 146.15V148.91H73.4112V146.15C71.8612 146.04 70.6662 145.63 69.8262 144.92C68.9962 144.2 68.5812 143.205 68.5812 141.935C68.5812 140.685 68.9912 139.715 69.8112 139.025C70.6412 138.335 71.8412 137.935 73.4112 137.825V134.87H75.5562V137.825C77.1062 137.935 78.2962 138.34 79.1262 139.04C79.9662 139.74 80.3862 140.705 80.3862 141.935ZM70.8462 141.935C70.8462 142.655 71.0512 143.21 71.4612 143.6C71.8712 143.99 72.5212 144.235 73.4112 144.335V139.64C72.5212 139.73 71.8712 139.965 71.4612 140.345C71.0512 140.715 70.8462 141.245 70.8462 141.935ZM75.5562 144.335C76.4462 144.235 77.0962 143.99 77.5062 143.6C77.9262 143.21 78.1362 142.655 78.1362 141.935C78.1362 141.245 77.9262 140.715 77.5062 140.345C77.0962 139.965 76.4462 139.73 75.5562 139.64V144.335ZM81.9707 137.93H84.2957V142.73L88.2257 137.93H90.3707V146H88.0457V141.2L84.1307 146H81.9707V137.93ZM100.36 137.93V146H98.0201V139.85H95.4701L95.3951 141.275C95.3551 142.335 95.2551 143.215 95.0951 143.915C94.9351 144.615 94.6751 145.165 94.3151 145.565C93.9551 145.965 93.4551 146.165 92.8151 146.165C92.4751 146.165 92.0701 146.105 91.6001 145.985L91.7201 144.065C91.8801 144.085 91.9951 144.095 92.0651 144.095C92.4151 144.095 92.6751 143.97 92.8451 143.72C93.0251 143.46 93.1451 143.135 93.2051 142.745C93.2651 142.345 93.3101 141.82 93.3401 141.17L93.4601 137.93H100.36ZM106.975 140.51C108.025 140.52 108.83 140.76 109.39 141.23C109.95 141.69 110.23 142.345 110.23 143.195C110.23 144.085 109.915 144.78 109.285 145.28C108.665 145.77 107.79 146.015 106.66 146.015L102.61 146V137.93H104.935V140.51H106.975ZM106.45 144.35C106.9 144.36 107.245 144.265 107.485 144.065C107.725 143.865 107.845 143.565 107.845 143.165C107.845 142.775 107.725 142.49 107.485 142.31C107.255 142.13 106.91 142.035 106.45 142.025L104.935 142.01V144.35H106.45ZM119.567 146V141.17L117.152 145.22H116.162L113.807 141.155V146H111.692V137.93H114.137L116.717 142.595L119.462 137.93H121.652L121.682 146H119.567ZM128.169 140.51C129.219 140.52 130.014 140.755 130.554 141.215C131.094 141.675 131.364 142.335 131.364 143.195C131.364 144.095 131.059 144.79 130.449 145.28C129.839 145.77 128.974 146.015 127.854 146.015L123.924 146V137.93H126.249V140.51H128.169ZM132.234 137.93H134.559V146H132.234V137.93ZM127.644 144.35C128.094 144.36 128.439 144.265 128.679 144.065C128.919 143.865 129.039 143.565 129.039 143.165C129.039 142.775 128.919 142.49 128.679 142.31C128.449 142.13 128.104 142.035 127.644 142.025L126.249 142.01V144.35H127.644Z" fill="white"/>
<path d="M80 106C95.464 106 108 93.464 108 78C108 62.536 95.464 50 80 50C64.536 50 52 62.536 52 78C52 93.464 64.536 106 80 106Z" fill="#455A64"/>
<path d="M117.4 40.6C124.8 48 126.2 58.6 120.4 64.4C114.6 70.2 104 68.8 96.6 61.4C89.2 54 87.8 43.4 93.6 37.6C99.4 31.8 110 33.2 117.4 40.6Z" fill="#455A64"/>
<path d="M42.6 40.6C35.2 48 33.8 58.6 39.6 64.4C45.4 70.2 56 68.8 63.4 61.4C70.8 54 72.2 43.4 66.4 37.6C60.6 31.8 50 33.2 42.6 40.6Z" fill="#455A64"/>
<path d="M102.4 83.2C100.2 81 98.4 81.4 96.2 82.6C98.6 77.4 100.2 70.6 100.2 67.4C100.2 61.8 95.6 57.4 90.2 57.4C84.6 57.4 80.2 62 80.2 67.4C80.2 61.8 75.6 57.4 70.2 57.4C64.6 57.4 60.2 62 60.2 67.4C60.2 70.6 61.8 77.4 64.2 82.6C61.8 81.4 60 81.2 58 83.2C53 88.2 66.4 104 80.4 104C94.4 104 107.6 88.2 102.4 83.2Z" fill="#FFE0B2"/>
<path d="M80.6 94.8C83.6928 94.8 86.2 93.0091 86.2 90.8C86.2 88.5908 83.6928 86.8 80.6 86.8C77.5072 86.8 75 88.5908 75 90.8C75 93.0091 77.5072 94.8 80.6 94.8Z" fill="#263238"/>
<path d="M86 84C87.1046 84 88 81.3137 88 78C88 74.6863 87.1046 72 86 72C84.8954 72 84 74.6863 84 78C84 81.3137 84.8954 84 86 84Z" fill="#263238"/>
<path d="M74 84C75.1046 84 76 81.3137 76 78C76 74.6863 75.1046 72 74 72C72.8954 72 72 74.6863 72 78C72 81.3137 72.8954 84 74 84Z" fill="#263238"/>
<path d="M80 92.2C81.3255 92.2 82.4 91.3941 82.4 90.4C82.4 89.4059 81.3255 88.6 80 88.6C78.6745 88.6 77.6 89.4059 77.6 90.4C77.6 91.3941 78.6745 92.2 80 92.2Z" fill="#607D8B"/>
</svg>
