<svg width="160" height="160" viewBox="0 0 160 160" fill="none" xmlns="http://www.w3.org/2000/svg">
<rect width="160" height="160" fill="#0A0C0E"/>
<path d="M45.37 141.77H43.69V146H41.275V135.5H43.69V139.745H45.43L48.19 135.5H50.755L47.32 140.57L50.86 146H48.1L45.37 141.77ZM55.4812 146.12C54.6312 146.12 53.8662 145.945 53.1862 145.595C52.5162 145.235 51.9912 144.74 51.6112 144.11C51.2312 143.48 51.0412 142.765 51.0412 141.965C51.0412 141.165 51.2312 140.45 51.6112 139.82C51.9912 139.19 52.5162 138.7 53.1862 138.35C53.8662 137.99 54.6312 137.81 55.4812 137.81C56.3312 137.81 57.0912 137.99 57.7612 138.35C58.4312 138.7 58.9562 139.19 59.3362 139.82C59.7162 140.45 59.9062 141.165 59.9062 141.965C59.9062 142.765 59.7162 143.48 59.3362 144.11C58.9562 144.74 58.4312 145.235 57.7612 145.595C57.0912 145.945 56.3312 146.12 55.4812 146.12ZM55.4812 144.2C56.0812 144.2 56.5712 144 56.9512 143.6C57.3412 143.19 57.5362 142.645 57.5362 141.965C57.5362 141.285 57.3412 140.745 56.9512 140.345C56.5712 139.935 56.0812 139.73 55.4812 139.73C54.8812 139.73 54.3862 139.935 53.9962 140.345C53.6062 140.745 53.4112 141.285 53.4112 141.965C53.4112 142.645 53.6062 143.19 53.9962 143.6C54.3862 144 54.8812 144.2 55.4812 144.2ZM69.3906 146V141.17L66.9756 145.22H65.9856L63.6306 141.155V146H61.5156V137.93H63.9606L66.5406 142.595L69.2856 137.93H71.4756L71.5056 146H69.3906ZM81.5921 141.995C81.5921 142.025 81.5771 142.235 81.5471 142.625H75.4421C75.5521 143.125 75.8121 143.52 76.2221 143.81C76.6321 144.1 77.1421 144.245 77.7521 144.245C78.1721 144.245 78.5421 144.185 78.8621 144.065C79.1921 143.935 79.4971 143.735 79.7771 143.465L81.0221 144.815C80.2621 145.685 79.1521 146.12 77.6921 146.12C76.7821 146.12 75.9771 145.945 75.2771 145.595C74.5771 145.235 74.0371 144.74 73.6571 144.11C73.2771 143.48 73.0871 142.765 73.0871 141.965C73.0871 141.175 73.2721 140.465 73.6421 139.835C74.0221 139.195 74.5371 138.7 75.1871 138.35C75.8471 137.99 76.5821 137.81 77.3921 137.81C78.1821 137.81 78.8971 137.98 79.5371 138.32C80.1771 138.66 80.6771 139.15 81.0371 139.79C81.4071 140.42 81.5921 141.155 81.5921 141.995ZM77.4071 139.58C76.8771 139.58 76.4321 139.73 76.0721 140.03C75.7121 140.33 75.4921 140.74 75.4121 141.26H79.3871C79.3071 140.75 79.0871 140.345 78.7271 140.045C78.3671 139.735 77.9271 139.58 77.4071 139.58ZM92.3575 144.08V147.74H90.1825V146H84.5125V147.74H82.3375V144.08H82.6675C83.1675 144.07 83.5125 143.775 83.7025 143.195C83.8925 142.615 84.0125 141.79 84.0625 140.72L84.1675 137.93H91.2025V144.08H92.3575ZM86.1775 140.885C86.1475 141.705 86.0825 142.375 85.9825 142.895C85.8925 143.415 85.7175 143.81 85.4575 144.08H88.8625V139.85H86.2225L86.1775 140.885ZM93.8301 137.93H96.1551V142.73L100.085 137.93H102.23V146H99.9051V141.2L95.9901 146H93.8301V137.93ZM104.479 137.93H106.804V142.73L110.734 137.93H112.879V146H110.554V141.2L106.639 146H104.479V137.93Z" fill="white"/>
<path d="M112 78C112 90 91.8 110 80 110V34C103.6 34 112 42 112 42V78Z" fill="#FFB300"/>
<path d="M48 78C48 90 68.2 110 80 110V34C56.4 34 48 42 48 42V78Z" fill="#FFC107"/>
<path d="M102 64C102 64 96.4 59.4 86 61.2C86 61.2 88.8 56 94 56C100 56 102 64 102 64Z" fill="#694A14"/>
<path d="M58 64C58 64 63.6 59.4 74 61.2C74 61.2 71.2 56 66 56C60 56 58 64 58 64Z" fill="#694A14"/>
<path d="M80 81.8C67.6 81.8 62 75.2 62 75.2C62 75.2 66.8 90 80 90C93.2 90 98 75.2 98 75.2C98 75.2 92.4 81.8 80 81.8Z" fill="#694A14"/>
<path d="M122 64C122 72.6 116 74 116 74V82C116 82 122 79.6 122 72C122 64.4 122 64 122 64Z" fill="#B71C1C"/>
<path d="M38 64C38 72.6 42 74 42 74V82C42 82 38 79.6 38 72C38 64.4 38 64 38 64Z" fill="#B71C1C"/>
<path d="M122 72C122 72 119.8 64 112 64V56C119.8 56 122 64 122 64V72Z" fill="#F44336"/>
<path d="M38 72C38 72 40.2 64 48 64V56C40.2 56 38 64 38 64V72Z" fill="#F44336"/>
</svg>
