<svg width="160" height="160" viewBox="0 0 160 160" fill="none" xmlns="http://www.w3.org/2000/svg">
<rect width="160" height="160" fill="#0A0C0E"/>
<path d="M68 71.7996C70.4 74.5996 74 75.9996 77.6 75.9996C79.4 75.9996 75.2 71.5996 74.4 65.1996L68 71.7996Z" fill="#455A64"/>
<path d="M118 50L116 48H112V50H118Z" fill="#455A64"/>
<path d="M60 50L58 48H54V50H60Z" fill="#455A64"/>
<path d="M78 50H66V56H78V50Z" fill="#455A64"/>
<path d="M118 66H58V56H120V64C120 65.2 119.2 66 118 66Z" fill="#455A64"/>
<path d="M122 52H118V64H122V52Z" fill="#455A64"/>
<path d="M88 62C86.8 62 86 62.8 86 64V72C86 75.4 83.4 78 80 78H70C68.8 78 68 78.8 68 80C68 81.2 68.8 82 70 82H80C85.6 82 90 77.6 90 72V64C90 62.8 89.2 62 88 62Z" fill="#455A64"/>
<path d="M59.0004 60L60.0004 58H114H118C119.2 58 120 57.2 120 56V50H78.0004V52C78.0004 54.2 76.2004 56 74.0004 56H70.0004C67.8004 56 66.0004 54.2 66.0004 52V50H53.0004C50.2004 50 48.0004 52.2 48.0004 55V56.8C48.0004 58.4 47.4004 59.8 46.2004 60.6C44.8004 61.6 43.2004 62 42.0004 62C42.0004 63.4 43.6004 66 46.0004 66C48.8004 66 50.8004 68.8 49.8004 71.4L42.2004 93.8C41.0004 97.2 43.2004 100.8 46.8004 101.4L59.0004 103.2C61.8004 103.6 64.6004 101.8 65.4004 99L69.0004 84.6C69.4004 83.2 70.6004 82 72.2004 82L74.2004 66H102.2L104.6 62.8C105.4 61.6 106.4 60.8 107.6 60H59.0004Z" fill="#90A4AE"/>
<path d="M63.3997 62C58.7997 62 55.5997 64 55.5997 64L44.7997 95.8C44.3997 97 45.1997 98.2 46.3997 98.4L59.3997 100.6C60.3997 100.8 61.3997 100.2 61.5997 99.2L70.3997 64C70.3997 64 67.9997 62 63.3997 62ZM53.7997 95.8C52.7997 95.8 51.7997 95 51.7997 93.8C51.7997 92.6 52.5997 91.8 53.7997 91.8C54.7997 91.8 55.7997 92.6 55.7997 93.8C55.7997 95 54.7997 95.8 53.7997 95.8ZM53.7997 94.6C53.3997 94.6 52.9997 94.2 52.9997 93.8C52.9997 93.4 53.3997 93 53.7997 93C54.1997 93 54.5997 93.4 54.5997 93.8C54.5997 94.2 54.1997 94.6 53.7997 94.6ZM62.5997 68.4C61.5997 68.4 60.5997 67.6 60.5997 66.4C60.5997 65.2 61.3997 64.4 62.5997 64.4C63.7997 64.4 64.5997 65.2 64.5997 66.4C64.5997 67.6 63.7997 68.4 62.5997 68.4ZM62.5997 67.2C62.1997 67.2 61.7997 66.8 61.7997 66.4C61.7997 66 62.1997 65.6 62.5997 65.6C62.9997 65.6 63.3997 66 63.3997 66.4C63.3997 66.8 62.9997 67.2 62.5997 67.2Z" fill="#455A64"/>
<path d="M24.37 141.77H22.69V146H20.275V135.5H22.69V139.745H24.43L27.19 135.5H29.755L26.32 140.57L29.86 146H27.1L24.37 141.77ZM35.7638 137.81C36.5138 137.81 37.1938 137.985 37.8038 138.335C38.4238 138.675 38.9088 139.16 39.2588 139.79C39.6088 140.41 39.7838 141.135 39.7838 141.965C39.7838 142.795 39.6088 143.525 39.2588 144.155C38.9088 144.775 38.4238 145.26 37.8038 145.61C37.1938 145.95 36.5138 146.12 35.7638 146.12C34.7338 146.12 33.9238 145.795 33.3338 145.145V148.91H30.9938V137.93H33.2288V138.86C33.8088 138.16 34.6538 137.81 35.7638 137.81ZM35.3588 144.2C35.9588 144.2 36.4488 144 36.8288 143.6C37.2188 143.19 37.4138 142.645 37.4138 141.965C37.4138 141.285 37.2188 140.745 36.8288 140.345C36.4488 139.935 35.9588 139.73 35.3588 139.73C34.7588 139.73 34.2638 139.935 33.8738 140.345C33.4938 140.745 33.3038 141.285 33.3038 141.965C33.3038 142.645 33.4938 143.19 33.8738 143.6C34.2638 144 34.7588 144.2 35.3588 144.2ZM41.4238 137.93H43.7488V142.73L47.6788 137.93H49.8238V146H47.4988V141.2L43.5838 146H41.4238V137.93ZM59.9482 146V141.17L57.5332 145.22H56.5432L54.1882 141.155V146H52.0732V137.93H54.5182L57.0982 142.595L59.8432 137.93H62.0332L62.0632 146H59.9482ZM64.3047 137.93H66.6297V142.73L70.5597 137.93H72.7047V146H70.3797V141.2L66.4647 146H64.3047V137.93ZM74.9541 137.93H77.2791V141.08H80.7891V137.93H83.1291V146H80.7891V142.985H77.2791V146H74.9541V137.93ZM88.5041 137.81C89.7541 137.81 90.7141 138.11 91.3841 138.71C92.0541 139.3 92.3891 140.195 92.3891 141.395V146H90.1991V144.995C89.7591 145.745 88.9391 146.12 87.7391 146.12C87.1191 146.12 86.5791 146.015 86.1191 145.805C85.6691 145.595 85.3241 145.305 85.0841 144.935C84.8441 144.565 84.7241 144.145 84.7241 143.675C84.7241 142.925 85.0041 142.335 85.5641 141.905C86.1341 141.475 87.0091 141.26 88.1891 141.26H90.0491C90.0491 140.75 89.8941 140.36 89.5841 140.09C89.2741 139.81 88.8091 139.67 88.1891 139.67C87.7591 139.67 87.3341 139.74 86.9141 139.88C86.5041 140.01 86.1541 140.19 85.8641 140.42L85.0241 138.785C85.4641 138.475 85.9891 138.235 86.5991 138.065C87.2191 137.895 87.8541 137.81 88.5041 137.81ZM88.3241 144.545C88.7241 144.545 89.0791 144.455 89.3891 144.275C89.6991 144.085 89.9191 143.81 90.0491 143.45V142.625H88.4441C87.4841 142.625 87.0041 142.94 87.0041 143.57C87.0041 143.87 87.1191 144.11 87.3491 144.29C87.5891 144.46 87.9141 144.545 88.3241 144.545ZM102.162 137.93V146H99.8219V139.85H97.2719L97.1969 141.275C97.1569 142.335 97.0569 143.215 96.8969 143.915C96.7369 144.615 96.4769 145.165 96.1169 145.565C95.7569 145.965 95.2569 146.165 94.6169 146.165C94.2769 146.165 93.8719 146.105 93.4019 145.985L93.5219 144.065C93.6819 144.085 93.7969 144.095 93.8669 144.095C94.2169 144.095 94.4769 143.97 94.6469 143.72C94.8269 143.46 94.9469 143.135 95.0069 142.745C95.0669 142.345 95.1119 141.82 95.1419 141.17L95.2619 137.93H102.162ZM108.777 140.51C109.827 140.52 110.632 140.76 111.192 141.23C111.752 141.69 112.032 142.345 112.032 143.195C112.032 144.085 111.717 144.78 111.087 145.28C110.467 145.77 109.592 146.015 108.462 146.015L104.412 146V137.93H106.737V140.51H108.777ZM108.252 144.35C108.702 144.36 109.047 144.265 109.287 144.065C109.527 143.865 109.647 143.565 109.647 143.165C109.647 142.775 109.527 142.49 109.287 142.31C109.057 142.13 108.712 142.035 108.252 142.025L106.737 142.01V144.35H108.252ZM113.494 137.93H115.819V141.08H119.329V137.93H121.669V146H119.329V142.985H115.819V146H113.494V137.93ZM128.154 140.51C129.204 140.52 129.999 140.755 130.539 141.215C131.079 141.675 131.349 142.335 131.349 143.195C131.349 144.095 131.044 144.79 130.434 145.28C129.824 145.77 128.959 146.015 127.839 146.015L123.909 146V137.93H126.234V140.51H128.154ZM132.219 137.93H134.544V146H132.219V137.93ZM127.629 144.35C128.079 144.36 128.424 144.265 128.664 144.065C128.904 143.865 129.024 143.565 129.024 143.165C129.024 142.775 128.904 142.49 128.664 142.31C128.434 142.13 128.089 142.035 127.629 142.025L126.234 142.01V144.35H127.629ZM144.645 141.995C144.645 142.025 144.63 142.235 144.6 142.625H138.495C138.605 143.125 138.865 143.52 139.275 143.81C139.685 144.1 140.195 144.245 140.805 144.245C141.225 144.245 141.595 144.185 141.915 144.065C142.245 143.935 142.55 143.735 142.83 143.465L144.075 144.815C143.315 145.685 142.205 146.12 140.745 146.12C139.835 146.12 139.03 145.945 138.33 145.595C137.63 145.235 137.09 144.74 136.71 144.11C136.33 143.48 136.14 142.765 136.14 141.965C136.14 141.175 136.325 140.465 136.695 139.835C137.075 139.195 137.59 138.7 138.24 138.35C138.9 137.99 139.635 137.81 140.445 137.81C141.235 137.81 141.95 137.98 142.59 138.32C143.23 138.66 143.73 139.15 144.09 139.79C144.46 140.42 144.645 141.155 144.645 141.995ZM140.46 139.58C139.93 139.58 139.485 139.73 139.125 140.03C138.765 140.33 138.545 140.74 138.465 141.26H142.44C142.36 140.75 142.14 140.345 141.78 140.045C141.42 139.735 140.98 139.58 140.46 139.58Z" fill="white"/>
</svg>
