<svg width="160" height="160" viewBox="0 0 160 160" fill="none" xmlns="http://www.w3.org/2000/svg">
<rect width="160" height="160" fill="#0A0C0E"/>
<path d="M96.0192 80.3232L90.3624 85.98L114.404 110.021L120.061 104.365L96.0192 80.3232Z" fill="#616161"/>
<path d="M72 94C89.6731 94 104 79.6731 104 62C104 44.3269 89.6731 30 72 30C54.3269 30 40 44.3269 40 62C40 79.6731 54.3269 94 72 94Z" fill="#616161"/>
<path d="M102.568 87.0232L96.9108 92.68L114.305 110.075L119.962 104.418L102.568 87.0232Z" fill="#37474F"/>
<path d="M72 88C86.3594 88 98 76.3594 98 62C98 47.6406 86.3594 36 72 36C57.6406 36 46 47.6406 46 62C46 76.3594 57.6406 88 72 88Z" fill="#FFB74D"/>
<path d="M47 62C47 62 56.2 53 72 53C87.8 53 97 62 97 62C97 62 85 75 72 75C59 75 47 62 47 62Z" fill="#FAFAFA"/>
<path d="M47 62C47 62 56.2 81 72 81C87.8 81 97 62 97 62C97 62 85 75 72 75C59 75 47 62 47 62Z" fill="#FFA726"/>
<path d="M47 62C47 62 56.2 53 72 53C87.8 53 97 62 97 62C97 62 89.4 45 72 45C54.6 45 47 62 47 62Z" fill="#FFA726"/>
<path d="M63 54C61.2 56.2 60 59 60 62C60 68.6 65.4 74 72 74C78.6 74 84 68.6 84 62C84 59 82.8 56.2 81 54C78.4 53.4 75.4 53 72 53C68.6 53 65.8 53.4 63 54Z" fill="#009688"/>
<path d="M72 67C74.7614 67 77 64.7614 77 62C77 59.2386 74.7614 57 72 57C69.2386 57 67 59.2386 67 62C67 64.7614 69.2386 67 72 67Z" fill="#263238"/>
<path d="M76 60C77.1046 60 78 59.1046 78 58C78 56.8954 77.1046 56 76 56C74.8954 56 74 56.8954 74 58C74 59.1046 74.8954 60 76 60Z" fill="white"/>
<path d="M50.384 144.02V148.175H48.134V146H40.724V148.175H38.474L38.489 144.02H38.909C39.539 144 39.984 143.54 40.244 142.64C40.504 141.74 40.664 140.455 40.724 138.785L40.844 135.5H48.914V144.02H50.384ZM42.869 139.01C42.819 140.26 42.714 141.31 42.554 142.16C42.394 143 42.149 143.62 41.819 144.02H46.514V137.48H42.914L42.869 139.01ZM59.5823 141.995C59.5823 142.025 59.5673 142.235 59.5373 142.625H53.4323C53.5423 143.125 53.8023 143.52 54.2123 143.81C54.6223 144.1 55.1323 144.245 55.7423 144.245C56.1623 144.245 56.5323 144.185 56.8523 144.065C57.1823 143.935 57.4873 143.735 57.7673 143.465L59.0123 144.815C58.2523 145.685 57.1423 146.12 55.6823 146.12C54.7723 146.12 53.9673 145.945 53.2673 145.595C52.5673 145.235 52.0273 144.74 51.6473 144.11C51.2673 143.48 51.0773 142.765 51.0773 141.965C51.0773 141.175 51.2623 140.465 51.6323 139.835C52.0123 139.195 52.5273 138.7 53.1773 138.35C53.8373 137.99 54.5723 137.81 55.3823 137.81C56.1723 137.81 56.8873 137.98 57.5273 138.32C58.1673 138.66 58.6673 139.15 59.0273 139.79C59.3973 140.42 59.5823 141.155 59.5823 141.995ZM55.3973 139.58C54.8673 139.58 54.4223 139.73 54.0623 140.03C53.7023 140.33 53.4823 140.74 53.4023 141.26H57.3773C57.2973 140.75 57.0773 140.345 56.7173 140.045C56.3573 139.735 55.9173 139.58 55.3973 139.58ZM67.8777 139.85H65.1477V146H62.8227V139.85H60.0927V137.93H67.8777V139.85ZM76.6331 141.995C76.6331 142.025 76.6181 142.235 76.5881 142.625H70.4831C70.5931 143.125 70.8531 143.52 71.2631 143.81C71.6731 144.1 72.1831 144.245 72.7931 144.245C73.2131 144.245 73.5831 144.185 73.9031 144.065C74.2331 143.935 74.5381 143.735 74.8181 143.465L76.0631 144.815C75.3031 145.685 74.1931 146.12 72.7331 146.12C71.8231 146.12 71.0181 145.945 70.3181 145.595C69.6181 145.235 69.0781 144.74 68.6981 144.11C68.3181 143.48 68.1281 142.765 68.1281 141.965C68.1281 141.175 68.3131 140.465 68.6831 139.835C69.0631 139.195 69.5781 138.7 70.2281 138.35C70.8881 137.99 71.6231 137.81 72.4331 137.81C73.2231 137.81 73.9381 137.98 74.5781 138.32C75.2181 138.66 75.7181 139.15 76.0781 139.79C76.4481 140.42 76.6331 141.155 76.6331 141.995ZM72.4481 139.58C71.9181 139.58 71.4731 139.73 71.1131 140.03C70.7531 140.33 70.5331 140.74 70.4531 141.26H74.4281C74.3481 140.75 74.1281 140.345 73.7681 140.045C73.4081 139.735 72.9681 139.58 72.4481 139.58ZM81.9818 142.94H80.7668V146H78.4268V137.93H80.7668V141.065H82.0268L84.2168 137.93H86.7068L83.8868 141.8L86.9018 146H84.1418L81.9818 142.94ZM94.7575 139.85H92.0275V146H89.7025V139.85H86.9725V137.93H94.7575V139.85ZM96.0049 137.93H98.3299V142.73L102.26 137.93H104.405V146H102.08V141.2L98.1649 146H96.0049V137.93ZM112.819 141.785C113.769 142.105 114.244 142.745 114.244 143.705C114.244 144.435 113.969 145 113.419 145.4C112.869 145.8 112.049 146 110.959 146H106.654V137.93H110.779C111.789 137.93 112.579 138.115 113.149 138.485C113.719 138.845 114.004 139.355 114.004 140.015C114.004 140.415 113.899 140.77 113.689 141.08C113.489 141.38 113.199 141.615 112.819 141.785ZM108.799 141.245H110.569C111.389 141.245 111.799 140.955 111.799 140.375C111.799 139.805 111.389 139.52 110.569 139.52H108.799V141.245ZM110.764 144.41C111.624 144.41 112.054 144.115 112.054 143.525C112.054 143.215 111.954 142.99 111.754 142.85C111.554 142.7 111.239 142.625 110.809 142.625H108.799V144.41H110.764ZM120.23 140.51C121.28 140.52 122.075 140.755 122.615 141.215C123.155 141.675 123.425 142.335 123.425 143.195C123.425 144.095 123.12 144.79 122.51 145.28C121.9 145.77 121.035 146.015 119.915 146.015L115.985 146V137.93H118.31V140.51H120.23ZM124.295 137.93H126.62V146H124.295V137.93ZM119.705 144.35C120.155 144.36 120.5 144.265 120.74 144.065C120.98 143.865 121.1 143.565 121.1 143.165C121.1 142.775 120.98 142.49 120.74 142.31C120.51 142.13 120.165 142.035 119.705 142.025L118.31 142.01V144.35H119.705Z" fill="white"/>
</svg>
