<svg width="160" height="160" viewBox="0 0 160 160" fill="none" xmlns="http://www.w3.org/2000/svg">
<rect width="160" height="160" fill="#0A0C0E"/>
<path d="M86 107H50C45.6 107 42 103.4 42 99V75C42 70.6 45.6 67 50 67H86C90.4 67 94 70.6 94 75V99C94 103.4 90.4 107 86 107Z" fill="#607D8B"/>
<path d="M100 95L110 105H116V69H110L100 79V95Z" fill="#607D8B"/>
<path d="M100 79H94V95H100V79Z" fill="#455A64"/>
<path d="M80 67C88.8366 67 96 59.8366 96 51C96 42.1634 88.8366 35 80 35C71.1634 35 64 42.1634 64 51C64 59.8366 71.1634 67 80 67Z" fill="#A1573A"/>
<path d="M52 67C58.6274 67 64 61.6274 64 55C64 48.3726 58.6274 43 52 43C45.3726 43 40 48.3726 40 55C40 61.6274 45.3726 67 52 67Z" fill="#A1573A"/>
<path d="M80 55C82.2091 55 84 53.2091 84 51C84 48.7909 82.2091 47 80 47C77.7909 47 76 48.7909 76 51C76 53.2091 77.7909 55 80 55Z" fill="#BCAAA4"/>
<path d="M52 59C54.2091 59 56 57.2091 56 55C56 52.7909 54.2091 51 52 51C49.7909 51 48 52.7909 48 55C48 57.2091 49.7909 59 52 59Z" fill="#BCAAA4"/>
<path d="M21.135 144.02V148.175H18.885V146H11.475V148.175H9.225L9.24 144.02H9.66C10.29 144 10.735 143.54 10.995 142.64C11.255 141.74 11.415 140.455 11.475 138.785L11.595 135.5H19.665V144.02H21.135ZM13.62 139.01C13.57 140.26 13.465 141.31 13.305 142.16C13.145 143 12.9 143.62 12.57 144.02H17.265V137.48H13.665L13.62 139.01ZM26.2683 146.12C25.4183 146.12 24.6533 145.945 23.9733 145.595C23.3033 145.235 22.7783 144.74 22.3983 144.11C22.0183 143.48 21.8283 142.765 21.8283 141.965C21.8283 141.165 22.0183 140.45 22.3983 139.82C22.7783 139.19 23.3033 138.7 23.9733 138.35C24.6533 137.99 25.4183 137.81 26.2683 137.81C27.1183 137.81 27.8783 137.99 28.5483 138.35C29.2183 138.7 29.7433 139.19 30.1233 139.82C30.5033 140.45 30.6933 141.165 30.6933 141.965C30.6933 142.765 30.5033 143.48 30.1233 144.11C29.7433 144.74 29.2183 145.235 28.5483 145.595C27.8783 145.945 27.1183 146.12 26.2683 146.12ZM26.2683 144.2C26.8683 144.2 27.3583 144 27.7383 143.6C28.1283 143.19 28.3233 142.645 28.3233 141.965C28.3233 141.285 28.1283 140.745 27.7383 140.345C27.3583 139.935 26.8683 139.73 26.2683 139.73C25.6683 139.73 25.1733 139.935 24.7833 140.345C24.3933 140.745 24.1983 141.285 24.1983 141.965C24.1983 142.645 24.3933 143.19 24.7833 143.6C25.1733 144 25.6683 144.2 26.2683 144.2ZM35.8577 142.94H34.6427V146H32.3027V137.93H34.6427V141.065H35.9027L38.0927 137.93H40.5827L37.7627 141.8L40.7777 146H38.0177L35.8577 142.94ZM49.5577 137.93L45.9127 146.495C45.5427 147.425 45.0827 148.08 44.5327 148.46C43.9927 148.84 43.3377 149.03 42.5677 149.03C42.1477 149.03 41.7327 148.965 41.3227 148.835C40.9127 148.705 40.5777 148.525 40.3177 148.295L41.1727 146.63C41.3527 146.79 41.5577 146.915 41.7877 147.005C42.0277 147.095 42.2627 147.14 42.4927 147.14C42.8127 147.14 43.0727 147.06 43.2727 146.9C43.4727 146.75 43.6527 146.495 43.8127 146.135L43.8427 146.06L40.3477 137.93H42.7627L45.0277 143.405L47.3077 137.93H49.5577ZM58.5615 146V141.17L56.1465 145.22H55.1565L52.8015 141.155V146H50.6865V137.93H53.1315L55.7115 142.595L58.4565 137.93H60.6465L60.6765 146H58.5615ZM70.763 141.995C70.763 142.025 70.748 142.235 70.718 142.625H64.613C64.723 143.125 64.983 143.52 65.393 143.81C65.803 144.1 66.313 144.245 66.923 144.245C67.343 144.245 67.713 144.185 68.033 144.065C68.363 143.935 68.668 143.735 68.948 143.465L70.193 144.815C69.433 145.685 68.323 146.12 66.863 146.12C65.953 146.12 65.148 145.945 64.448 145.595C63.748 145.235 63.208 144.74 62.828 144.11C62.448 143.48 62.258 142.765 62.258 141.965C62.258 141.175 62.443 140.465 62.813 139.835C63.193 139.195 63.708 138.7 64.358 138.35C65.018 137.99 65.753 137.81 66.563 137.81C67.353 137.81 68.068 137.98 68.708 138.32C69.348 138.66 69.848 139.15 70.208 139.79C70.578 140.42 70.763 141.155 70.763 141.995ZM66.578 139.58C66.048 139.58 65.603 139.73 65.243 140.03C64.883 140.33 64.663 140.74 64.583 141.26H68.558C68.478 140.75 68.258 140.345 67.898 140.045C67.538 139.735 67.098 139.58 66.578 139.58ZM72.5566 137.93H74.8816V141.08H78.3916V137.93H80.7316V146H78.3916V142.985H74.8816V146H72.5566V137.93ZM89.7517 139.85H87.0217V146H84.6967V139.85H81.9667V137.93H89.7517V139.85ZM94.134 137.81C95.384 137.81 96.344 138.11 97.014 138.71C97.684 139.3 98.019 140.195 98.019 141.395V146H95.829V144.995C95.389 145.745 94.569 146.12 93.369 146.12C92.749 146.12 92.209 146.015 91.749 145.805C91.299 145.595 90.954 145.305 90.714 144.935C90.474 144.565 90.354 144.145 90.354 143.675C90.354 142.925 90.634 142.335 91.194 141.905C91.764 141.475 92.639 141.26 93.819 141.26H95.679C95.679 140.75 95.524 140.36 95.214 140.09C94.904 139.81 94.439 139.67 93.819 139.67C93.389 139.67 92.964 139.74 92.544 139.88C92.134 140.01 91.784 140.19 91.494 140.42L90.654 138.785C91.094 138.475 91.619 138.235 92.229 138.065C92.849 137.895 93.484 137.81 94.134 137.81ZM93.954 144.545C94.354 144.545 94.709 144.455 95.019 144.275C95.329 144.085 95.549 143.81 95.679 143.45V142.625H94.074C93.114 142.625 92.634 142.94 92.634 143.57C92.634 143.87 92.749 144.11 92.979 144.29C93.219 144.46 93.544 144.545 93.954 144.545ZM107.792 137.93V146H105.452V139.85H102.902L102.827 141.275C102.787 142.335 102.687 143.215 102.527 143.915C102.367 144.615 102.107 145.165 101.747 145.565C101.387 145.965 100.887 146.165 100.247 146.165C99.9068 146.165 99.5018 146.105 99.0318 145.985L99.1518 144.065C99.3118 144.085 99.4268 144.095 99.4968 144.095C99.8468 144.095 100.107 143.97 100.277 143.72C100.457 143.46 100.577 143.135 100.637 142.745C100.697 142.345 100.742 141.82 100.772 141.17L100.892 137.93H107.792ZM114.407 140.51C115.457 140.52 116.262 140.76 116.822 141.23C117.382 141.69 117.662 142.345 117.662 143.195C117.662 144.085 117.347 144.78 116.717 145.28C116.097 145.77 115.222 146.015 114.092 146.015L110.042 146V137.93H112.367V140.51H114.407ZM113.882 144.35C114.332 144.36 114.677 144.265 114.917 144.065C115.157 143.865 115.277 143.565 115.277 143.165C115.277 142.775 115.157 142.49 114.917 142.31C114.687 142.13 114.342 142.035 113.882 142.025L112.367 142.01V144.35H113.882ZM119.124 137.93H121.449V141.08H124.959V137.93H127.299V146H124.959V142.985H121.449V146H119.124V137.93ZM133.784 140.51C134.834 140.52 135.629 140.755 136.169 141.215C136.709 141.675 136.979 142.335 136.979 143.195C136.979 144.095 136.674 144.79 136.064 145.28C135.454 145.77 134.589 146.015 133.469 146.015L129.539 146V137.93H131.864V140.51H133.784ZM137.849 137.93H140.174V146H137.849V137.93ZM133.259 144.35C133.709 144.36 134.054 144.265 134.294 144.065C134.534 143.865 134.654 143.565 134.654 143.165C134.654 142.775 134.534 142.49 134.294 142.31C134.064 142.13 133.719 142.035 133.259 142.025L131.864 142.01V144.35H133.259ZM150.275 141.995C150.275 142.025 150.26 142.235 150.23 142.625H144.125C144.235 143.125 144.495 143.52 144.905 143.81C145.315 144.1 145.825 144.245 146.435 144.245C146.855 144.245 147.225 144.185 147.545 144.065C147.875 143.935 148.18 143.735 148.46 143.465L149.705 144.815C148.945 145.685 147.835 146.12 146.375 146.12C145.465 146.12 144.66 145.945 143.96 145.595C143.26 145.235 142.72 144.74 142.34 144.11C141.96 143.48 141.77 142.765 141.77 141.965C141.77 141.175 141.955 140.465 142.325 139.835C142.705 139.195 143.22 138.7 143.87 138.35C144.53 137.99 145.265 137.81 146.075 137.81C146.865 137.81 147.58 137.98 148.22 138.32C148.86 138.66 149.36 139.15 149.72 139.79C150.09 140.42 150.275 141.155 150.275 141.995ZM146.09 139.58C145.56 139.58 145.115 139.73 144.755 140.03C144.395 140.33 144.175 140.74 144.095 141.26H148.07C147.99 140.75 147.77 140.345 147.41 140.045C147.05 139.735 146.61 139.58 146.09 139.58Z" fill="white"/>
</svg>
