<svg width="160" height="160" viewBox="0 0 160 160" fill="none" xmlns="http://www.w3.org/2000/svg">
<g clip-path="url(#clip0)">
<rect width="160" height="160" fill="#0A0C0E"/>
<path d="M112 78C112 90 91.8 110 80 110V34C103.6 34 112 42 112 42V78Z" fill="#FFB300"/>
<path d="M48 78C48 90 68.2 110 80 110V34C56.4 34 48 42 48 42V78Z" fill="#FFC107"/>
<path d="M100 68.0002C100 68.0002 95.4 61.0002 86 60.0002C86 60.0002 89.2 54.4002 94 56.0002C100.8 58.2002 100 68.0002 100 68.0002Z" fill="#694A14"/>
<path d="M80 83.2C91 83.2 96 89 96 89C96 89 91.8 76 80 76C68.2 76 64 89 64 89C64 89 69 83.2 80 83.2Z" fill="#694A14"/>
<path d="M60.0008 68.0002C60.0008 68.0002 64.6008 61.0002 74.0008 60.0002C74.0008 60.0002 70.8008 54.4002 66.0008 56.0002C59.2008 58.2002 60.0008 68.0002 60.0008 68.0002Z" fill="#694A14"/>
<path d="M122 64C122 72.6 116 74 116 74V82C116 82 122 79.6 122 72C122 64.4 122 64 122 64Z" fill="#7B1FA2"/>
<path d="M38 64C38 72.6 42 74 42 74V82C42 82 38 79.6 38 72C38 64.4 38 64 38 64Z" fill="#7B1FA2"/>
<path d="M122 72C122 72 119.8 64 112 64V56C119.8 56 122 64 122 64V72Z" fill="#BA68C8"/>
<path d="M38 72C38 72 40.2 64 48 64V56C40.2 56 38 64 38 64V72Z" fill="#BA68C8"/>
<path d="M64.135 144.02V148.175H61.885V146H54.475V148.175H52.225L52.24 144.02H52.66C53.29 144 53.735 143.54 53.995 142.64C54.255 141.74 54.415 140.455 54.475 138.785L54.595 135.5H62.665V144.02H64.135ZM56.62 139.01C56.57 140.26 56.465 141.31 56.305 142.16C56.145 143 55.9 143.62 55.57 144.02H60.265V137.48H56.665L56.62 139.01ZM70.3458 137.81C71.0958 137.81 71.7758 137.985 72.3858 138.335C73.0058 138.675 73.4908 139.16 73.8408 139.79C74.1908 140.41 74.3658 141.135 74.3658 141.965C74.3658 142.795 74.1908 143.525 73.8408 144.155C73.4908 144.775 73.0058 145.26 72.3858 145.61C71.7758 145.95 71.0958 146.12 70.3458 146.12C69.3158 146.12 68.5058 145.795 67.9158 145.145V148.91H65.5758V137.93H67.8108V138.86C68.3908 138.16 69.2358 137.81 70.3458 137.81ZM69.9408 144.2C70.5408 144.2 71.0308 144 71.4108 143.6C71.8008 143.19 71.9958 142.645 71.9958 141.965C71.9958 141.285 71.8008 140.745 71.4108 140.345C71.0308 139.935 70.5408 139.73 69.9408 139.73C69.3408 139.73 68.8458 139.935 68.4558 140.345C68.0758 140.745 67.8858 141.285 67.8858 141.965C67.8858 142.645 68.0758 143.19 68.4558 143.6C68.8458 144 69.3408 144.2 69.9408 144.2ZM79.009 137.81C80.259 137.81 81.219 138.11 81.889 138.71C82.559 139.3 82.894 140.195 82.894 141.395V146H80.704V144.995C80.264 145.745 79.444 146.12 78.244 146.12C77.624 146.12 77.084 146.015 76.624 145.805C76.174 145.595 75.829 145.305 75.589 144.935C75.349 144.565 75.229 144.145 75.229 143.675C75.229 142.925 75.509 142.335 76.069 141.905C76.639 141.475 77.514 141.26 78.694 141.26H80.554C80.554 140.75 80.399 140.36 80.089 140.09C79.779 139.81 79.314 139.67 78.694 139.67C78.264 139.67 77.839 139.74 77.419 139.88C77.009 140.01 76.659 140.19 76.369 140.42L75.529 138.785C75.969 138.475 76.494 138.235 77.104 138.065C77.724 137.895 78.359 137.81 79.009 137.81ZM78.829 144.545C79.229 144.545 79.584 144.455 79.894 144.275C80.204 144.085 80.424 143.81 80.554 143.45V142.625H78.949C77.989 142.625 77.509 142.94 77.509 143.57C77.509 143.87 77.624 144.11 77.854 144.29C78.094 144.46 78.419 144.545 78.829 144.545ZM92.8018 146V141.17L90.3868 145.22H89.3968L87.0418 141.155V146H84.9268V137.93H87.3718L89.9518 142.595L92.6968 137.93H94.8868L94.9168 146H92.8018ZM101.403 140.51C102.453 140.52 103.248 140.755 103.788 141.215C104.328 141.675 104.598 142.335 104.598 143.195C104.598 144.095 104.293 144.79 103.683 145.28C103.073 145.77 102.208 146.015 101.088 146.015L97.1582 146V137.93H99.4832V140.51H101.403ZM105.468 137.93H107.793V146H105.468V137.93ZM100.878 144.35C101.328 144.36 101.673 144.265 101.913 144.065C102.153 143.865 102.273 143.565 102.273 143.165C102.273 142.775 102.153 142.49 101.913 142.31C101.683 142.13 101.338 142.035 100.878 142.025L99.4832 142.01V144.35H100.878Z" fill="white"/>
</g>
<defs>
<clipPath id="clip0">
<rect width="160" height="160" fill="white"/>
</clipPath>
</defs>
</svg>
