<svg width="160" height="160" viewBox="0 0 160 160" fill="none" xmlns="http://www.w3.org/2000/svg">
<rect width="160" height="160" fill="#0A0C0E"/>
<path d="M42.27 146.18C41.2 146.18 40.23 145.95 39.36 145.49C38.5 145.02 37.82 144.375 37.32 143.555C36.83 142.725 36.585 141.79 36.585 140.75C36.585 139.71 36.83 138.78 37.32 137.96C37.82 137.13 38.5 136.485 39.36 136.025C40.23 135.555 41.205 135.32 42.285 135.32C43.195 135.32 44.015 135.48 44.745 135.8C45.485 136.12 46.105 136.58 46.605 137.18L45.045 138.62C44.335 137.8 43.455 137.39 42.405 137.39C41.755 137.39 41.175 137.535 40.665 137.825C40.155 138.105 39.755 138.5 39.465 139.01C39.185 139.52 39.045 140.1 39.045 140.75C39.045 141.4 39.185 141.98 39.465 142.49C39.755 143 40.155 143.4 40.665 143.69C41.175 143.97 41.755 144.11 42.405 144.11C43.455 144.11 44.335 143.695 45.045 142.865L46.605 144.305C46.105 144.915 45.485 145.38 44.745 145.7C44.005 146.02 43.18 146.18 42.27 146.18ZM55.5755 141.995C55.5755 142.025 55.5605 142.235 55.5305 142.625H49.4255C49.5355 143.125 49.7955 143.52 50.2055 143.81C50.6155 144.1 51.1255 144.245 51.7355 144.245C52.1555 144.245 52.5255 144.185 52.8455 144.065C53.1755 143.935 53.4805 143.735 53.7605 143.465L55.0055 144.815C54.2455 145.685 53.1355 146.12 51.6755 146.12C50.7655 146.12 49.9605 145.945 49.2605 145.595C48.5605 145.235 48.0205 144.74 47.6405 144.11C47.2605 143.48 47.0705 142.765 47.0705 141.965C47.0705 141.175 47.2555 140.465 47.6255 139.835C48.0055 139.195 48.5205 138.7 49.1705 138.35C49.8305 137.99 50.5655 137.81 51.3755 137.81C52.1655 137.81 52.8805 137.98 53.5205 138.32C54.1605 138.66 54.6605 139.15 55.0205 139.79C55.3905 140.42 55.5755 141.155 55.5755 141.995ZM51.3905 139.58C50.8605 139.58 50.4155 139.73 50.0555 140.03C49.6955 140.33 49.4755 140.74 49.3955 141.26H53.3705C53.2905 140.75 53.0705 140.345 52.7105 140.045C52.3505 139.735 51.9105 139.58 51.3905 139.58ZM65.2441 146V141.17L62.8291 145.22H61.8391L59.4841 141.155V146H57.3691V137.93H59.8141L62.3941 142.595L65.1391 137.93H67.3291L67.3591 146H65.2441ZM77.4456 141.995C77.4456 142.025 77.4306 142.235 77.4006 142.625H71.2956C71.4056 143.125 71.6656 143.52 72.0756 143.81C72.4856 144.1 72.9956 144.245 73.6056 144.245C74.0256 144.245 74.3956 144.185 74.7156 144.065C75.0456 143.935 75.3506 143.735 75.6306 143.465L76.8756 144.815C76.1156 145.685 75.0056 146.12 73.5456 146.12C72.6356 146.12 71.8306 145.945 71.1306 145.595C70.4306 145.235 69.8906 144.74 69.5106 144.11C69.1306 143.48 68.9406 142.765 68.9406 141.965C68.9406 141.175 69.1256 140.465 69.4956 139.835C69.8756 139.195 70.3906 138.7 71.0406 138.35C71.7006 137.99 72.4356 137.81 73.2456 137.81C74.0356 137.81 74.7506 137.98 75.3906 138.32C76.0306 138.66 76.5306 139.15 76.8906 139.79C77.2606 140.42 77.4456 141.155 77.4456 141.995ZM73.2606 139.58C72.7306 139.58 72.2856 139.73 71.9256 140.03C71.5656 140.33 71.3456 140.74 71.2656 141.26H75.2406C75.1606 140.75 74.9406 140.345 74.5806 140.045C74.2206 139.735 73.7806 139.58 73.2606 139.58ZM79.2393 137.93H81.5643V142.73L85.4943 137.93H87.6393V146H85.3143V141.2L81.3993 146H79.2393V137.93ZM83.2893 137.06C81.5293 137.06 80.6443 136.285 80.6343 134.735H82.1643C82.1743 135.085 82.2693 135.36 82.4493 135.56C82.6393 135.75 82.9143 135.845 83.2743 135.845C83.6343 135.845 83.9093 135.75 84.0993 135.56C84.2993 135.36 84.3993 135.085 84.3993 134.735H85.9593C85.9493 136.285 85.0593 137.06 83.2893 137.06ZM89.8887 137.93H92.2137V141.08H95.7237V137.93H98.0637V146H95.7237V142.985H92.2137V146H89.8887V137.93ZM104.549 140.51C105.599 140.52 106.394 140.755 106.934 141.215C107.474 141.675 107.744 142.335 107.744 143.195C107.744 144.095 107.439 144.79 106.829 145.28C106.219 145.77 105.354 146.015 104.234 146.015L100.304 146V137.93H102.629V140.51H104.549ZM108.614 137.93H110.939V146H108.614V137.93ZM104.024 144.35C104.474 144.36 104.819 144.265 105.059 144.065C105.299 143.865 105.419 143.565 105.419 143.165C105.419 142.775 105.299 142.49 105.059 142.31C104.829 142.13 104.484 142.035 104.024 142.025L102.629 142.01V144.35H104.024ZM121.039 141.995C121.039 142.025 121.024 142.235 120.994 142.625H114.889C114.999 143.125 115.259 143.52 115.669 143.81C116.079 144.1 116.589 144.245 117.199 144.245C117.619 144.245 117.989 144.185 118.309 144.065C118.639 143.935 118.944 143.735 119.224 143.465L120.469 144.815C119.709 145.685 118.599 146.12 117.139 146.12C116.229 146.12 115.424 145.945 114.724 145.595C114.024 145.235 113.484 144.74 113.104 144.11C112.724 143.48 112.534 142.765 112.534 141.965C112.534 141.175 112.719 140.465 113.089 139.835C113.469 139.195 113.984 138.7 114.634 138.35C115.294 137.99 116.029 137.81 116.839 137.81C117.629 137.81 118.344 137.98 118.984 138.32C119.624 138.66 120.124 139.15 120.484 139.79C120.854 140.42 121.039 141.155 121.039 141.995ZM116.854 139.58C116.324 139.58 115.879 139.73 115.519 140.03C115.159 140.33 114.939 140.74 114.859 141.26H118.834C118.754 140.75 118.534 140.345 118.174 140.045C117.814 139.735 117.374 139.58 116.854 139.58Z" fill="white"/>
<path d="M110 47.8H90V70.2H110V47.8Z" fill="#BF360C"/>
<path d="M120 84V108H80V84C80 70.2 93.8 67.8 93.8 67.8H106.4C106.2 67.8 120 70.2 120 84Z" fill="#3F51B5"/>
<path d="M100 74.6C95.2 74.6 94 68 94 68V60.2H106V68C106 68 104.8 74.6 100 74.6Z" fill="#FF9800"/>
<path d="M112 44.6C112 34.4 88 38 88 44.6C88 46 88 52.6 88 54C88 60.6 93.4 66 100 66C106.6 66 112 60.6 112 54C112 52.6 112 46 112 44.6Z" fill="#FFB74D"/>
<path d="M100 32C92.4 32 82 37.4 82 66L90 69V52L104 44L110 50V69L118 64C118 53.4 117.6 34 104.8 34L103.6 32H100Z" fill="#FF5722"/>
<path d="M100 76C94.6 76 94 68 94 68C94 68 95.8 74 100 74C104.2 74 106 68 106 68C106 68 105.4 76 100 76Z" fill="#FFB74D"/>
<path d="M105 56.4C105.663 56.4 106.2 55.8627 106.2 55.2C106.2 54.5373 105.663 54 105 54C104.337 54 103.8 54.5373 103.8 55.2C103.8 55.8627 104.337 56.4 105 56.4Z" fill="#784719"/>
<path d="M95 56.2C95.6628 56.2 96.2 55.6627 96.2 55C96.2 54.3372 95.6628 53.8 95 53.8C94.3373 53.8 93.8 54.3372 93.8 55C93.8 55.6627 94.3373 56.2 95 56.2Z" fill="#784719"/>
<path d="M60.0001 75.2C53.6001 75.2 54.0001 68 54.0001 68V60.8H66.0001V68C66.0001 68 66.4001 75.2 60.0001 75.2Z" fill="#FF9800"/>
<path d="M71 56C72.6569 56 74 54.6569 74 53C74 51.3431 72.6569 50 71 50C69.3431 50 68 51.3431 68 53C68 54.6569 69.3431 56 71 56Z" fill="#FFA726"/>
<path d="M49 56C50.6569 56 52 54.6569 52 53C52 51.3431 50.6569 50 49 50C47.3431 50 46 51.3431 46 53C46 54.6569 47.3431 56 49 56Z" fill="#FFA726"/>
<path d="M72 44.6C72 34.4 48 38 48 44.6C48 46 48 52.6 48 54C48 60.6 53.4 66 60 66C66.6 66 72 60.6 72 54C72 52.6 72 46 72 44.6Z" fill="#FFB74D"/>
<path d="M60 32C51.4 32 46 38.8 46 47.4C46 48.6 46 52 46 52L48.8 53V46L65.6 40.4L71.2 46V53L74 52C74 52 74 48.6 74 47.4C74 41.8 72.6 36.2 65.6 34.8L64.2 32H60Z" fill="#424242"/>
<path d="M65.0001 54.2C65.6628 54.2 66.2001 53.6627 66.2001 53C66.2001 52.3372 65.6628 51.8 65.0001 51.8C64.3373 51.8 63.8 52.3372 63.8 53C63.8 53.6627 64.3373 54.2 65.0001 54.2Z" fill="#784719"/>
<path d="M55 54.2C55.6628 54.2 56.2001 53.6627 56.2001 53C56.2001 52.3372 55.6628 51.8 55 51.8C54.3373 51.8 53.8 52.3372 53.8 53C53.8 53.6627 54.3373 54.2 55 54.2Z" fill="#784719"/>
<path d="M66 67.8C66 67.8 65.2 72 60 72C54.8 72 54 67.8 54 67.8C54 67.8 40 70.2 40 84V108H80V84C80 70.2 66 67.8 66 67.8Z" fill="#009688"/>
<path d="M79.9999 102C75.5999 102 75.9999 98 75.9999 98V92.4H83.9999V98C83.9999 98 84.3999 102 79.9999 102Z" fill="#FF9800"/>
<path d="M88 88.2C89.1046 88.2 90 87.3046 90 86.2C90 85.0954 89.1046 84.2 88 84.2C86.8954 84.2 86 85.0954 86 86.2C86 87.3046 86.8954 88.2 88 88.2Z" fill="#FFA726"/>
<path d="M72 88.2C73.1046 88.2 74 87.3046 74 86.2C74 85.0954 73.1046 84.2 72 84.2C70.8954 84.2 70 85.0954 70 86.2C70 87.3046 70.8954 88.2 72 88.2Z" fill="#FFA726"/>
<path d="M88 82C88 75.2 72 77.6 72 82C72 83 72 87.2 72 88.2C72 92.6 75.6 96.2 80 96.2C84.4 96.2 88 92.6 88 88.2C88 87.2 88 82.8 88 82Z" fill="#FFB74D"/>
<path d="M80 72.2C74 72.2 70 77.2 70 83.2C70 84 70 86.4 70 86.4L72 87.2V82.2L84 78.2L88 82.2V87.2L90 86.4C90 86.4 90 84 90 83.2C90 79.2 89 75.2 84 74.2L83 72.2H80Z" fill="#FF5722"/>
<path d="M83 88C83.5523 88 84 87.5523 84 87C84 86.4477 83.5523 86 83 86C82.4477 86 82 86.4477 82 87C82 87.5523 82.4477 88 83 88Z" fill="#784719"/>
<path d="M77 88C77.5523 88 78 87.5523 78 87C78 86.4477 77.5523 86 77 86C76.4477 86 76 86.4477 76 87C76 87.5523 76.4477 88 77 88Z" fill="#784719"/>
<path d="M84 96.6C84 96.6 83.4 100 80 100C76.6 100 76 96.6 76 96.6C76 96.6 66 98.4 66 108H94C94 98.4 84 96.6 84 96.6Z" fill="#00BCD4"/>
</svg>
