<svg width="160" height="160" viewBox="0 0 160 160" fill="none" xmlns="http://www.w3.org/2000/svg">
<rect width="160" height="160" fill="#0A0C0E"/>
<path d="M58.9426 140.72C58.9426 142.11 58.4676 143.205 57.5176 144.005C56.5776 144.795 55.2226 145.235 53.4526 145.325V146.465H51.2176V145.31C49.4376 145.21 48.0726 144.765 47.1226 143.975C46.1826 143.175 45.7126 142.09 45.7126 140.72C45.7126 139.34 46.1826 138.26 47.1226 137.48C48.0726 136.69 49.4376 136.24 51.2176 136.13V135.05H53.4526V136.115C55.2226 136.215 56.5776 136.665 57.5176 137.465C58.4676 138.265 58.9426 139.35 58.9426 140.72ZM53.4526 143.42C54.5126 143.32 55.3026 143.05 55.8226 142.61C56.3426 142.16 56.6026 141.525 56.6026 140.705C56.6026 139.105 55.5526 138.215 53.4526 138.035V143.42ZM48.0676 140.72C48.0676 142.3 49.1176 143.2 51.2176 143.42V138.035C50.1476 138.135 49.3526 138.405 48.8326 138.845C48.3226 139.275 48.0676 139.9 48.0676 140.72ZM63.0615 137.78C63.9315 137.78 64.7065 137.96 65.3865 138.32C66.0765 138.67 66.6165 139.165 67.0065 139.805C67.3965 140.445 67.5915 141.165 67.5915 141.965C67.5915 142.765 67.3965 143.485 67.0065 144.125C66.6165 144.765 66.0765 145.265 65.3865 145.625C64.7065 145.975 63.9315 146.15 63.0615 146.15C62.2915 146.15 61.5915 146.025 60.9615 145.775C60.3415 145.515 59.8265 145.145 59.4165 144.665L60.7515 143.405C61.3615 144.035 62.1015 144.35 62.9715 144.35C63.5515 144.35 64.0515 144.205 64.4715 143.915C64.8915 143.625 65.1765 143.23 65.3265 142.73H61.9365V141.125H65.2965C65.1365 140.645 64.8515 140.265 64.4415 139.985C64.0315 139.705 63.5415 139.565 62.9715 139.565C62.1115 139.565 61.3715 139.885 60.7515 140.525L59.4165 139.28C59.8265 138.79 60.3415 138.42 60.9615 138.17C61.5915 137.91 62.2915 137.78 63.0615 137.78ZM69.1792 137.93H71.5042V141.08H75.0142V137.93H77.3542V146H75.0142V142.985H71.5042V146H69.1792V137.93ZM86.3742 139.85H83.6442V146H81.3192V139.85H78.5892V137.93H86.3742V139.85ZM95.1297 141.995C95.1297 142.025 95.1147 142.235 95.0847 142.625H88.9797C89.0897 143.125 89.3497 143.52 89.7597 143.81C90.1697 144.1 90.6797 144.245 91.2897 144.245C91.7097 144.245 92.0797 144.185 92.3997 144.065C92.7297 143.935 93.0347 143.735 93.3147 143.465L94.5597 144.815C93.7997 145.685 92.6897 146.12 91.2297 146.12C90.3197 146.12 89.5147 145.945 88.8147 145.595C88.1147 145.235 87.5747 144.74 87.1947 144.11C86.8147 143.48 86.6247 142.765 86.6247 141.965C86.6247 141.175 86.8097 140.465 87.1797 139.835C87.5597 139.195 88.0747 138.7 88.7247 138.35C89.3847 137.99 90.1197 137.81 90.9297 137.81C91.7197 137.81 92.4347 137.98 93.0747 138.32C93.7147 138.66 94.2147 139.15 94.5747 139.79C94.9447 140.42 95.1297 141.155 95.1297 141.995ZM90.9447 139.58C90.4147 139.58 89.9697 139.73 89.6097 140.03C89.2497 140.33 89.0297 140.74 88.9497 141.26H92.9247C92.8447 140.75 92.6247 140.345 92.2647 140.045C91.9047 139.735 91.4647 139.58 90.9447 139.58ZM102.056 141.8C102.536 141.95 102.906 142.18 103.166 142.49C103.436 142.8 103.571 143.17 103.571 143.6C103.571 144.11 103.396 144.56 103.046 144.95C102.696 145.33 102.216 145.625 101.606 145.835C100.996 146.045 100.306 146.15 99.5358 146.15C98.9058 146.15 98.2858 146.085 97.6758 145.955C97.0658 145.825 96.5008 145.63 95.9808 145.37L96.6108 143.735C97.4608 144.145 98.4008 144.35 99.4308 144.35C99.9808 144.35 100.411 144.27 100.721 144.11C101.041 143.94 101.201 143.705 101.201 143.405C101.201 143.145 101.091 142.95 100.871 142.82C100.651 142.68 100.331 142.61 99.9108 142.61H98.2608V141.155H99.7008C100.111 141.155 100.426 141.09 100.646 140.96C100.866 140.83 100.976 140.64 100.976 140.39C100.976 140.13 100.836 139.93 100.556 139.79C100.286 139.65 99.8958 139.58 99.3858 139.58C98.6058 139.58 97.7558 139.765 96.8358 140.135L96.2658 138.515C97.3858 138.025 98.4758 137.78 99.5358 137.78C100.266 137.78 100.916 137.87 101.486 138.05C102.066 138.23 102.521 138.495 102.851 138.845C103.181 139.185 103.346 139.585 103.346 140.045C103.346 140.425 103.231 140.77 103.001 141.08C102.771 141.38 102.456 141.62 102.056 141.8ZM105.273 137.93H107.598V142.73L111.528 137.93H113.673V146H111.348V141.2L107.433 146H105.273V137.93Z" fill="white"/>
<g clip-path="url(#clip0)">
<path d="M113.614 116.329C114.561 113.073 114.164 109.574 112.512 106.612C111.231 104.583 109.395 102.964 107.222 101.946C99.839 98.2549 92.4724 97.4078 88.7329 92.1184L71.1378 83.1692C70.8344 83.904 70.499 84.6232 70.1472 85.3424C67.4742 90.8935 62.1901 94.7304 56.0841 95.5537C35.3096 98.7502 36.9078 116.329 36.9078 116.329C34.844 113.158 33.8987 109.39 34.223 105.622C34.8143 97.7113 40.503 89.7207 51.29 87.5639C57.3469 86.3494 60.6386 81.0273 62.3968 74.8588V74.8432C63.2402 71.8073 63.7913 68.6985 64.0427 65.5585C64.39 61.4814 64.4272 57.3842 64.1542 53.3011V53.2855C63.3153 51.1838 62.788 48.9712 62.5887 46.7169V46.7013C62.5106 45.942 62.4734 45.1789 62.4764 44.4159C62.4719 41.7526 62.9092 39.1064 63.7712 36.5852C66.0559 29.9214 71.2018 24.9838 77.4186 23.8652C78.2895 23.718 79.1716 23.6428 80.0551 23.6414C89.7711 23.6414 97.6338 32.9417 97.6338 44.4159C97.6554 48.1575 96.7845 51.8494 95.0932 55.1872V55.2029C93.9583 64.3916 93.2391 81.3634 102.428 85.9656C115.213 92.3579 123.203 103.544 113.614 116.329V116.329Z" fill="#558B30"/>
<path d="M112.512 106.612C111.231 104.583 109.395 102.964 107.222 101.946C99.839 98.2549 92.4724 97.4078 88.7329 92.1184L71.1378 83.1691C70.8344 83.9039 70.499 84.6231 70.1472 85.3423L65.6729 90.7596C63.2759 96.6402 59.0248 94.2916 50.8267 95.5537C41.5264 96.9764 37.7869 108.802 35.3096 113.132C33.7849 107.608 34.6454 101.698 37.6836 96.8373C40.7209 91.9778 45.6563 88.614 51.29 87.5638C57.3469 86.3493 60.6387 81.0272 62.3968 74.8587V74.8431C63.2402 71.8072 63.7913 68.6985 64.0427 65.5584C64.39 61.4813 64.4272 57.3842 64.1542 53.3011V53.2855C63.3153 51.1837 62.788 48.9711 62.5887 46.7169V46.7013C62.5106 45.9419 62.4734 45.1789 62.4764 44.4158C62.4719 41.7525 62.9093 39.1063 63.7712 36.5851C66.056 29.9213 71.2018 24.9837 77.4186 23.8652C85.8882 25.3668 92.3764 33.997 92.3764 44.4158C92.3972 48.1575 91.5263 51.8493 89.8351 55.1872V55.2028C88.7009 64.3915 87.9817 81.3634 97.1705 85.9655C106.583 90.68 113.407 97.9827 112.512 106.612V106.612Z" fill="#8BC34A"/>
<path d="M64.8414 65.5585C62.1254 69.0265 56.3079 69.5538 50.4913 68.3869C42.5007 66.7886 40.9031 74.7792 40.9031 74.7792C43.8342 72.9392 47.5595 72.9392 50.4913 74.7792C55.2533 77.9594 58.4491 79.5576 63.1956 74.8588V74.8432C63.2261 74.8268 63.2528 74.8052 63.2759 74.7792L64.8414 65.5585Z" fill="#558B30"/>
<path d="M93.6385 60.3963C93.6385 73.181 104.825 69.9852 109.62 71.5827C112.398 72.4997 114.311 75.0507 114.414 77.975C114.414 77.975 109.62 74.7792 104.825 76.3775C100.031 77.975 96.8351 77.975 95.2368 76.3775L93.6385 60.3963Z" fill="#558B30"/>
<path d="M54.4866 45.2153C48.3017 43.6647 47.2791 54.0843 47.2628 54.7871C46.2944 50.8245 43.3894 45.2979 43.5984 39.6218C43.7792 34.9988 46.6559 30.2538 49.0849 26.3582C49.4233 29.4989 51.116 32.3347 53.719 34.1241C53.2178 37.9164 54.3423 42.3386 54.4866 45.2153Z" fill="#6A1B9A"/>
<path d="M63.2759 44.4158C63.273 45.1789 63.3101 45.9419 63.3875 46.7013C61.3898 41.4119 55.0853 43.6423 54.4866 45.2153C53.3107 41.6395 53.0475 37.8272 53.719 34.1241C56.9892 36.0608 60.7845 36.922 64.57 36.5851C63.7088 39.1064 63.2715 41.7525 63.2759 44.4158Z" fill="#9D27B0"/>
<path d="M105.61 45.2391C111.794 43.6892 112.817 54.1081 112.833 54.8116C113.77 50.9762 117.202 46.0728 117.078 40.5968C116.965 35.7879 113.544 30.439 111.005 26.382C110.666 29.5227 108.973 32.3593 106.37 34.1487C106.878 37.9409 105.755 42.3579 105.61 45.2391V45.2391Z" fill="#6A1B9A"/>
<path d="M96.8202 44.4396C96.8232 45.2034 96.786 45.9657 96.7086 46.7251C98.7063 41.4357 105.018 43.6661 105.61 45.2391C106.785 41.664 107.049 37.8517 106.377 34.1487C103.107 36.0853 99.3117 36.9458 95.5261 36.6097C96.3873 39.1302 96.8246 41.7763 96.8202 44.4396Z" fill="#9D27B0"/>
<path d="M70.467 42.8176L76.8593 47.6124C76.8593 47.6124 73.6628 50.8082 70.467 49.2099C67.2705 47.6124 70.467 42.8176 70.467 42.8176Z" fill="#C52828"/>
<path d="M89.644 42.8176L83.2516 47.6124C83.2516 47.6124 86.4474 50.8082 89.644 49.2099C92.8398 47.6124 89.644 42.8176 89.644 42.8176V42.8176Z" fill="#C52828"/>
<path d="M76.8593 61.3951C75.2752 79.0935 88.3841 108.568 78.4568 116.329C78.4568 116.329 89.6439 114.731 89.6439 101.946C89.6439 91.4453 85.8688 76.0911 85.4069 66.5142C85.3273 64.7664 84.5308 63.128 83.2055 61.9864C81.8794 60.8447 80.1414 60.3003 78.401 60.4811C77.519 60.5896 76.9069 60.8618 76.8593 61.3951V61.3951Z" fill="#558B30"/>
<path d="M80.0551 60.5056C79.4616 62.0013 78.9864 63.5408 78.6331 65.1108C78.0612 67.5874 77.8834 70.1384 78.1058 72.67C78.5052 76.6966 80.7423 80.2129 81.2376 84.2394C81.515 87.0061 81.4072 89.7973 80.9178 92.5335C80.1496 97.4309 78.1534 102.055 75.1175 105.973C73.2151 108.419 70.6284 110.244 67.6862 111.215C63.8188 112.213 59.7187 111.741 56.18 109.888C62.6847 109.905 68.1495 105.094 70.8508 99.4531C72.8172 95.2138 73.1362 90.3952 71.7455 85.9336C71.5216 85.0226 71.3141 84.0959 71.1378 83.1692C70.7868 81.475 70.531 79.7488 70.3391 78.039C69.9955 74.7807 69.8631 71.5031 69.9427 68.227C70.0297 63.8769 73.5817 60.3956 77.9333 60.3963C78.642 60.3509 79.3545 60.3874 80.0551 60.5056V60.5056Z" fill="#8BC34A"/>
<path d="M47.2628 54.7871V54.8191C38.0264 47.1966 34.702 56.3058 34.4149 57.1365C34.8299 26.4541 48.893 23.6414 48.893 23.6414C48.8885 24.5502 48.9525 25.4583 49.0849 26.3582C43.6676 35.0352 45.5053 47.596 47.2628 54.7871Z" fill="#9D27B0"/>
<path d="M125.68 57.1528C125.488 56.6092 123.954 52.4064 120.23 51.8791C119.014 51.7437 117.784 51.9371 116.666 52.4384C115.273 53.0415 113.979 53.8559 112.831 54.851V54.819C113.055 53.9243 113.279 52.9337 113.486 51.8791C114.893 44.7676 115.692 34.6202 111.409 27.0929C111.292 26.8497 111.158 26.6155 111.01 26.3901C111.141 25.4902 111.206 24.5821 111.202 23.6733C111.202 23.6733 125.265 26.4861 125.68 57.1528Z" fill="#6A1B9A"/>
<path d="M120.23 51.8791C119.208 37.7364 114.989 30.6249 111.409 27.093C115.692 34.6202 114.893 44.7676 113.486 51.8791C114.58 51.717 115.695 51.9133 116.667 52.4384L120.23 51.8791Z" fill="#9D27B0"/>
<path d="M33.7113 65.1911H33.782C34.2052 65.1725 34.6045 64.9866 34.8909 64.6742C35.1779 64.3611 35.3282 63.9476 35.3096 63.5237C35.2218 61.4881 35.1943 59.5722 35.2092 57.7442C35.2092 57.7308 35.2248 57.7196 35.23 57.7055C35.7908 56.105 37.0045 54.8183 38.5693 54.1639C40.7477 53.5406 43.3284 55.1024 45.2019 56.6159C45.9017 59.1148 46.5138 60.7399 46.6016 60.9719C46.8396 61.5885 47.4331 61.9953 48.0942 61.9946C48.2898 61.9953 48.4839 61.9589 48.6662 61.8875C49.4895 61.5721 49.9015 60.6484 49.5869 59.8244C48.9651 58.0945 48.4319 56.3348 47.9886 54.5506C48.0563 54.3766 48.092 54.1914 48.0942 54.0047C48.0942 52.4719 48.5323 47.7626 50.4273 46.2841C50.7761 46.0119 51.2067 45.8654 51.65 45.8669C51.9847 47.2621 52.4554 48.6201 53.0564 49.9231C53.3107 50.4341 53.8187 50.771 54.3891 50.8059C54.9588 50.8409 55.5047 50.5694 55.8201 50.0935C56.1354 49.6167 56.1726 49.0084 55.9182 48.4974C55.4475 47.4525 55.0734 46.3674 54.7997 45.2548C56.0997 44.5929 57.6005 44.4434 59.0054 44.8361C60.1076 45.4957 60.8179 46.6507 60.9109 47.9314C60.9622 48.1754 61.0723 48.4022 61.2299 48.5948C61.5021 50.3084 61.9491 51.9892 62.5642 53.6113C62.8089 57.3611 62.7851 61.1244 62.4928 64.8713C60.3256 67.2282 55.7249 67.9726 50.0056 66.8273C47.4636 66.2167 44.7824 66.6927 42.6063 68.1415C40.4301 69.5895 38.9561 71.8794 38.5374 74.4594C38.4109 75.0931 38.6787 75.7408 39.2156 76.1001C39.7526 76.4593 40.4532 76.4608 40.9909 76.1023C43.3827 74.6141 46.4127 74.6141 48.8052 76.1023C51.5414 77.9304 54.0567 79.3851 56.7014 79.3851C57.5351 79.3844 58.3621 79.2386 59.146 78.9552C57.1841 82.9327 54.4479 85.294 50.9769 85.9864C43.4973 87.2403 37.1607 92.1958 34.1412 99.1526C31.6237 105.043 32.1614 111.794 35.5796 117.211C35.9827 117.822 36.7502 118.082 37.4411 117.84C38.1328 117.598 38.5716 116.917 38.5054 116.188C38.4496 115.531 37.3504 100.047 56.334 97.1326C62.2369 96.3525 67.4616 92.9239 70.528 87.819C71.4368 91.4863 71.0412 95.3559 69.4087 98.7629C67.3047 103.161 62.585 108.291 56.212 108.291H56.18C55.4348 108.289 54.7878 108.804 54.6212 109.531C54.4538 110.256 54.8108 111.002 55.4817 111.327C58.0788 112.627 60.9369 113.322 63.8411 113.359C65.3018 113.366 66.7558 113.158 68.1562 112.744C71.4078 111.687 74.2682 109.679 76.367 106.98C77.4513 105.625 78.4011 104.168 79.2021 102.629C79.707 106.196 79.9064 111.737 77.1866 115.37C76.8244 115.853 76.7656 116.499 77.0341 117.04C77.3026 117.581 77.8537 117.923 78.4568 117.926C78.5334 117.927 78.6093 117.921 78.6844 117.911C86.2935 116.511 91.6736 109.671 91.2415 101.946C91.2303 100.104 91.124 98.2631 90.9217 96.4313C93.611 98.1262 96.4996 99.4813 99.5214 100.466C101.901 101.312 104.233 102.287 106.508 103.384C111.249 105.524 113.649 110.866 112.101 115.831C111.866 116.572 112.197 117.374 112.885 117.733C113.574 118.092 114.421 117.904 114.893 117.288C118.864 111.992 120.25 106.641 119.008 101.382C117.47 94.865 111.836 88.8817 103.144 84.5369C100.955 83.3313 99.2581 81.3961 98.35 79.0683C101 79.2572 103.659 78.8563 106.135 77.8939C110.104 76.5708 114.286 79.2795 114.332 79.3048C114.822 79.6283 115.451 79.6573 115.968 79.3791C116.486 79.1017 116.809 78.5625 116.811 77.975C116.714 74.3605 114.358 71.1959 110.923 70.0662C109.399 69.6542 107.831 69.4244 106.252 69.3827C101.386 69.0309 96.777 68.6859 96.1241 62.0838C96.2312 59.5834 96.4431 57.3299 96.6558 55.6007C97.758 53.345 98.5084 50.9339 98.8818 48.4513C98.9807 48.2892 99.0506 48.1114 99.0878 47.9255C99.1815 46.6478 99.891 45.4957 100.99 44.8375C102.394 44.4449 103.896 44.5943 105.196 45.2563C104.921 46.3681 104.547 47.4525 104.077 48.4974C103.707 49.2828 104.032 50.2206 104.809 50.6089C105.586 50.9963 106.531 50.6929 106.936 49.9246C107.538 48.6224 108.01 47.2636 108.343 45.8683C108.785 45.8676 109.215 46.0149 109.565 46.2856C111.46 47.7641 111.896 52.4734 111.9 54.0062C111.904 54.1936 111.941 54.3795 112.01 54.5543C111.567 56.3378 111.033 58.0982 110.412 59.8273C110.096 60.6514 110.508 61.5744 111.331 61.8904C111.514 61.9611 111.709 61.996 111.904 61.9946C112.566 61.9946 113.158 61.587 113.396 60.9704C113.485 60.7384 114.095 59.1148 114.794 56.6204C117.384 54.5283 119.671 53.6685 121.413 54.1579C122.988 54.8087 124.21 56.1028 124.769 57.7137C124.769 57.7263 124.784 57.736 124.788 57.7486C124.804 59.5737 124.775 61.4911 124.688 63.5237C124.669 63.9483 124.82 64.3626 125.107 64.6749C125.394 64.9881 125.794 65.1732 126.218 65.1911H126.289C127.145 65.1918 127.85 64.5173 127.887 63.6612C129.522 25.9714 112.924 22.2156 112.218 22.0751C112.165 22.0721 112.111 22.0721 112.058 22.0751C112.006 22.0609 111.952 22.0505 111.898 22.0431C111.844 22.0505 111.791 22.0609 111.739 22.0751C111.63 22.084 111.523 22.1056 111.419 22.139C111.326 22.168 111.236 22.2052 111.15 22.2506C110.967 22.3517 110.804 22.4856 110.671 22.647C110.62 22.711 110.575 22.7786 110.535 22.85C110.466 22.9631 110.412 23.0843 110.375 23.2115C110.366 23.2464 110.34 23.2754 110.332 23.3119C110.324 23.3491 110.332 23.39 110.332 23.4286C110.319 23.4986 110.311 23.57 110.306 23.6414C110.537 26.7918 109.385 29.8872 107.151 32.1206C103.5 35.4011 97.7826 34.8486 97.6948 34.8374C97.587 34.8359 97.4799 34.8471 97.375 34.8694C94.2937 27.3005 87.6991 22.0431 80.0551 22.0431C72.4118 22.0431 65.812 27.3042 62.7352 34.8753C62.5939 34.8419 62.4489 34.8292 62.3039 34.8374C62.2436 34.8374 56.508 35.4108 52.8481 32.1206C50.614 29.8872 49.4612 26.7918 49.6918 23.6414C49.6918 23.1624 49.4776 22.7095 49.1072 22.406C48.7368 22.0981 48.246 21.9762 47.7744 22.0751C47.0731 22.2156 30.4769 25.9714 32.1138 63.6612C32.1502 64.5173 32.8553 65.1918 33.7113 65.1911V65.1911ZM50.5805 73.4494C48.417 71.9724 45.7522 71.425 43.1819 71.9285C44.6619 70.087 47.0991 69.3091 49.3727 69.9532C53.5591 71.0338 57.9821 70.7385 61.9878 69.1105C61.7409 70.7653 61.3965 72.403 60.957 74.0169C57.3625 77.4083 55.202 76.5366 50.579 73.4494H50.5805ZM106.033 72.5703C107.345 72.6053 108.65 72.7823 109.923 73.0999C110.997 73.4345 111.934 74.1069 112.595 75.0172C110.186 74.1701 107.571 74.1143 105.129 74.8573C101.095 76.2049 98.2712 76.3403 97.1749 75.244C97.1452 75.2135 97.1035 75.2024 97.0716 75.1756C96.6566 73.352 96.3792 71.5001 96.2438 69.6349C99.0149 72.0482 102.969 72.3502 106.024 72.5703H106.033ZM124.583 52.2339C123.901 51.7155 123.128 51.3273 122.305 51.0878C120.123 50.5694 117.824 50.9205 115.897 52.0673C117.415 44.6576 118.227 34.0862 113.34 26.1313L113.355 25.9997C116.611 27.8873 123.305 33.9613 124.583 52.2339V52.2339ZM112.064 30.7194C113.805 35.7418 114.312 41.1107 113.539 46.3704C113.077 45.3648 112.392 44.4783 111.537 43.777C110.784 43.1954 109.884 42.8362 108.938 42.738C109.275 40.1402 109.209 37.5059 108.744 34.9281C108.916 34.7891 109.097 34.6745 109.265 34.5243C110.445 33.4578 111.398 32.1637 112.064 30.7194ZM98.7844 38.0778C101.187 38.0815 103.566 37.61 105.784 36.6893C105.999 38.4712 105.999 40.2726 105.784 42.0538C103.846 41.2387 101.671 41.1888 99.6969 41.9132C99.5021 42.0188 99.3132 42.1348 99.1309 42.262C99.0142 40.8482 98.7792 39.4463 98.4281 38.0719C98.5479 38.0748 98.655 38.0778 98.7844 38.0778ZM80.0551 25.2396C88.8668 25.2396 96.0356 33.8416 96.0356 44.4159C96.0549 47.9024 95.245 51.3437 93.672 54.4547C93.5924 54.619 93.5411 54.7953 93.5203 54.976C93.5203 54.9954 93.5061 55.0095 93.5047 55.0288C93.3321 56.4315 93.1849 57.9933 93.0584 59.6377C92.9208 59.8675 92.8457 60.1285 92.8398 60.3963C92.8398 61.0106 92.8732 61.5773 92.9179 62.1292C92.5185 71.7701 93.8245 83.4436 101.707 87.3958C109.538 91.3093 114.574 96.5384 115.892 102.117C116.476 104.647 116.315 107.292 115.428 109.732C114.522 105.65 111.742 102.234 107.93 100.516C105.553 99.3727 103.116 98.359 100.629 97.4792C96.2661 95.8497 92.4947 94.421 90.2412 91.4565C89.728 88.2719 89.0825 85.0263 88.4406 81.8297C87.0023 74.6223 85.6293 67.815 86.4095 63.9126C86.5486 63.0625 85.99 62.2549 85.1459 62.086C84.301 61.9172 83.4748 62.4475 83.2769 63.2857C82.3711 67.8164 83.7961 74.9279 85.3081 82.4626C85.9744 85.7849 86.6505 89.1636 87.1651 92.4427V92.4873C87.6984 95.6132 87.9922 98.7755 88.0457 101.946C88.0457 108.802 84.5123 112.038 81.6824 113.532C83.9656 106.82 81.7077 98.7183 81.5909 98.3107C81.5262 98.0905 81.4139 97.8875 81.2614 97.7157C81.7932 96.1078 82.206 94.4619 82.4953 92.7922C83.0092 89.9058 83.12 86.9614 82.8247 84.0445C82.5042 81.9941 81.9561 79.986 81.19 78.0568C80.4686 76.2741 79.9666 74.4103 79.6944 72.5064C79.4876 70.1421 79.6565 67.7599 80.1942 65.4484C80.5318 63.9245 80.9848 62.4289 81.5478 60.9734C81.8482 60.1531 81.434 59.2428 80.6181 58.9311C79.8015 58.6188 78.886 59.0204 78.5625 59.8325C77.9414 61.4405 77.4431 63.093 77.072 64.7768C76.4622 67.4163 76.274 70.1361 76.5157 72.8344C76.8087 74.9949 77.3673 77.1115 78.1794 79.1352C78.8622 80.8413 79.3553 82.6173 79.6513 84.4313C79.9116 87.0462 79.8075 89.685 79.3426 92.2716C78.6182 96.8976 76.7388 101.266 73.877 104.973C72.1731 107.165 69.8601 108.806 67.2273 109.69C65.6856 110.135 64.0717 110.273 62.4764 110.097C66.8101 108.029 70.2811 104.507 72.2854 100.143C74.4154 95.6943 74.7159 91.3301 73.2909 85.5536C73.0752 84.6693 72.8722 83.7701 72.6959 82.8367C72.3769 81.3054 72.1255 79.6759 71.921 77.8508C71.3394 72.1092 71.3929 66.3208 72.0809 60.5919C72.1731 60.0177 71.9463 59.4384 71.4881 59.0806C71.03 58.7222 70.4142 58.6404 69.8787 58.8672C69.3432 59.0948 68.9736 59.5946 68.9134 60.1732C68.1867 66.1587 68.1332 72.2067 68.7535 78.2041C68.9468 79.928 69.1915 81.4779 69.4793 82.9401C67.3114 88.846 62.0733 93.0823 55.8446 93.9673C42.2359 96.0669 37.601 104.102 36.0496 109.973C35.468 106.741 35.8309 103.409 37.0945 100.377C39.7184 94.4136 45.1803 90.181 51.6098 89.1294C57.4488 87.9603 61.5653 83.3767 63.8605 75.5348C63.9958 75.302 64.0695 75.0373 64.0732 74.768C64.8638 71.7984 65.3881 68.7647 65.6395 65.702C65.9942 61.5721 66.0336 57.4214 65.7577 53.2855C65.7577 53.0825 65.7191 52.8809 65.6439 52.692C64.6049 50.057 64.0724 47.2487 64.0747 44.4159C64.0747 33.8416 71.2434 25.2396 80.0551 25.2396V25.2396ZM61.6776 38.0704C61.3221 39.4678 61.0856 40.8928 60.9711 42.3304C60.7569 42.1757 60.5316 42.0359 60.2965 41.9132C58.3234 41.1888 56.148 41.2387 54.2099 42.0538C53.9957 40.2763 53.9957 38.4794 54.2099 36.7019C56.5757 37.6762 59.12 38.1425 61.6776 38.0704ZM50.7307 34.5161C50.9003 34.6663 51.0758 34.7972 51.2499 34.9363C50.788 37.5089 50.7233 40.1365 51.0587 42.7283C50.1127 42.8265 49.2128 43.1872 48.4601 43.7688C47.6041 44.4724 46.9199 45.3626 46.4595 46.3704C45.6898 41.1152 46.1955 35.7522 47.9343 30.7335C48.6029 32.1689 49.5542 33.4556 50.7307 34.5161ZM46.6254 26.0049C46.6254 26.0525 46.6462 26.0942 46.6507 26.1403C41.7718 34.0944 42.5825 44.6576 44.0989 52.0658C42.1727 50.9175 39.8746 50.5665 37.694 51.0878C36.8684 51.3266 36.0942 51.7163 35.41 52.2369C36.687 33.9791 43.3716 27.8984 46.6254 26.0049Z" fill="black"/>
<path d="M69.7523 50.6482C70.56 51.0573 71.4524 51.2707 72.3576 51.27C74.4742 51.1242 76.4696 50.231 77.9891 48.7502C78.3193 48.4222 78.4903 47.9671 78.4576 47.5023C78.4249 47.0382 78.1914 46.6113 77.818 46.3339L71.4257 41.5391C71.0746 41.2758 70.6299 41.1687 70.197 41.2423C69.7642 41.3167 69.3812 41.5658 69.1372 41.931C68.9059 42.2791 66.9001 45.402 67.5999 48.0548C67.8997 49.1942 68.6873 50.144 69.7523 50.6482ZM71.0166 45.2354L74.1522 47.5863C73.2508 48.124 72.1471 48.1991 71.181 47.7878C70.9393 47.6964 70.7571 47.4941 70.6909 47.2442C70.6039 46.5547 70.7169 45.8549 71.0166 45.2279V45.2354Z" fill="black"/>
<path d="M87.7534 51.2618C88.6586 51.2625 89.551 51.0498 90.358 50.64C91.4208 50.1373 92.2084 49.1913 92.5103 48.0549C93.2154 45.402 91.2051 42.2791 90.973 41.931C90.7298 41.5658 90.3461 41.3167 89.9132 41.2423C89.4804 41.1687 89.0364 41.2758 88.6846 41.5391L82.2922 46.3339C81.9219 46.6113 81.6906 47.0367 81.6578 47.4985C81.6244 47.9611 81.794 48.4141 82.1212 48.7421C83.6406 50.2228 85.6368 51.116 87.7534 51.2618V51.2618ZM89.0921 45.2294C89.3911 45.8519 89.5049 46.5473 89.4216 47.233C89.3562 47.4844 89.1725 47.6882 88.9293 47.7797C87.9639 48.191 86.8595 48.1166 85.9588 47.5789L89.0921 45.2294Z" fill="black"/>
</g>
<defs>
<clipPath id="clip0">
<rect width="96" height="96" fill="white" transform="translate(32 22)"/>
</clipPath>
</defs>
</svg>
