<svg width="160" height="160" viewBox="0 0 160 160" fill="none" xmlns="http://www.w3.org/2000/svg">
<rect width="160" height="160" fill="#0A0C0E"/>
<path d="M19.305 135.5H21.72V142.34L26.73 135.5H29.01V146H26.61V139.175L21.6 146H19.305V135.5ZM35.2843 146.12C34.4243 146.12 33.6493 145.945 32.9593 145.595C32.2793 145.235 31.7443 144.74 31.3543 144.11C30.9743 143.48 30.7843 142.765 30.7843 141.965C30.7843 141.165 30.9743 140.45 31.3543 139.82C31.7443 139.19 32.2793 138.7 32.9593 138.35C33.6493 137.99 34.4243 137.81 35.2843 137.81C36.1343 137.81 36.8743 137.99 37.5043 138.35C38.1443 138.7 38.6093 139.205 38.8993 139.865L37.0843 140.84C36.6643 140.1 36.0593 139.73 35.2693 139.73C34.6593 139.73 34.1543 139.93 33.7543 140.33C33.3543 140.73 33.1543 141.275 33.1543 141.965C33.1543 142.655 33.3543 143.2 33.7543 143.6C34.1543 144 34.6593 144.2 35.2693 144.2C36.0693 144.2 36.6743 143.83 37.0843 143.09L38.8993 144.08C38.6093 144.72 38.1443 145.22 37.5043 145.58C36.8743 145.94 36.1343 146.12 35.2843 146.12ZM47.072 139.85H44.342V146H42.017V139.85H39.287V137.93H47.072V139.85ZM51.7624 146.12C50.9124 146.12 50.1474 145.945 49.4674 145.595C48.7974 145.235 48.2724 144.74 47.8924 144.11C47.5124 143.48 47.3224 142.765 47.3224 141.965C47.3224 141.165 47.5124 140.45 47.8924 139.82C48.2724 139.19 48.7974 138.7 49.4674 138.35C50.1474 137.99 50.9124 137.81 51.7624 137.81C52.6124 137.81 53.3724 137.99 54.0424 138.35C54.7124 138.7 55.2374 139.19 55.6174 139.82C55.9974 140.45 56.1874 141.165 56.1874 141.965C56.1874 142.765 55.9974 143.48 55.6174 144.11C55.2374 144.74 54.7124 145.235 54.0424 145.595C53.3724 145.945 52.6124 146.12 51.7624 146.12ZM51.7624 144.2C52.3624 144.2 52.8524 144 53.2324 143.6C53.6224 143.19 53.8174 142.645 53.8174 141.965C53.8174 141.285 53.6224 140.745 53.2324 140.345C52.8524 139.935 52.3624 139.73 51.7624 139.73C51.1624 139.73 50.6674 139.935 50.2774 140.345C49.8874 140.745 49.6924 141.285 49.6924 141.965C49.6924 142.645 49.8874 143.19 50.2774 143.6C50.6674 144 51.1624 144.2 51.7624 144.2ZM62.5519 137.81C63.3019 137.81 63.9819 137.985 64.5919 138.335C65.2119 138.675 65.6969 139.16 66.0469 139.79C66.3969 140.41 66.5719 141.135 66.5719 141.965C66.5719 142.795 66.3969 143.525 66.0469 144.155C65.6969 144.775 65.2119 145.26 64.5919 145.61C63.9819 145.95 63.3019 146.12 62.5519 146.12C61.5219 146.12 60.7119 145.795 60.1219 145.145V148.91H57.7819V137.93H60.0169V138.86C60.5969 138.16 61.4419 137.81 62.5519 137.81ZM62.1469 144.2C62.7469 144.2 63.2369 144 63.6169 143.6C64.0069 143.19 64.2019 142.645 64.2019 141.965C64.2019 141.285 64.0069 140.745 63.6169 140.345C63.2369 139.935 62.7469 139.73 62.1469 139.73C61.5469 139.73 61.0519 139.935 60.6619 140.345C60.2819 140.745 60.0919 141.285 60.0919 141.965C60.0919 142.645 60.2819 143.19 60.6619 143.6C61.0519 144 61.5469 144.2 62.1469 144.2ZM68.2119 137.93H70.5369V142.73L74.4669 137.93H76.6119V146H74.2869V141.2L70.3719 146H68.2119V137.93ZM86.1213 137.93V146H83.7813V143C83.1013 143.34 82.3513 143.51 81.5313 143.51C80.4413 143.51 79.6163 143.265 79.0563 142.775C78.5063 142.275 78.2313 141.505 78.2313 140.465V137.93H80.5713V140.315C80.5713 140.805 80.6963 141.16 80.9463 141.38C81.2063 141.6 81.5763 141.71 82.0563 141.71C82.6663 141.71 83.2413 141.58 83.7813 141.32V137.93H86.1213ZM96.2132 141.995C96.2132 142.025 96.1982 142.235 96.1682 142.625H90.0632C90.1732 143.125 90.4332 143.52 90.8432 143.81C91.2532 144.1 91.7632 144.245 92.3732 144.245C92.7932 144.245 93.1632 144.185 93.4832 144.065C93.8132 143.935 94.1182 143.735 94.3982 143.465L95.6432 144.815C94.8832 145.685 93.7732 146.12 92.3132 146.12C91.4032 146.12 90.5982 145.945 89.8982 145.595C89.1982 145.235 88.6582 144.74 88.2782 144.11C87.8982 143.48 87.7082 142.765 87.7082 141.965C87.7082 141.175 87.8932 140.465 88.2632 139.835C88.6432 139.195 89.1582 138.7 89.8082 138.35C90.4682 137.99 91.2032 137.81 92.0132 137.81C92.8032 137.81 93.5182 137.98 94.1582 138.32C94.7982 138.66 95.2982 139.15 95.6582 139.79C96.0282 140.42 96.2132 141.155 96.2132 141.995ZM92.0282 139.58C91.4982 139.58 91.0532 139.73 90.6932 140.03C90.3332 140.33 90.1132 140.74 90.0332 141.26H94.0082C93.9282 140.75 93.7082 140.345 93.3482 140.045C92.9882 139.735 92.5482 139.58 92.0282 139.58ZM101.847 146.12C100.987 146.12 100.212 145.945 99.5218 145.595C98.8418 145.235 98.3068 144.74 97.9168 144.11C97.5368 143.48 97.3468 142.765 97.3468 141.965C97.3468 141.165 97.5368 140.45 97.9168 139.82C98.3068 139.19 98.8418 138.7 99.5218 138.35C100.212 137.99 100.987 137.81 101.847 137.81C102.697 137.81 103.437 137.99 104.067 138.35C104.707 138.7 105.172 139.205 105.462 139.865L103.647 140.84C103.227 140.1 102.622 139.73 101.832 139.73C101.222 139.73 100.717 139.93 100.317 140.33C99.9168 140.73 99.7168 141.275 99.7168 141.965C99.7168 142.655 99.9168 143.2 100.317 143.6C100.717 144 101.222 144.2 101.832 144.2C102.632 144.2 103.237 143.83 103.647 143.09L105.462 144.08C105.172 144.72 104.707 145.22 104.067 145.58C103.437 145.94 102.697 146.12 101.847 146.12ZM110.439 142.94H109.224V146H106.884V137.93H109.224V141.065H110.484L112.674 137.93H115.164L112.344 141.8L115.359 146H112.599L110.439 142.94ZM116.508 137.93H118.833V142.73L122.763 137.93H124.908V146H122.583V141.2L118.668 146H116.508V137.93ZM135.002 141.995C135.002 142.025 134.987 142.235 134.957 142.625H128.852C128.962 143.125 129.222 143.52 129.632 143.81C130.042 144.1 130.552 144.245 131.162 144.245C131.582 144.245 131.952 144.185 132.272 144.065C132.602 143.935 132.907 143.735 133.187 143.465L134.432 144.815C133.672 145.685 132.562 146.12 131.102 146.12C130.192 146.12 129.387 145.945 128.687 145.595C127.987 145.235 127.447 144.74 127.067 144.11C126.687 143.48 126.497 142.765 126.497 141.965C126.497 141.175 126.682 140.465 127.052 139.835C127.432 139.195 127.947 138.7 128.597 138.35C129.257 137.99 129.992 137.81 130.802 137.81C131.592 137.81 132.307 137.98 132.947 138.32C133.587 138.66 134.087 139.15 134.447 139.79C134.817 140.42 135.002 141.155 135.002 141.995ZM130.817 139.58C130.287 139.58 129.842 139.73 129.482 140.03C129.122 140.33 128.902 140.74 128.822 141.26H132.797C132.717 140.75 132.497 140.345 132.137 140.045C131.777 139.735 131.337 139.58 130.817 139.58Z" fill="white"/>
<path d="M102 52V46H58V52C58 61.8 78 70 78 70C78 70 58 78.2 58 88C58 97.8 58 94 58 94H102C102 94 102 97.8 102 88C102 78.2 82 70 82 70C82 70 102 61.8 102 52Z" fill="#CFD8DC"/>
<path d="M110 102H50V110H110V102Z" fill="#8D6E63"/>
<path d="M110 30H50V38H110V30Z" fill="#8D6E63"/>
<path d="M102 38H58V46H102V38Z" fill="#6D4C41"/>
<path d="M102 94H58V102H102V94Z" fill="#6D4C41"/>
<path d="M78.8 66H81C86.4 63.4 97.8 57.2 97.8 52C97.8 52 88.8 56 79.8 56C70.8 56 61.8 52 61.8 52C62 57.2 73.6 63.4 78.8 66Z" fill="#F57C00"/>
<path d="M80 75.6C80 75.6 64 82.4 64 94H96C96 82.8 80 75.6 80 75.6Z" fill="#F57C00"/>
</svg>
