<svg width="160" height="160" viewBox="0 0 160 160" fill="none" xmlns="http://www.w3.org/2000/svg">
<rect width="160" height="160" fill="#0A0C0E"/>
<path d="M69.3992 72.4002L44.7992 97.0002C42.5992 99.2002 42.5992 101.4 44.7992 103.6L48.5992 107.4C51.1992 110 63.3992 104.4 68.7992 99.2002C74.1992 93.8002 80.1992 83.4002 77.9992 81.2002L69.3992 72.4002Z" fill="#3F51B5"/>
<path d="M116.601 32C116.601 32 110.001 38.8 102.801 38.8C90.6008 51 68.6008 73 68.6008 73L85.2008 89.6C121.201 53.8 116.601 32 116.601 32Z" fill="#90A4AE"/>
<path d="M52 102C53.1046 102 54 101.105 54 100C54 98.8954 53.1046 98 52 98C50.8954 98 50 98.8954 50 100C50 101.105 50.8954 102 52 102Z" fill="#9FA8DA"/>
<path d="M70 84C71.1046 84 72 83.1046 72 82C72 80.8954 71.1046 80 70 80C68.8954 80 68 80.8954 68 82C68 83.1046 68.8954 84 70 84Z" fill="#9FA8DA"/>
<path d="M78.3996 73C77.7996 72.4 77.7996 71.6 78.3996 71L110.4 39L110.2 43.2L80.3996 73C79.7996 73.6 78.9996 73.6 78.3996 73Z" fill="#78909C"/>
<path d="M109.8 37C108 39 105.2 40.6 105.6 43.2C106.6 48.4 106.6 51.8 102.6 53.8C98.6004 55.8 98.6004 58.4 99.2004 62.4C100.4 70 94.2004 78 90.8004 84C117.6 55 117.2 36.4 116.8 32.6C116.8 32.4 116.8 32.2 116.8 32C116.6 32 113.8 35 109.8 37Z" fill="#C62828"/>
<path d="M100.201 70.0003C100.201 70.0003 97.8008 71.4003 95.6008 78.4003C98.6008 74.6003 99.6008 77.0003 97.6008 81.2003C99.4008 81.8003 98.6008 78.8003 101.601 79.8003C99.6008 74.0003 104.201 67.6003 105.401 65.4003C104.601 63.8003 100.201 70.0003 100.201 70.0003Z" fill="#C62828"/>
<path d="M96 97C96 98.6 94.6 100 93 100C91.4 100 90 98.6 90 97C90 95.4 93 90 93 90C93 90 96 95.4 96 97Z" fill="#C62828"/>
<path d="M104 85.9998C104 88.1998 102.2 89.9998 100 89.9998C97.8 89.9998 96 88.1998 96 85.9998C96 83.7998 100 76.5998 100 76.5998C100 76.5998 104 83.7998 104 85.9998Z" fill="#C62828"/>
<path d="M63.785 135.5L59.315 143.81C58.885 144.61 58.365 145.215 57.755 145.625C57.155 146.035 56.5 146.24 55.79 146.24C55.24 146.24 54.67 146.12 54.08 145.88L54.665 144.035C55.085 144.165 55.435 144.23 55.715 144.23C56.015 144.23 56.285 144.16 56.525 144.02C56.765 143.87 56.985 143.64 57.185 143.33L57.275 143.21L53.135 135.5H55.73L58.52 141.14L61.4 135.5H63.785ZM72.4911 142.94H71.3661V146H69.0561V142.94H67.9311L66.2211 146H63.4611L65.9961 141.83L63.6411 137.93H66.1161L67.9011 141.065H69.0561V137.93H71.3661V141.065H72.5061L74.3061 137.93H76.7811L74.4261 141.83L76.9761 146H74.2011L72.4911 142.94ZM81.1809 137.81C82.4309 137.81 83.3909 138.11 84.0609 138.71C84.7309 139.3 85.0659 140.195 85.0659 141.395V146H82.8759V144.995C82.4359 145.745 81.6159 146.12 80.4159 146.12C79.7959 146.12 79.2559 146.015 78.7959 145.805C78.3459 145.595 78.0009 145.305 77.7609 144.935C77.5209 144.565 77.4009 144.145 77.4009 143.675C77.4009 142.925 77.6809 142.335 78.2409 141.905C78.8109 141.475 79.6859 141.26 80.8659 141.26H82.7259C82.7259 140.75 82.5709 140.36 82.2609 140.09C81.9509 139.81 81.4859 139.67 80.8659 139.67C80.4359 139.67 80.0109 139.74 79.5909 139.88C79.1809 140.01 78.8309 140.19 78.5409 140.42L77.7009 138.785C78.1409 138.475 78.6659 138.235 79.2759 138.065C79.8959 137.895 80.5309 137.81 81.1809 137.81ZM81.0009 144.545C81.4009 144.545 81.7559 144.455 82.0659 144.275C82.3759 144.085 82.5959 143.81 82.7259 143.45V142.625H81.1209C80.1609 142.625 79.6809 142.94 79.6809 143.57C79.6809 143.87 79.7959 144.11 80.0259 144.29C80.2659 144.46 80.5909 144.545 81.0009 144.545ZM90.9386 146.12C90.0786 146.12 89.3036 145.945 88.6136 145.595C87.9336 145.235 87.3986 144.74 87.0086 144.11C86.6286 143.48 86.4386 142.765 86.4386 141.965C86.4386 141.165 86.6286 140.45 87.0086 139.82C87.3986 139.19 87.9336 138.7 88.6136 138.35C89.3036 137.99 90.0786 137.81 90.9386 137.81C91.7886 137.81 92.5286 137.99 93.1586 138.35C93.7986 138.7 94.2636 139.205 94.5536 139.865L92.7386 140.84C92.3186 140.1 91.7136 139.73 90.9236 139.73C90.3136 139.73 89.8086 139.93 89.4086 140.33C89.0086 140.73 88.8086 141.275 88.8086 141.965C88.8086 142.655 89.0086 143.2 89.4086 143.6C89.8086 144 90.3136 144.2 90.9236 144.2C91.7236 144.2 92.3286 143.83 92.7386 143.09L94.5536 144.08C94.2636 144.72 93.7986 145.22 93.1586 145.58C92.5286 145.94 91.7886 146.12 90.9386 146.12ZM100.221 140.51C101.271 140.52 102.066 140.755 102.606 141.215C103.146 141.675 103.416 142.335 103.416 143.195C103.416 144.095 103.111 144.79 102.501 145.28C101.891 145.77 101.026 146.015 99.9056 146.015L95.9756 146V137.93H98.3006V140.51H100.221ZM104.286 137.93H106.611V146H104.286V137.93ZM99.6956 144.35C100.146 144.36 100.491 144.265 100.731 144.065C100.971 143.865 101.091 143.565 101.091 143.165C101.091 142.775 100.971 142.49 100.731 142.31C100.501 142.13 100.156 142.035 99.6956 142.025L98.3006 142.01V144.35H99.6956Z" fill="white"/>
</svg>
