<svg width="160" height="160" viewBox="0 0 160 160" fill="none" xmlns="http://www.w3.org/2000/svg">
<rect width="160" height="160" fill="#0A0C0E"/>
<path d="M41.5241 146L41.5091 139.715L38.4191 144.89H37.3391L34.2491 139.835V146H31.9691V135.5H33.9791L37.9091 142.025L41.7791 135.5H43.7891L43.8041 146H41.5241ZM54.0774 141.995C54.0774 142.025 54.0624 142.235 54.0324 142.625H47.9274C48.0374 143.125 48.2974 143.52 48.7074 143.81C49.1174 144.1 49.6274 144.245 50.2374 144.245C50.6574 144.245 51.0274 144.185 51.3474 144.065C51.6774 143.935 51.9824 143.735 52.2624 143.465L53.5074 144.815C52.7474 145.685 51.6374 146.12 50.1774 146.12C49.2674 146.12 48.4624 145.945 47.7624 145.595C47.0624 145.235 46.5224 144.74 46.1424 144.11C45.7624 143.48 45.5724 142.765 45.5724 141.965C45.5724 141.175 45.7574 140.465 46.1274 139.835C46.5074 139.195 47.0224 138.7 47.6724 138.35C48.3324 137.99 49.0674 137.81 49.8774 137.81C50.6674 137.81 51.3824 137.98 52.0224 138.32C52.6624 138.66 53.1624 139.15 53.5224 139.79C53.8924 140.42 54.0774 141.155 54.0774 141.995ZM49.8924 139.58C49.3624 139.58 48.9174 139.73 48.5574 140.03C48.1974 140.33 47.9774 140.74 47.8974 141.26H51.8724C51.7924 140.75 51.5724 140.345 51.2124 140.045C50.8524 139.735 50.4124 139.58 49.8924 139.58ZM63.5379 137.93V146H61.1979V139.85H58.6479L58.5729 141.275C58.5329 142.335 58.4329 143.215 58.2729 143.915C58.1129 144.615 57.8529 145.165 57.4929 145.565C57.1329 145.965 56.6329 146.165 55.9929 146.165C55.6529 146.165 55.2479 146.105 54.7779 145.985L54.8979 144.065C55.0579 144.085 55.1729 144.095 55.2429 144.095C55.5929 144.095 55.8529 143.97 56.0229 143.72C56.2029 143.46 56.3229 143.135 56.3829 142.745C56.4429 142.345 56.4879 141.82 56.5179 141.17L56.6379 137.93H63.5379ZM69.5681 146.12C68.7181 146.12 67.9531 145.945 67.2731 145.595C66.6031 145.235 66.0781 144.74 65.6981 144.11C65.3181 143.48 65.1281 142.765 65.1281 141.965C65.1281 141.165 65.3181 140.45 65.6981 139.82C66.0781 139.19 66.6031 138.7 67.2731 138.35C67.9531 137.99 68.7181 137.81 69.5681 137.81C70.4181 137.81 71.1781 137.99 71.8481 138.35C72.5181 138.7 73.0431 139.19 73.4231 139.82C73.8031 140.45 73.9931 141.165 73.9931 141.965C73.9931 142.765 73.8031 143.48 73.4231 144.11C73.0431 144.74 72.5181 145.235 71.8481 145.595C71.1781 145.945 70.4181 146.12 69.5681 146.12ZM69.5681 144.2C70.1681 144.2 70.6581 144 71.0381 143.6C71.4281 143.19 71.6231 142.645 71.6231 141.965C71.6231 141.285 71.4281 140.745 71.0381 140.345C70.6581 139.935 70.1681 139.73 69.5681 139.73C68.9681 139.73 68.4731 139.935 68.0831 140.345C67.6931 140.745 67.4981 141.285 67.4981 141.965C67.4981 142.645 67.6931 143.19 68.0831 143.6C68.4731 144 68.9681 144.2 69.5681 144.2ZM84.5304 144.08V147.74H82.3554V146H76.6854V147.74H74.5104V144.08H74.8404C75.3404 144.07 75.6854 143.775 75.8754 143.195C76.0654 142.615 76.1854 141.79 76.2354 140.72L76.3404 137.93H83.3754V144.08H84.5304ZM78.3504 140.885C78.3204 141.705 78.2554 142.375 78.1554 142.895C78.0654 143.415 77.8904 143.81 77.6304 144.08H81.0354V139.85H78.3954L78.3504 140.885ZM90.7579 137.81C91.5079 137.81 92.1879 137.985 92.7979 138.335C93.4179 138.675 93.9029 139.16 94.2529 139.79C94.6029 140.41 94.7779 141.135 94.7779 141.965C94.7779 142.795 94.6029 143.525 94.2529 144.155C93.9029 144.775 93.4179 145.26 92.7979 145.61C92.1879 145.95 91.5079 146.12 90.7579 146.12C89.7279 146.12 88.9179 145.795 88.3279 145.145V148.91H85.9879V137.93H88.2229V138.86C88.8029 138.16 89.6479 137.81 90.7579 137.81ZM90.3529 144.2C90.9529 144.2 91.4429 144 91.8229 143.6C92.2129 143.19 92.4079 142.645 92.4079 141.965C92.4079 141.285 92.2129 140.745 91.8229 140.345C91.4429 139.935 90.9529 139.73 90.3529 139.73C89.7529 139.73 89.2579 139.935 88.8679 140.345C88.4879 140.745 88.2979 141.285 88.2979 141.965C88.2979 142.645 88.4879 143.19 88.8679 143.6C89.2579 144 89.7529 144.2 90.3529 144.2ZM99.4211 137.81C100.671 137.81 101.631 138.11 102.301 138.71C102.971 139.3 103.306 140.195 103.306 141.395V146H101.116V144.995C100.676 145.745 99.8561 146.12 98.6561 146.12C98.0361 146.12 97.4961 146.015 97.0361 145.805C96.5861 145.595 96.2411 145.305 96.0011 144.935C95.7611 144.565 95.6411 144.145 95.6411 143.675C95.6411 142.925 95.9211 142.335 96.4811 141.905C97.0511 141.475 97.9261 141.26 99.1061 141.26H100.966C100.966 140.75 100.811 140.36 100.501 140.09C100.191 139.81 99.7261 139.67 99.1061 139.67C98.6761 139.67 98.2511 139.74 97.8311 139.88C97.4211 140.01 97.0711 140.19 96.7811 140.42L95.9411 138.785C96.3811 138.475 96.9061 138.235 97.5161 138.065C98.1361 137.895 98.7711 137.81 99.4211 137.81ZM99.2411 144.545C99.6411 144.545 99.9961 144.455 100.306 144.275C100.616 144.085 100.836 143.81 100.966 143.45V142.625H99.3611C98.4011 142.625 97.9211 142.94 97.9211 143.57C97.9211 143.87 98.0361 144.11 98.2661 144.29C98.5061 144.46 98.8311 144.545 99.2411 144.545ZM113.214 146V141.17L110.799 145.22H109.809L107.454 141.155V146H105.339V137.93H107.784L110.364 142.595L113.109 137.93H115.299L115.329 146H113.214ZM121.815 140.51C122.865 140.52 123.66 140.755 124.2 141.215C124.74 141.675 125.01 142.335 125.01 143.195C125.01 144.095 124.705 144.79 124.095 145.28C123.485 145.77 122.62 146.015 121.5 146.015L117.57 146V137.93H119.895V140.51H121.815ZM125.88 137.93H128.205V146H125.88V137.93ZM121.29 144.35C121.74 144.36 122.085 144.265 122.325 144.065C122.565 143.865 122.685 143.565 122.685 143.165C122.685 142.775 122.565 142.49 122.325 142.31C122.095 142.13 121.75 142.035 121.29 142.025L119.895 142.01V144.35H121.29Z" fill="white"/>
<path d="M84 38C78.2 38 73.2 40.8 70 45.4C66.8 40.8 61.6 38 56 38C46 38 38 46 38 56C38 70 70 95.6 70 95.6C70 95.6 102 70 102 56C102 46 94 38 84 38Z" fill="#B71C1C"/>
<path d="M110.6 58.4C106 57.4 101.4 58.6 97.8 61.6C96 57.4 92.6 54.2 88 53C80 51.2 72 56 70.2 64C67.6 75.2 88.4 102 88.4 102C88.4 102 119 87.6 121.6 76.2C123.4 68.4 118.6 60.4 110.6 58.4Z" fill="#F44336"/>
</svg>
