<svg width="160" height="160" viewBox="0 0 160 160" fill="none" xmlns="http://www.w3.org/2000/svg">
<rect width="160" height="160" fill="#0A0C0E"/>
<path d="M51.5854 140.525C52.2254 140.715 52.7154 141.025 53.0554 141.455C53.3954 141.885 53.5654 142.415 53.5654 143.045C53.5654 143.975 53.2104 144.7 52.5004 145.22C51.8004 145.74 50.7954 146 49.4854 146H44.3104V135.5H49.2004C50.4204 135.5 51.3704 135.735 52.0504 136.205C52.7304 136.675 53.0704 137.345 53.0704 138.215C53.0704 138.735 52.9404 139.195 52.6804 139.595C52.4204 139.985 52.0554 140.295 51.5854 140.525ZM46.7254 139.85H48.9904C49.5204 139.85 49.9204 139.745 50.1904 139.535C50.4604 139.315 50.5954 138.995 50.5954 138.575C50.5954 138.165 50.4554 137.85 50.1754 137.63C49.9054 137.41 49.5104 137.3 48.9904 137.3H46.7254V139.85ZM49.3954 144.2C50.5354 144.2 51.1054 143.75 51.1054 142.85C51.1054 141.98 50.5354 141.545 49.3954 141.545H46.7254V144.2H49.3954ZM59.0871 146.12C58.2371 146.12 57.4721 145.945 56.7921 145.595C56.1221 145.235 55.5971 144.74 55.2171 144.11C54.8371 143.48 54.6471 142.765 54.6471 141.965C54.6471 141.165 54.8371 140.45 55.2171 139.82C55.5971 139.19 56.1221 138.7 56.7921 138.35C57.4721 137.99 58.2371 137.81 59.0871 137.81C59.9371 137.81 60.6971 137.99 61.3671 138.35C62.0371 138.7 62.5621 139.19 62.9421 139.82C63.3221 140.45 63.5121 141.165 63.5121 141.965C63.5121 142.765 63.3221 143.48 62.9421 144.11C62.5621 144.74 62.0371 145.235 61.3671 145.595C60.6971 145.945 59.9371 146.12 59.0871 146.12ZM59.0871 144.2C59.6871 144.2 60.1771 144 60.5571 143.6C60.9471 143.19 61.1421 142.645 61.1421 141.965C61.1421 141.285 60.9471 140.745 60.5571 140.345C60.1771 139.935 59.6871 139.73 59.0871 139.73C58.4871 139.73 57.9921 139.935 57.6021 140.345C57.2121 140.745 57.0171 141.285 57.0171 141.965C57.0171 142.645 57.2121 143.19 57.6021 143.6C57.9921 144 58.4871 144.2 59.0871 144.2ZM72.9666 141.995C72.9666 142.025 72.9516 142.235 72.9216 142.625H66.8166C66.9266 143.125 67.1866 143.52 67.5966 143.81C68.0066 144.1 68.5166 144.245 69.1266 144.245C69.5466 144.245 69.9166 144.185 70.2366 144.065C70.5666 143.935 70.8716 143.735 71.1516 143.465L72.3966 144.815C71.6366 145.685 70.5266 146.12 69.0666 146.12C68.1566 146.12 67.3516 145.945 66.6516 145.595C65.9516 145.235 65.4116 144.74 65.0316 144.11C64.6516 143.48 64.4616 142.765 64.4616 141.965C64.4616 141.175 64.6466 140.465 65.0166 139.835C65.3966 139.195 65.9116 138.7 66.5616 138.35C67.2216 137.99 67.9566 137.81 68.7666 137.81C69.5566 137.81 70.2716 137.98 70.9116 138.32C71.5516 138.66 72.0516 139.15 72.4116 139.79C72.7816 140.42 72.9666 141.155 72.9666 141.995ZM68.7816 139.58C68.2516 139.58 67.8066 139.73 67.4466 140.03C67.0866 140.33 66.8666 140.74 66.7866 141.26H70.7616C70.6816 140.75 70.4616 140.345 70.1016 140.045C69.7416 139.735 69.3016 139.58 68.7816 139.58ZM74.7603 137.93H77.0853V141.08H80.5953V137.93H82.9353V146H80.5953V142.985H77.0853V146H74.7603V137.93ZM85.1753 137.93H87.5003V141.08H91.0103V137.93H93.3503V146H91.0103V142.985H87.5003V146H85.1753V137.93ZM99.8353 140.51C100.885 140.52 101.68 140.755 102.22 141.215C102.76 141.675 103.03 142.335 103.03 143.195C103.03 144.095 102.725 144.79 102.115 145.28C101.505 145.77 100.64 146.015 99.5203 146.015L95.5903 146V137.93H97.9153V140.51H99.8353ZM103.9 137.93H106.225V146H103.9V137.93ZM99.3103 144.35C99.7603 144.36 100.105 144.265 100.345 144.065C100.585 143.865 100.705 143.565 100.705 143.165C100.705 142.775 100.585 142.49 100.345 142.31C100.115 142.13 99.7703 142.035 99.3103 142.025L97.9153 142.01V144.35H99.3103ZM116.326 141.995C116.326 142.025 116.311 142.235 116.281 142.625H110.176C110.286 143.125 110.546 143.52 110.956 143.81C111.366 144.1 111.876 144.245 112.486 144.245C112.906 144.245 113.276 144.185 113.596 144.065C113.926 143.935 114.231 143.735 114.511 143.465L115.756 144.815C114.996 145.685 113.886 146.12 112.426 146.12C111.516 146.12 110.711 145.945 110.011 145.595C109.311 145.235 108.771 144.74 108.391 144.11C108.011 143.48 107.821 142.765 107.821 141.965C107.821 141.175 108.006 140.465 108.376 139.835C108.756 139.195 109.271 138.7 109.921 138.35C110.581 137.99 111.316 137.81 112.126 137.81C112.916 137.81 113.631 137.98 114.271 138.32C114.911 138.66 115.411 139.15 115.771 139.79C116.141 140.42 116.326 141.155 116.326 141.995ZM112.141 139.58C111.611 139.58 111.166 139.73 110.806 140.03C110.446 140.33 110.226 140.74 110.146 141.26H114.121C114.041 140.75 113.821 140.345 113.461 140.045C113.101 139.735 112.661 139.58 112.141 139.58Z" fill="white"/>
<path d="M122.938 89.0732H89.6143L78.4115 77.5H37.0625C36.0679 77.5 35.1141 77.1049 34.4108 76.4017C33.7076 75.6984 33.3125 74.7446 33.3125 73.75C33.3125 72.7554 33.7076 71.8016 34.4108 71.0983C35.1141 70.3951 36.0679 70 37.0625 70H81.5885L92.792 81.5732H122.938C123.932 81.5732 124.886 81.9683 125.589 82.6716C126.292 83.3749 126.688 84.3287 126.688 85.3232C126.688 86.3178 126.292 87.2716 125.589 87.9749C124.886 88.6782 123.932 89.0732 122.938 89.0732V89.0732Z" fill="#424242"/>
<path d="M80 23.3125C69.0113 23.3125 58.4727 27.6778 50.7025 35.4479C42.9323 43.2181 38.567 53.7568 38.567 64.7455V70H81.5885L92.792 81.5732H121.433V64.7455C121.433 53.7568 117.068 43.2181 109.298 35.4479C101.527 27.6778 90.9887 23.3125 80 23.3125V23.3125Z" fill="#5E8569"/>
<path d="M76.25 104.08H88.5365V110.549H76.25V104.08Z" fill="#424242"/>
<path d="M78.4115 110.549H86.375V116.688H78.4115V110.549Z" fill="#707070"/>
<path d="M86.375 104.08V85.7275L78.4115 77.503V104.08H86.375Z" fill="#707070"/>
<path d="M49.667 36.5335C43.3404 43.3188 39.4845 52.0378 38.7215 61.2835H60.4062C61.4505 61.2833 62.4519 60.8684 63.1903 60.13C63.9286 59.3916 64.3436 58.3902 64.3438 57.346V57.1585C64.3437 56.6414 64.4454 56.1293 64.6433 55.6516C64.8411 55.1738 65.1311 54.7397 65.4968 54.3741C65.8624 54.0084 66.2966 53.7184 66.7743 53.5205C67.2521 53.3227 67.7641 53.2209 68.2813 53.221H70.9063C71.9505 53.2208 72.9519 52.8059 73.6903 52.0675C74.4286 51.3291 74.8436 50.3277 74.8438 49.2835V48.346C74.8438 47.3017 74.4289 46.3002 73.6905 45.5618C72.9521 44.8234 71.9505 44.4085 70.9063 44.4085H62.0937C61.0495 44.4085 60.0479 43.9937 59.3095 43.2552C58.5711 42.5168 58.1562 41.5153 58.1562 40.471C58.1562 39.4267 57.7414 38.4252 57.003 37.6868C56.2646 36.9484 55.263 36.5335 54.2187 36.5335H49.667Z" fill="#85BC94"/>
<path d="M101.829 68.6313H100.457C99.4823 68.6313 98.5476 69.0184 97.8584 69.7076C97.1692 70.3968 96.782 71.3316 96.782 72.3063V72.3348C96.782 73.3094 97.1692 74.2442 97.8584 74.9334C98.5476 75.6226 99.4823 76.0098 100.457 76.0098H121.433V64.7455C121.433 63.5785 121.373 62.4265 121.278 61.2835H109.175C108.2 61.2835 107.266 61.6707 106.576 62.3599C105.887 63.0491 105.5 63.9838 105.5 64.9585C105.499 65.9321 105.112 66.8657 104.424 67.5543C103.736 68.2429 102.802 68.6303 101.829 68.6313Z" fill="#85BC94"/>
<path d="M82.5313 62.7835H87.7813C88.6266 62.7835 89.4374 62.4477 90.0352 61.8499C90.6329 61.2521 90.9688 60.4414 90.9688 59.596V58.5647C90.9688 57.7194 91.3046 56.9086 91.9024 56.3108C92.5001 55.7131 93.3109 55.3772 94.1563 55.3772H98.8438C99.6891 55.3772 100.5 55.0414 101.098 54.4437C101.695 53.8459 102.031 53.0351 102.031 52.1897V49C102.031 48.1546 101.695 47.3439 101.098 46.7461C100.5 46.1483 99.6891 45.8125 98.8438 45.8125H88.9063C88.0609 45.8125 87.2501 46.1483 86.6524 46.7461C86.0546 47.3439 85.7188 48.1546 85.7188 49V52.375C85.7188 53.2204 85.3829 54.0311 84.7852 54.6289C84.1874 55.2267 83.3766 55.5625 82.5313 55.5625C81.6859 55.5625 80.8751 55.8983 80.2773 56.4961C79.6796 57.0939 79.3438 57.9046 79.3438 58.75V59.5938C79.3435 60.0125 79.4257 60.4273 79.5857 60.8142C79.7458 61.2012 79.9805 61.5529 80.2766 61.8491C80.5726 62.1453 80.9241 62.3803 81.3109 62.5407C81.6978 62.701 82.1125 62.7835 82.5313 62.7835V62.7835Z" fill="#85BC94"/>
<path d="M86.0322 23.755C85.5395 24.0351 85.1297 24.4405 84.8441 24.9301C84.5586 25.4197 84.4075 25.976 84.4062 26.5428V27.8283C84.4063 28.6797 84.0702 29.4967 83.471 30.1016C82.8718 30.7065 82.0581 31.0504 81.2067 31.0585L76.3557 31.1043C75.499 31.1083 74.679 31.4526 74.0761 32.0612C73.4732 32.6699 73.1368 33.4932 73.1408 34.3499C73.1449 35.2066 73.4892 36.0266 74.0978 36.6295C74.7065 37.2324 75.5298 37.5688 76.3865 37.5648H111.257C104.772 30.0919 95.8219 25.1921 86.0322 23.755V23.755Z" fill="#85BC94"/>
</svg>
