<svg width="160" height="160" viewBox="0 0 160 160" fill="none" xmlns="http://www.w3.org/2000/svg">
<g clip-path="url(#clip0)">
<rect width="160" height="160" fill="#0A0C0E"/>
<path d="M55.7863 146L55.7713 139.715L52.6813 144.89H51.6013L48.5113 139.835V146H46.2313V135.5H48.2413L52.1713 142.025L56.0413 135.5H58.0513L58.0663 146H55.7863ZM60.4946 137.93H62.8196V142.73L66.7496 137.93H68.8946V146H66.5696V141.2L62.6546 146H60.4946V137.93ZM74.984 146.12C74.124 146.12 73.349 145.945 72.659 145.595C71.979 145.235 71.444 144.74 71.054 144.11C70.674 143.48 70.484 142.765 70.484 141.965C70.484 141.165 70.674 140.45 71.054 139.82C71.444 139.19 71.979 138.7 72.659 138.35C73.349 137.99 74.124 137.81 74.984 137.81C75.834 137.81 76.574 137.99 77.204 138.35C77.844 138.7 78.309 139.205 78.599 139.865L76.784 140.84C76.364 140.1 75.759 139.73 74.969 139.73C74.359 139.73 73.854 139.93 73.454 140.33C73.054 140.73 72.854 141.275 72.854 141.965C72.854 142.655 73.054 143.2 73.454 143.6C73.854 144 74.359 144.2 74.969 144.2C75.769 144.2 76.374 143.83 76.784 143.09L78.599 144.08C78.309 144.72 77.844 145.22 77.204 145.58C76.574 145.94 75.834 146.12 74.984 146.12ZM86.7717 139.85H84.0417V146H81.7167V139.85H78.9867V137.93H86.7717V139.85ZM88.019 137.93H90.344V142.73L94.274 137.93H96.419V146H94.094V141.2L90.179 146H88.019V137.93ZM102.223 142.94H101.008V146H98.6685V137.93H101.008V141.065H102.268L104.458 137.93H106.948L104.128 141.8L107.143 146H104.383L102.223 142.94ZM111.281 137.81C112.531 137.81 113.491 138.11 114.161 138.71C114.831 139.3 115.166 140.195 115.166 141.395V146H112.976V144.995C112.536 145.745 111.716 146.12 110.516 146.12C109.896 146.12 109.356 146.015 108.896 145.805C108.446 145.595 108.101 145.305 107.861 144.935C107.621 144.565 107.501 144.145 107.501 143.675C107.501 142.925 107.781 142.335 108.341 141.905C108.911 141.475 109.786 141.26 110.966 141.26H112.826C112.826 140.75 112.671 140.36 112.361 140.09C112.051 139.81 111.586 139.67 110.966 139.67C110.536 139.67 110.111 139.74 109.691 139.88C109.281 140.01 108.931 140.19 108.641 140.42L107.801 138.785C108.241 138.475 108.766 138.235 109.376 138.065C109.996 137.895 110.631 137.81 111.281 137.81ZM111.101 144.545C111.501 144.545 111.856 144.455 112.166 144.275C112.476 144.085 112.696 143.81 112.826 143.45V142.625H111.221C110.261 142.625 109.781 142.94 109.781 143.57C109.781 143.87 109.896 144.11 110.126 144.29C110.366 144.46 110.691 144.545 111.101 144.545Z" fill="white"/>
<g clip-path="url(#clip1)">
<path d="M117.8 34.6C119.2 36.8 120 39.2 120 42C120 49.8 113.8 56 106 56C104.6 56 103.4 55.8 102.2 55.4C104.6 59.4 109 62 114 62C121.8 62 128 55.8 128 48C128 41.6 123.8 36.2 117.8 34.6Z" fill="#40C4FF"/>
<path d="M94 64C96.2091 64 98 62.2091 98 60C98 57.7909 96.2091 56 94 56C91.7909 56 90 57.7909 90 60C90 62.2091 91.7909 64 94 64Z" fill="#B39DDB"/>
<path d="M58 64C60.2091 64 62 62.2091 62 60C62 57.7909 60.2091 56 58 56C55.7909 56 54 57.7909 54 60C54 62.2091 55.7909 64 58 64Z" fill="#B39DDB"/>
<path d="M76 96L66 84V72H86V84L76 96Z" fill="#B39DDB"/>
<path d="M94 48C94 32.8 58 38 58 48C58 50.2 58 59.8 58 62C58 72 66 80 76 80C86 80 94 72 94 62C94 59.8 94 50.2 94 48Z" fill="#D1C4E9"/>
<path d="M84 62C85.1046 62 86 61.1046 86 60C86 58.8954 85.1046 58 84 58C82.8954 58 82 58.8954 82 60C82 61.1046 82.8954 62 84 62Z" fill="#673AB7"/>
<path d="M68 62C69.1046 62 70 61.1046 70 60C70 58.8954 69.1046 58 68 58C66.8954 58 66 58.8954 66 60C66 61.1046 66.8954 62 68 62Z" fill="#673AB7"/>
<path d="M76 30C63.8 30 56 39.8 56 52C56 53.6 56 56.6 56 56.6L60 60V50L84 42L92 50V60L96 56.6C96 56.6 96 53.6 96 52C96 44 94 36 84 34L82 30H76Z" fill="#673AB7"/>
<path d="M86 84C86 84 82 86 76 86C70 86 66 84 66 84C66 84 44 88 44 110H108C108 88 86 84 86 84Z" fill="#673AB7"/>
</g>
</g>
<defs>
<clipPath id="clip0">
<rect width="160" height="160" fill="white"/>
</clipPath>
<clipPath id="clip1">
<rect width="96" height="96" fill="white" transform="translate(32 22)"/>
</clipPath>
</defs>
</svg>
