<svg width="160" height="160" viewBox="0 0 160 160" fill="none" xmlns="http://www.w3.org/2000/svg">
<g clip-path="url(#clip0)">
<rect width="160" height="160" fill="#0A0C0E"/>
<path d="M45.8123 140.72C45.8123 142.11 45.3373 143.205 44.3873 144.005C43.4473 144.795 42.0923 145.235 40.3223 145.325V146.465H38.0873V145.31C36.3073 145.21 34.9423 144.765 33.9923 143.975C33.0523 143.175 32.5823 142.09 32.5823 140.72C32.5823 139.34 33.0523 138.26 33.9923 137.48C34.9423 136.69 36.3073 136.24 38.0873 136.13V135.05H40.3223V136.115C42.0923 136.215 43.4473 136.665 44.3873 137.465C45.3373 138.265 45.8123 139.35 45.8123 140.72ZM40.3223 143.42C41.3823 143.32 42.1723 143.05 42.6923 142.61C43.2123 142.16 43.4723 141.525 43.4723 140.705C43.4723 139.105 42.4223 138.215 40.3223 138.035V143.42ZM34.9373 140.72C34.9373 142.3 35.9873 143.2 38.0873 143.42V138.035C37.0173 138.135 36.2223 138.405 35.7023 138.845C35.1923 139.275 34.9373 139.9 34.9373 140.72ZM50.5852 137.81C51.8352 137.81 52.7952 138.11 53.4652 138.71C54.1352 139.3 54.4702 140.195 54.4702 141.395V146H52.2802V144.995C51.8402 145.745 51.0202 146.12 49.8202 146.12C49.2002 146.12 48.6602 146.015 48.2002 145.805C47.7502 145.595 47.4052 145.305 47.1652 144.935C46.9252 144.565 46.8052 144.145 46.8052 143.675C46.8052 142.925 47.0852 142.335 47.6452 141.905C48.2152 141.475 49.0902 141.26 50.2702 141.26H52.1302C52.1302 140.75 51.9752 140.36 51.6652 140.09C51.3552 139.81 50.8902 139.67 50.2702 139.67C49.8402 139.67 49.4152 139.74 48.9952 139.88C48.5852 140.01 48.2352 140.19 47.9452 140.42L47.1052 138.785C47.5452 138.475 48.0702 138.235 48.6802 138.065C49.3002 137.895 49.9352 137.81 50.5852 137.81ZM50.4052 144.545C50.8052 144.545 51.1602 144.455 51.4702 144.275C51.7802 144.085 52.0002 143.81 52.1302 143.45V142.625H50.5252C49.5652 142.625 49.0852 142.94 49.0852 143.57C49.0852 143.87 49.2002 144.11 49.4302 144.29C49.6702 144.46 49.9952 144.545 50.4052 144.545ZM56.5029 137.93H58.8279V141.08H62.3379V137.93H64.6779V146H62.3379V142.985H58.8279V146H56.5029V137.93ZM73.698 139.85H70.968V146H68.643V139.85H65.913V137.93H73.698V139.85ZM78.0803 137.81C79.3303 137.81 80.2903 138.11 80.9603 138.71C81.6303 139.3 81.9653 140.195 81.9653 141.395V146H79.7753V144.995C79.3353 145.745 78.5153 146.12 77.3153 146.12C76.6953 146.12 76.1553 146.015 75.6953 145.805C75.2453 145.595 74.9003 145.305 74.6603 144.935C74.4203 144.565 74.3003 144.145 74.3003 143.675C74.3003 142.925 74.5803 142.335 75.1403 141.905C75.7103 141.475 76.5853 141.26 77.7653 141.26H79.6253C79.6253 140.75 79.4703 140.36 79.1603 140.09C78.8503 139.81 78.3853 139.67 77.7653 139.67C77.3353 139.67 76.9103 139.74 76.4903 139.88C76.0803 140.01 75.7303 140.19 75.4403 140.42L74.6003 138.785C75.0403 138.475 75.5653 138.235 76.1753 138.065C76.7953 137.895 77.4303 137.81 78.0803 137.81ZM77.9003 144.545C78.3003 144.545 78.6553 144.455 78.9653 144.275C79.2753 144.085 79.4953 143.81 79.6253 143.45V142.625H78.0203C77.0603 142.625 76.5803 142.94 76.5803 143.57C76.5803 143.87 76.6953 144.11 76.9253 144.29C77.1653 144.46 77.4903 144.545 77.9003 144.545ZM87.838 146.12C86.978 146.12 86.203 145.945 85.513 145.595C84.833 145.235 84.298 144.74 83.908 144.11C83.528 143.48 83.338 142.765 83.338 141.965C83.338 141.165 83.528 140.45 83.908 139.82C84.298 139.19 84.833 138.7 85.513 138.35C86.203 137.99 86.978 137.81 87.838 137.81C88.688 137.81 89.428 137.99 90.058 138.35C90.698 138.7 91.163 139.205 91.453 139.865L89.638 140.84C89.218 140.1 88.613 139.73 87.823 139.73C87.213 139.73 86.708 139.93 86.308 140.33C85.908 140.73 85.708 141.275 85.708 141.965C85.708 142.655 85.908 143.2 86.308 143.6C86.708 144 87.213 144.2 87.823 144.2C88.623 144.2 89.228 143.83 89.638 143.09L91.453 144.08C91.163 144.72 90.698 145.22 90.058 145.58C89.428 145.94 88.688 146.12 87.838 146.12ZM99.6257 139.85H96.8957V146H94.5707V139.85H91.8407V137.93H99.6257V139.85ZM100.873 137.93H103.198V142.73L107.128 137.93H109.273V146H106.948V141.2L103.033 146H100.873V137.93ZM115.077 142.94H113.862V146H111.522V137.93H113.862V141.065H115.122L117.312 137.93H119.802L116.982 141.8L119.997 146H117.237L115.077 142.94ZM124.135 137.81C125.385 137.81 126.345 138.11 127.015 138.71C127.685 139.3 128.02 140.195 128.02 141.395V146H125.83V144.995C125.39 145.745 124.57 146.12 123.37 146.12C122.75 146.12 122.21 146.015 121.75 145.805C121.3 145.595 120.955 145.305 120.715 144.935C120.475 144.565 120.355 144.145 120.355 143.675C120.355 142.925 120.635 142.335 121.195 141.905C121.765 141.475 122.64 141.26 123.82 141.26H125.68C125.68 140.75 125.525 140.36 125.215 140.09C124.905 139.81 124.44 139.67 123.82 139.67C123.39 139.67 122.965 139.74 122.545 139.88C122.135 140.01 121.785 140.19 121.495 140.42L120.655 138.785C121.095 138.475 121.62 138.235 122.23 138.065C122.85 137.895 123.485 137.81 124.135 137.81ZM123.955 144.545C124.355 144.545 124.71 144.455 125.02 144.275C125.33 144.085 125.55 143.81 125.68 143.45V142.625H124.075C123.115 142.625 122.635 142.94 122.635 143.57C122.635 143.87 122.75 144.11 122.98 144.29C123.22 144.46 123.545 144.545 123.955 144.545Z" fill="white"/>
<g clip-path="url(#clip1)">
<path d="M115.4 75.2C115.4 75.2 98.2 74.2 87 63C75.8 51.8 74.8 34.6 74.8 34.6C74.8 34.6 91.2 28.4 106.2 43.6C121.2 58.8 115.4 75.2 115.4 75.2Z" fill="#00BCD4"/>
<path d="M116.6 107.8C110.6 113.8 90.6 100.6 70 79.9999C49.4 59.3999 36.2 39.3999 42.2 33.3999C48.2 27.3999 76 26.9999 99.4 50.5999C122.8 74.1999 122.6 101.8 116.6 107.8Z" fill="#607D8B"/>
<path d="M66.7353 83.1965C87.2767 103.738 109.501 114.818 116.374 107.945C123.247 101.072 112.167 78.848 91.6252 58.3066C71.0838 37.7652 48.86 26.685 41.9868 33.5581C35.1136 40.4313 46.1939 62.6552 66.7353 83.1965Z" fill="#78909C"/>
<path d="M72.0406 78.0567C83.2095 89.2256 95.3028 95.2406 99.0518 91.4916C102.801 87.7426 96.7858 75.6493 85.6169 64.4804C74.448 53.3115 62.3547 47.2965 58.6057 51.0455C54.8567 54.7945 60.8717 66.8878 72.0406 78.0567Z" fill="#26C6DA"/>
<path d="M87.1019 62.9283C88.3515 64.1779 89.6812 64.8744 90.0717 64.4839C90.4622 64.0934 89.7657 62.7637 88.5161 61.5141C87.2664 60.2644 85.9368 59.5679 85.5463 59.9584C85.1557 60.349 85.8522 61.6786 87.1019 62.9283Z" fill="#26C6DA"/>
<path d="M68.507 81.5401C69.7566 82.7897 71.0863 83.4862 71.4768 83.0957C71.8673 82.7052 71.1708 81.3755 69.9212 80.1259C68.6715 78.8762 67.3419 78.1797 66.9513 78.5703C66.5608 78.9608 67.2573 80.2904 68.507 81.5401Z" fill="#26C6DA"/>
<path d="M107.273 101.747C108.523 102.996 109.852 103.693 110.243 103.302C110.634 102.912 109.937 101.582 108.687 100.332C107.438 99.0828 106.108 98.3863 105.718 98.7768C105.327 99.1673 106.024 100.497 107.273 101.747Z" fill="#26C6DA"/>
<path d="M49.8866 44.342C51.1363 45.5916 52.4659 46.2881 52.8564 45.8976C53.2469 45.5071 52.5505 44.1774 51.3008 42.9278C50.0511 41.6781 48.7215 40.9816 48.331 41.3721C47.9405 41.7627 48.6369 43.0923 49.8866 44.342Z" fill="#26C6DA"/>
<path d="M66.8698 45.8844C68.1194 47.1341 69.4491 47.8306 69.8396 47.4401C70.2301 47.0495 69.5336 45.7199 68.284 44.4702C67.0343 43.2206 65.7047 42.5241 65.3141 42.9146C64.9236 43.3051 65.6201 44.6348 66.8698 45.8844Z" fill="#26C6DA"/>
<path d="M107.337 86.1733C108.586 87.4229 109.916 88.1194 110.307 87.7289C110.697 87.3384 110.001 86.0087 108.751 84.7591C107.501 83.5094 106.172 82.8129 105.781 83.2034C105.391 83.594 106.087 84.9236 107.337 86.1733Z" fill="#26C6DA"/>
<path d="M52.8529 59.8432C54.1026 61.0928 55.4322 61.7893 55.8227 61.3988C56.2133 61.0083 55.5168 59.6786 54.2671 58.429C53.0174 57.1793 51.6878 56.4828 51.2973 56.8734C50.9068 57.2639 51.6032 58.5935 52.8529 59.8432Z" fill="#26C6DA"/>
<path d="M93.32 100.132C94.5696 101.382 95.8993 102.078 96.2898 101.688C96.6803 101.297 95.9838 99.9675 94.7342 98.7178C93.4845 97.4681 92.1549 96.7717 91.7643 97.1622C91.3738 97.5527 92.0703 98.8823 93.32 100.132Z" fill="#26C6DA"/>
<path d="M77.3107 72.7294C84.1058 79.5245 91.4504 83.1968 93.7154 80.9318C95.9805 78.6668 92.3081 71.3221 85.5131 64.5271C78.718 57.732 71.3734 54.0597 69.1084 56.3247C66.8433 58.5897 70.5157 65.9344 77.3107 72.7294Z" fill="#B2EBF2"/>
</g>
</g>
<defs>
<clipPath id="clip0">
<rect width="160" height="160" fill="white"/>
</clipPath>
<clipPath id="clip1">
<rect width="96" height="96" fill="white" transform="translate(32 22)"/>
</clipPath>
</defs>
</svg>
