<svg width="160" height="160" viewBox="0 0 160 160" fill="none" xmlns="http://www.w3.org/2000/svg">
<g clip-path="url(#clip0)">
<rect width="160" height="160" fill="#0A0C0E"/>
<path d="M10.6356 141.77H8.95563V146H6.54063V135.5H8.95563V139.745H10.6956L13.4556 135.5H16.0206L12.5856 140.57L16.1256 146H13.3656L10.6356 141.77ZM20.7468 146.12C19.8968 146.12 19.1318 145.945 18.4518 145.595C17.7818 145.235 17.2568 144.74 16.8768 144.11C16.4968 143.48 16.3068 142.765 16.3068 141.965C16.3068 141.165 16.4968 140.45 16.8768 139.82C17.2568 139.19 17.7818 138.7 18.4518 138.35C19.1318 137.99 19.8968 137.81 20.7468 137.81C21.5968 137.81 22.3568 137.99 23.0268 138.35C23.6968 138.7 24.2218 139.19 24.6018 139.82C24.9818 140.45 25.1718 141.165 25.1718 141.965C25.1718 142.765 24.9818 143.48 24.6018 144.11C24.2218 144.74 23.6968 145.235 23.0268 145.595C22.3568 145.945 21.5968 146.12 20.7468 146.12ZM20.7468 144.2C21.3468 144.2 21.8368 144 22.2168 143.6C22.6068 143.19 22.8018 142.645 22.8018 141.965C22.8018 141.285 22.6068 140.745 22.2168 140.345C21.8368 139.935 21.3468 139.73 20.7468 139.73C20.1468 139.73 19.6518 139.935 19.2618 140.345C18.8718 140.745 18.6768 141.285 18.6768 141.965C18.6768 142.645 18.8718 143.19 19.2618 143.6C19.6518 144 20.1468 144.2 20.7468 144.2ZM31.5363 137.81C32.2863 137.81 32.9663 137.985 33.5762 138.335C34.1963 138.675 34.6813 139.16 35.0312 139.79C35.3813 140.41 35.5563 141.135 35.5563 141.965C35.5563 142.795 35.3813 143.525 35.0312 144.155C34.6813 144.775 34.1963 145.26 33.5762 145.61C32.9663 145.95 32.2863 146.12 31.5363 146.12C30.5063 146.12 29.6963 145.795 29.1063 145.145V148.91H26.7663V137.93H29.0013V138.86C29.5813 138.16 30.4263 137.81 31.5363 137.81ZM31.1313 144.2C31.7313 144.2 32.2213 144 32.6013 143.6C32.9913 143.19 33.1863 142.645 33.1863 141.965C33.1863 141.285 32.9913 140.745 32.6013 140.345C32.2213 139.935 31.7313 139.73 31.1313 139.73C30.5313 139.73 30.0363 139.935 29.6463 140.345C29.2663 140.745 29.0763 141.285 29.0763 141.965C29.0763 142.645 29.2663 143.19 29.6463 143.6C30.0363 144 30.5313 144.2 31.1313 144.2ZM40.9763 146.12C40.1263 146.12 39.3613 145.945 38.6813 145.595C38.0113 145.235 37.4863 144.74 37.1063 144.11C36.7263 143.48 36.5363 142.765 36.5363 141.965C36.5363 141.165 36.7263 140.45 37.1063 139.82C37.4863 139.19 38.0113 138.7 38.6813 138.35C39.3613 137.99 40.1263 137.81 40.9763 137.81C41.8263 137.81 42.5863 137.99 43.2563 138.35C43.9263 138.7 44.4513 139.19 44.8313 139.82C45.2113 140.45 45.4013 141.165 45.4013 141.965C45.4013 142.765 45.2113 143.48 44.8313 144.11C44.4513 144.74 43.9263 145.235 43.2563 145.595C42.5863 145.945 41.8263 146.12 40.9763 146.12ZM40.9763 144.2C41.5763 144.2 42.0663 144 42.4463 143.6C42.8363 143.19 43.0313 142.645 43.0313 141.965C43.0313 141.285 42.8363 140.745 42.4463 140.345C42.0663 139.935 41.5763 139.73 40.9763 139.73C40.3763 139.73 39.8813 139.935 39.4913 140.345C39.1013 140.745 38.9063 141.285 38.9063 141.965C38.9063 142.645 39.1013 143.19 39.4913 143.6C39.8813 144 40.3763 144.2 40.9763 144.2ZM53.4978 139.85H50.7678V146H48.4428V139.85H45.7128V137.93H53.4978V139.85ZM58.3001 142.94H57.0851V146H54.7451V137.93H57.0851V141.065H58.3451L60.5351 137.93H63.0251L60.2051 141.8L63.2201 146H60.4601L58.3001 142.94ZM67.9001 146.12C67.0501 146.12 66.2851 145.945 65.6051 145.595C64.9351 145.235 64.4101 144.74 64.0301 144.11C63.6501 143.48 63.4601 142.765 63.4601 141.965C63.4601 141.165 63.6501 140.45 64.0301 139.82C64.4101 139.19 64.9351 138.7 65.6051 138.35C66.2851 137.99 67.0501 137.81 67.9001 137.81C68.7501 137.81 69.5101 137.99 70.1801 138.35C70.8501 138.7 71.3751 139.19 71.7551 139.82C72.1351 140.45 72.3251 141.165 72.3251 141.965C72.3251 142.765 72.1351 143.48 71.7551 144.11C71.3751 144.74 70.8501 145.235 70.1801 145.595C69.5101 145.945 68.7501 146.12 67.9001 146.12ZM67.9001 144.2C68.5001 144.2 68.9901 144 69.3701 143.6C69.7601 143.19 69.9551 142.645 69.9551 141.965C69.9551 141.285 69.7601 140.745 69.3701 140.345C68.9901 139.935 68.5001 139.73 67.9001 139.73C67.3001 139.73 66.8051 139.935 66.4151 140.345C66.0251 140.745 65.8301 141.285 65.8301 141.965C65.8301 142.645 66.0251 143.19 66.4151 143.6C66.8051 144 67.3001 144.2 67.9001 144.2ZM81.8096 146V141.17L79.3946 145.22H78.4046L76.0496 141.155V146H73.9346V137.93H76.3796L78.9596 142.595L81.7046 137.93H83.8946L83.9246 146H81.8096ZM94.011 141.995C94.011 142.025 93.996 142.235 93.966 142.625H87.861C87.971 143.125 88.231 143.52 88.641 143.81C89.051 144.1 89.561 144.245 90.171 144.245C90.591 144.245 90.961 144.185 91.281 144.065C91.611 143.935 91.916 143.735 92.196 143.465L93.441 144.815C92.681 145.685 91.571 146.12 90.111 146.12C89.201 146.12 88.396 145.945 87.696 145.595C86.996 145.235 86.456 144.74 86.076 144.11C85.696 143.48 85.506 142.765 85.506 141.965C85.506 141.175 85.691 140.465 86.061 139.835C86.441 139.195 86.956 138.7 87.606 138.35C88.266 137.99 89.001 137.81 89.811 137.81C90.601 137.81 91.316 137.98 91.956 138.32C92.596 138.66 93.096 139.15 93.456 139.79C93.826 140.42 94.011 141.155 94.011 141.995ZM89.826 139.58C89.296 139.58 88.851 139.73 88.491 140.03C88.131 140.33 87.911 140.74 87.831 141.26H91.806C91.726 140.75 91.506 140.345 91.146 140.045C90.786 139.735 90.346 139.58 89.826 139.58ZM102.306 139.85H99.5764V146H97.2514V139.85H94.5214V137.93H102.306V139.85ZM108.309 137.81C109.059 137.81 109.739 137.985 110.349 138.335C110.969 138.675 111.454 139.16 111.804 139.79C112.154 140.41 112.329 141.135 112.329 141.965C112.329 142.795 112.154 143.525 111.804 144.155C111.454 144.775 110.969 145.26 110.349 145.61C109.739 145.95 109.059 146.12 108.309 146.12C107.279 146.12 106.469 145.795 105.879 145.145V148.91H103.539V137.93H105.774V138.86C106.354 138.16 107.199 137.81 108.309 137.81ZM107.904 144.2C108.504 144.2 108.994 144 109.374 143.6C109.764 143.19 109.959 142.645 109.959 141.965C109.959 141.285 109.764 140.745 109.374 140.345C108.994 139.935 108.504 139.73 107.904 139.73C107.304 139.73 106.809 139.935 106.419 140.345C106.039 140.745 105.849 141.285 105.849 141.965C105.849 142.645 106.039 143.19 106.419 143.6C106.809 144 107.304 144.2 107.904 144.2ZM116.972 137.81C118.222 137.81 119.182 138.11 119.852 138.71C120.522 139.3 120.857 140.195 120.857 141.395V146H118.667V144.995C118.227 145.745 117.407 146.12 116.207 146.12C115.587 146.12 115.047 146.015 114.587 145.805C114.137 145.595 113.792 145.305 113.552 144.935C113.312 144.565 113.192 144.145 113.192 143.675C113.192 142.925 113.472 142.335 114.032 141.905C114.602 141.475 115.477 141.26 116.657 141.26H118.517C118.517 140.75 118.362 140.36 118.052 140.09C117.742 139.81 117.277 139.67 116.657 139.67C116.227 139.67 115.802 139.74 115.382 139.88C114.972 140.01 114.622 140.19 114.332 140.42L113.492 138.785C113.932 138.475 114.457 138.235 115.067 138.065C115.687 137.895 116.322 137.81 116.972 137.81ZM116.792 144.545C117.192 144.545 117.547 144.455 117.857 144.275C118.167 144.085 118.387 143.81 118.517 143.45V142.625H116.912C115.952 142.625 115.472 142.94 115.472 143.57C115.472 143.87 115.587 144.11 115.817 144.29C116.057 144.46 116.382 144.545 116.792 144.545ZM130.885 142.94H129.76V146H127.45V142.94H126.325L124.615 146H121.855L124.39 141.83L122.035 137.93H124.51L126.295 141.065H127.45V137.93H129.76V141.065H130.9L132.7 137.93H135.175L132.82 141.83L135.37 146H132.595L130.885 142.94ZM140.141 142.94H138.926V146H136.586V137.93H138.926V141.065H140.186L142.376 137.93H144.866L142.046 141.8L145.061 146H142.301L140.141 142.94ZM146.21 137.93H148.535V142.73L152.465 137.93H154.61V146H152.285V141.2L148.37 146H146.21V137.93Z" fill="white"/>
<path d="M122 38H38V102H122V38ZM76 98V90H84V98H76ZM92 98V90H100V98H92ZM108 98V90H116V98H108ZM60 98V90H68V98H60ZM44 98V90H52V98H44ZM76 50V42H84V50H76ZM92 50V42H100V50H92ZM108 50V42H116V50H108ZM60 50V42H68V50H60ZM44 50V42H52V50H44Z" fill="#3F51B5"/>
<path d="M52.4 68.4L53.4 59.6H63V62.4H56.2L55.8 66C56 66 57 65.4 58.4 65.4C63.6 65.4 63.6 70.2 63.6 71.2C63.6 74.6 61.2 77 57.8 77C53.8 77 52 74 52 72H55.4C55.4 73 56.2 74.2 57.8 74.2C60.2 74.2 60.2 71.4 60.2 71C60.2 68 58 68 57.4 68C55.8 68 55.2 68.8 55.2 69L52.4 68.4Z" fill="#C5CAE9"/>
<path d="M73 64L73.2 65.4001C73.6 64.8001 74.8 63.8 76.8 63.8C79 63.8 79.8 65 80.2 65.8C80.6 65.2 81.6 63.8 84 63.8C87.4 63.8 88 66.4 88 68.6V76.8H84.6V68.6C84.6 67.8 84.4 66.6 82.6 66.6C81.2 66.6 80.6 67.6 80.4 68V76.8H77V68.8C77 67.4 76.6 66.6 75 66.6C73.8 66.6 73.2 67.4 73 67.8V76.8H69.6V64H73Z" fill="#C5CAE9"/>
<path d="M90.6 60.8C90.6 60.2 90.8 59 92.6 59C92.8 59 94.6 59.2 94.6 60.8C94.6 61.4 94.2 62.6 92.6 62.6C91 62.6 90.6 61.2 90.6 60.8ZM94.4 76.8H91V64H94.4V76.8Z" fill="#C5CAE9"/>
<path d="M100.2 64L100.4 65.4C100.8 64.8 102 63.6 104 63.6C107.8 63.6 108 67 108 68.4V76.4H104.6V68.2C104.6 67.8 104.6 66.2 102.6 66.2C101.2 66.2 100.6 67 100.4 67.4V76.4H97V64H100.2Z" fill="#C5CAE9"/>
</g>
<defs>
<clipPath id="clip0">
<rect width="160" height="160" fill="white"/>
</clipPath>
</defs>
</svg>
