<svg width="160" height="160" viewBox="0 0 160 160" fill="none" xmlns="http://www.w3.org/2000/svg">
<rect width="160" height="160" fill="#0A0C0E"/>
<path d="M35.2495 146.18C34.1795 146.18 33.2095 145.95 32.3395 145.49C31.4795 145.02 30.7995 144.375 30.2995 143.555C29.8095 142.725 29.5645 141.79 29.5645 140.75C29.5645 139.71 29.8095 138.78 30.2995 137.96C30.7995 137.13 31.4795 136.485 32.3395 136.025C33.2095 135.555 34.1845 135.32 35.2645 135.32C36.1745 135.32 36.9945 135.48 37.7245 135.8C38.4645 136.12 39.0845 136.58 39.5845 137.18L38.0245 138.62C37.3145 137.8 36.4345 137.39 35.3845 137.39C34.7345 137.39 34.1545 137.535 33.6445 137.825C33.1345 138.105 32.7345 138.5 32.4445 139.01C32.1645 139.52 32.0245 140.1 32.0245 140.75C32.0245 141.4 32.1645 141.98 32.4445 142.49C32.7345 143 33.1345 143.4 33.6445 143.69C34.1545 143.97 34.7345 144.11 35.3845 144.11C36.4345 144.11 37.3145 143.695 38.0245 142.865L39.5845 144.305C39.0845 144.915 38.4645 145.38 37.7245 145.7C36.9845 146.02 36.1595 146.18 35.2495 146.18ZM49.0133 137.93V146H46.6733V139.85H43.3133V146H40.9883V137.93H49.0133ZM55.0368 146.12C54.1868 146.12 53.4218 145.945 52.7418 145.595C52.0718 145.235 51.5468 144.74 51.1668 144.11C50.7868 143.48 50.5968 142.765 50.5968 141.965C50.5968 141.165 50.7868 140.45 51.1668 139.82C51.5468 139.19 52.0718 138.7 52.7418 138.35C53.4218 137.99 54.1868 137.81 55.0368 137.81C55.8868 137.81 56.6468 137.99 57.3168 138.35C57.9868 138.7 58.5118 139.19 58.8918 139.82C59.2718 140.45 59.4618 141.165 59.4618 141.965C59.4618 142.765 59.2718 143.48 58.8918 144.11C58.5118 144.74 57.9868 145.235 57.3168 145.595C56.6468 145.945 55.8868 146.12 55.0368 146.12ZM55.0368 144.2C55.6368 144.2 56.1268 144 56.5068 143.6C56.8968 143.19 57.0918 142.645 57.0918 141.965C57.0918 141.285 56.8968 140.745 56.5068 140.345C56.1268 139.935 55.6368 139.73 55.0368 139.73C54.4368 139.73 53.9418 139.935 53.5518 140.345C53.1618 140.745 52.9668 141.285 52.9668 141.965C52.9668 142.645 53.1618 143.19 53.5518 143.6C53.9418 144 54.4368 144.2 55.0368 144.2ZM65.8263 137.81C66.5763 137.81 67.2563 137.985 67.8663 138.335C68.4863 138.675 68.9713 139.16 69.3213 139.79C69.6713 140.41 69.8463 141.135 69.8463 141.965C69.8463 142.795 69.6713 143.525 69.3213 144.155C68.9713 144.775 68.4863 145.26 67.8663 145.61C67.2563 145.95 66.5763 146.12 65.8263 146.12C64.7963 146.12 63.9863 145.795 63.3963 145.145V148.91H61.0563V137.93H63.2913V138.86C63.8713 138.16 64.7163 137.81 65.8263 137.81ZM65.4213 144.2C66.0213 144.2 66.5113 144 66.8913 143.6C67.2813 143.19 67.4763 142.645 67.4763 141.965C67.4763 141.285 67.2813 140.745 66.8913 140.345C66.5113 139.935 66.0213 139.73 65.4213 139.73C64.8213 139.73 64.3263 139.935 63.9363 140.345C63.5563 140.745 63.3663 141.285 63.3663 141.965C63.3663 142.645 63.5563 143.19 63.9363 143.6C64.3263 144 64.8213 144.2 65.4213 144.2ZM77.9734 139.85H75.2434V146H72.9184V139.85H70.1884V137.93H77.9734V139.85ZM79.2207 137.93H81.5457V142.73L85.4757 137.93H87.6207V146H85.2957V141.2L81.3807 146H79.2207V137.93ZM96.0351 141.785C96.9851 142.105 97.4601 142.745 97.4601 143.705C97.4601 144.435 97.1851 145 96.6351 145.4C96.0851 145.8 95.2651 146 94.1751 146H89.8701V137.93H93.9951C95.0051 137.93 95.7951 138.115 96.3651 138.485C96.9351 138.845 97.2201 139.355 97.2201 140.015C97.2201 140.415 97.1151 140.77 96.9051 141.08C96.7051 141.38 96.4151 141.615 96.0351 141.785ZM92.0151 141.245H93.7851C94.6051 141.245 95.0151 140.955 95.0151 140.375C95.0151 139.805 94.6051 139.52 93.7851 139.52H92.0151V141.245ZM93.9801 144.41C94.8401 144.41 95.2701 144.115 95.2701 143.525C95.2701 143.215 95.1701 142.99 94.9701 142.85C94.7701 142.7 94.4551 142.625 94.0251 142.625H92.0151V144.41H93.9801ZM99.2012 137.93H101.526V141.08H105.036V137.93H107.376V146H105.036V142.985H101.526V146H99.2012V137.93ZM113.861 140.51C114.911 140.52 115.706 140.755 116.246 141.215C116.786 141.675 117.056 142.335 117.056 143.195C117.056 144.095 116.751 144.79 116.141 145.28C115.531 145.77 114.666 146.015 113.546 146.015L109.616 146V137.93H111.941V140.51H113.861ZM117.926 137.93H120.251V146H117.926V137.93ZM113.336 144.35C113.786 144.36 114.131 144.265 114.371 144.065C114.611 143.865 114.731 143.565 114.731 143.165C114.731 142.775 114.611 142.49 114.371 142.31C114.141 142.13 113.796 142.035 113.336 142.025L111.941 142.01V144.35H113.336ZM130.352 141.995C130.352 142.025 130.337 142.235 130.307 142.625H124.202C124.312 143.125 124.572 143.52 124.982 143.81C125.392 144.1 125.902 144.245 126.512 144.245C126.932 144.245 127.302 144.185 127.622 144.065C127.952 143.935 128.257 143.735 128.537 143.465L129.782 144.815C129.022 145.685 127.912 146.12 126.452 146.12C125.542 146.12 124.737 145.945 124.037 145.595C123.337 145.235 122.797 144.74 122.417 144.11C122.037 143.48 121.847 142.765 121.847 141.965C121.847 141.175 122.032 140.465 122.402 139.835C122.782 139.195 123.297 138.7 123.947 138.35C124.607 137.99 125.342 137.81 126.152 137.81C126.942 137.81 127.657 137.98 128.297 138.32C128.937 138.66 129.437 139.15 129.797 139.79C130.167 140.42 130.352 141.155 130.352 141.995ZM126.167 139.58C125.637 139.58 125.192 139.73 124.832 140.03C124.472 140.33 124.252 140.74 124.172 141.26H128.147C128.067 140.75 127.847 140.345 127.487 140.045C127.127 139.735 126.687 139.58 126.167 139.58Z" fill="white"/>
<path d="M88 50C93.5228 50 98 45.5228 98 40C98 34.4772 93.5228 30 88 30C82.4772 30 78 34.4772 78 40C78 45.5228 82.4772 50 88 50Z" fill="#FF9800"/>
<path d="M90 76.6L71.6 68.4C69.6 67.4 68.6 70.4 67.6 72.4C66.6 74.4 59.4 86.8 60 89C60.6 90.8 62.2 91.8 63.8 91.8C64.2 91.8 64.6 91.8 65 91.6L89.6 84C91.2 83.6 92.4 82 92.4 80.4C92.4 78.8 91.4 77.2 90 76.6Z" fill="#00796B"/>
<path d="M85.6 52.4L81.2 50.4C78.6 49.2 75.4 50.4 74.2 53L50.4 104.2C49.4 106.2 50.4 108.6 52.4 109.6C53 109.8 53.6 110 54.2 110C55.8 110 57.2 109.2 57.8 107.8C57.8 107.8 77 81.2 78.6 78C80.2 74.8 88.4 59.4 88.4 59.4C89.4 56.8 88.4 53.6 85.6 52.4Z" fill="#009688"/>
<path d="M113 53.4C111.6 51.8 109 51.4 107.4 52.8L97.4 61.2L84.6 54.2C82.4 53 79.4 53.4 78 56C76.4 58.6 77.2 61.8 79.6 62.8L96.2 69.6C96.8 69.8 97.4 70 98 70C99 70 99.8 69.6 100.6 69L112.6 59C114.2 57.6 114.4 55.2 113 53.4Z" fill="#FF9800"/>
<path d="M55.4 68.2L62.2 58L71.4 59.2L74.4 53C75.2 51.2 76.8 50.2 78.6 50C78.4 50 78.2 50 78.2 50H60.2C58.8 50 57.6 50.6 56.8 51.8L48.8 63.8C47.6 65.6 48 68.2 50 69.4C50.4 69.8 51.2 70 52 70C53.2 70 54.6 69.4 55.4 68.2Z" fill="#FF9800"/>
</svg>
