<svg width="160" height="160" viewBox="0 0 160 160" fill="none" xmlns="http://www.w3.org/2000/svg">
<rect width="160" height="160" fill="#0A0C0E"/>
<path d="M49.6479 137.48H46.2879V146H43.8879V137.48H40.5429V135.5H49.6479V137.48ZM55.5729 137.81C56.3229 137.81 57.0029 137.985 57.6129 138.335C58.2329 138.675 58.7179 139.16 59.0679 139.79C59.4179 140.41 59.5929 141.135 59.5929 141.965C59.5929 142.795 59.4179 143.525 59.0679 144.155C58.7179 144.775 58.2329 145.26 57.6129 145.61C57.0029 145.95 56.3229 146.12 55.5729 146.12C54.5429 146.12 53.7329 145.795 53.1429 145.145V148.91H50.8029V137.93H53.0379V138.86C53.6179 138.16 54.4629 137.81 55.5729 137.81ZM55.1679 144.2C55.7679 144.2 56.2579 144 56.6379 143.6C57.0279 143.19 57.2229 142.645 57.2229 141.965C57.2229 141.285 57.0279 140.745 56.6379 140.345C56.2579 139.935 55.7679 139.73 55.1679 139.73C54.5679 139.73 54.0729 139.935 53.6829 140.345C53.3029 140.745 53.1129 141.285 53.1129 141.965C53.1129 142.645 53.3029 143.19 53.6829 143.6C54.0729 144 54.5679 144.2 55.1679 144.2ZM61.2329 137.93H63.5579V142.73L67.4879 137.93H69.6329V146H67.3079V141.2L63.3929 146H61.2329V137.93ZM79.6223 137.93V146H77.2823V139.85H74.7323L74.6573 141.275C74.6173 142.335 74.5173 143.215 74.3573 143.915C74.1973 144.615 73.9373 145.165 73.5773 145.565C73.2173 145.965 72.7173 146.165 72.0773 146.165C71.7373 146.165 71.3323 146.105 70.8623 145.985L70.9823 144.065C71.1423 144.085 71.2573 144.095 71.3273 144.095C71.6773 144.095 71.9373 143.97 72.1073 143.72C72.2873 143.46 72.4073 143.135 72.4673 142.745C72.5273 142.345 72.5723 141.82 72.6023 141.17L72.7223 137.93H79.6223ZM89.6126 137.93V146H87.2726V139.85H84.7226L84.6476 141.275C84.6076 142.335 84.5076 143.215 84.3476 143.915C84.1876 144.615 83.9276 145.165 83.5676 145.565C83.2076 145.965 82.7076 146.165 82.0676 146.165C81.7276 146.165 81.3226 146.105 80.8526 145.985L80.9726 144.065C81.1326 144.085 81.2476 144.095 81.3176 144.095C81.6676 144.095 81.9276 143.97 82.0976 143.72C82.2776 143.46 82.3976 143.135 82.4576 142.745C82.5176 142.345 82.5626 141.82 82.5926 141.17L82.7126 137.93H89.6126ZM99.7078 141.995C99.7078 142.025 99.6928 142.235 99.6628 142.625H93.5578C93.6678 143.125 93.9278 143.52 94.3378 143.81C94.7478 144.1 95.2578 144.245 95.8678 144.245C96.2878 144.245 96.6578 144.185 96.9778 144.065C97.3078 143.935 97.6128 143.735 97.8928 143.465L99.1378 144.815C98.3778 145.685 97.2678 146.12 95.8078 146.12C94.8978 146.12 94.0928 145.945 93.3928 145.595C92.6928 145.235 92.1528 144.74 91.7728 144.11C91.3928 143.48 91.2028 142.765 91.2028 141.965C91.2028 141.175 91.3878 140.465 91.7578 139.835C92.1378 139.195 92.6528 138.7 93.3028 138.35C93.9628 137.99 94.6978 137.81 95.5078 137.81C96.2978 137.81 97.0128 137.98 97.6528 138.32C98.2928 138.66 98.7928 139.15 99.1528 139.79C99.5228 140.42 99.7078 141.155 99.7078 141.995ZM95.5228 139.58C94.9928 139.58 94.5478 139.73 94.1878 140.03C93.8278 140.33 93.6078 140.74 93.5278 141.26H97.5028C97.4228 140.75 97.2028 140.345 96.8428 140.045C96.4828 139.735 96.0428 139.58 95.5228 139.58ZM106.256 137.81C107.006 137.81 107.686 137.985 108.296 138.335C108.916 138.675 109.401 139.16 109.751 139.79C110.101 140.41 110.276 141.135 110.276 141.965C110.276 142.795 110.101 143.525 109.751 144.155C109.401 144.775 108.916 145.26 108.296 145.61C107.686 145.95 107.006 146.12 106.256 146.12C105.226 146.12 104.416 145.795 103.826 145.145V148.91H101.486V137.93H103.721V138.86C104.301 138.16 105.146 137.81 106.256 137.81ZM105.851 144.2C106.451 144.2 106.941 144 107.321 143.6C107.711 143.19 107.906 142.645 107.906 141.965C107.906 141.285 107.711 140.745 107.321 140.345C106.941 139.935 106.451 139.73 105.851 139.73C105.251 139.73 104.756 139.935 104.366 140.345C103.986 140.745 103.796 141.285 103.796 141.965C103.796 142.645 103.986 143.19 104.366 143.6C104.756 144 105.251 144.2 105.851 144.2ZM116.162 140.51C117.212 140.52 118.007 140.755 118.547 141.215C119.087 141.675 119.357 142.335 119.357 143.195C119.357 144.095 119.052 144.79 118.442 145.28C117.832 145.77 116.967 146.015 115.847 146.015L111.917 146V137.93H114.242V140.51H116.162ZM120.227 137.93H122.552V146H120.227V137.93ZM115.637 144.35C116.087 144.36 116.432 144.265 116.672 144.065C116.912 143.865 117.032 143.565 117.032 143.165C117.032 142.775 116.912 142.49 116.672 142.31C116.442 142.13 116.097 142.035 115.637 142.025L114.242 142.01V144.35H115.637Z" fill="white"/>
<path d="M88 108H72C67.6 108 64 104.4 64 100V88H96V100C96 104.4 92.4 108 88 108Z" fill="#B39DDB"/>
<path d="M114 62C114 78.6 98.8 88 80 88C61.2 88 46 78.6 46 62C46 45.4 61.2 28 80 28C98.8 28 114 45.4 114 62Z" fill="#D1C4E9"/>
<path d="M100 90H60C57.8 90 56 88.2 56 86V68H104V86C104 88.2 102.2 90 100 90Z" fill="#D1C4E9"/>
<path d="M88 98H72C69.8 98 68 96.2 68 94V82H92V94C92 96.2 90.2 98 88 98Z" fill="#D1C4E9"/>
<path d="M76 100H72V104H76V100Z" fill="#D1C4E9"/>
<path d="M88 100H84V104H88V100Z" fill="#D1C4E9"/>
<path d="M82 100H78V104H82V100Z" fill="#D1C4E9"/>
<path d="M80 78C78 78.4 75 83.4 75 86C75 87.2 76.2 88 77 88C78.6 88 79.6 86.4 80 85.4C80.4 86.6 81.2 88 83 88C84.2 88 85 87.2 85 86C85 83.4 82 78.4 80 78Z" fill="#504582"/>
<path d="M92 82C96.4183 82 100 78.4183 100 74C100 69.5817 96.4183 66 92 66C87.5817 66 84 69.5817 84 74C84 78.4183 87.5817 82 92 82Z" fill="#504582"/>
<path d="M68 82C72.4183 82 76 78.4183 76 74C76 69.5817 72.4183 66 68 66C63.5817 66 60 69.5817 60 74C60 78.4183 63.5817 82 68 82Z" fill="#504582"/>
<path d="M76 94H72V98H76V94Z" fill="#EDE7F6"/>
<path d="M88 94H84V98H88V94Z" fill="#EDE7F6"/>
<path d="M82 94H78V98H82V94Z" fill="#EDE7F6"/>
</svg>
