<svg width="160" height="160" viewBox="0 0 160 160" fill="none" xmlns="http://www.w3.org/2000/svg">
<rect width="160" height="160" fill="#0A0C0E"/>
<path d="M50.2236 140.525C50.8636 140.715 51.3536 141.025 51.6936 141.455C52.0336 141.885 52.2036 142.415 52.2036 143.045C52.2036 143.975 51.8486 144.7 51.1386 145.22C50.4386 145.74 49.4336 146 48.1236 146H42.9486V135.5H47.8386C49.0586 135.5 50.0086 135.735 50.6886 136.205C51.3686 136.675 51.7086 137.345 51.7086 138.215C51.7086 138.735 51.5786 139.195 51.3186 139.595C51.0586 139.985 50.6936 140.295 50.2236 140.525ZM45.3636 139.85H47.6286C48.1586 139.85 48.5586 139.745 48.8286 139.535C49.0986 139.315 49.2336 138.995 49.2336 138.575C49.2336 138.165 49.0936 137.85 48.8136 137.63C48.5436 137.41 48.1486 137.3 47.6286 137.3H45.3636V139.85ZM48.0336 144.2C49.1736 144.2 49.7436 143.75 49.7436 142.85C49.7436 141.98 49.1736 141.545 48.0336 141.545H45.3636V144.2H48.0336ZM61.7903 141.995C61.7903 142.025 61.7753 142.235 61.7453 142.625H55.6403C55.7503 143.125 56.0103 143.52 56.4203 143.81C56.8303 144.1 57.3403 144.245 57.9503 144.245C58.3703 144.245 58.7403 144.185 59.0603 144.065C59.3903 143.935 59.6953 143.735 59.9753 143.465L61.2203 144.815C60.4603 145.685 59.3503 146.12 57.8903 146.12C56.9803 146.12 56.1753 145.945 55.4753 145.595C54.7753 145.235 54.2353 144.74 53.8553 144.11C53.4753 143.48 53.2853 142.765 53.2853 141.965C53.2853 141.175 53.4703 140.465 53.8403 139.835C54.2203 139.195 54.7353 138.7 55.3853 138.35C56.0453 137.99 56.7803 137.81 57.5903 137.81C58.3803 137.81 59.0953 137.98 59.7353 138.32C60.3753 138.66 60.8753 139.15 61.2353 139.79C61.6053 140.42 61.7903 141.155 61.7903 141.995ZM57.6053 139.58C57.0753 139.58 56.6303 139.73 56.2703 140.03C55.9103 140.33 55.6903 140.74 55.6103 141.26H59.5853C59.5053 140.75 59.2853 140.345 58.9253 140.045C58.5653 139.735 58.1253 139.58 57.6053 139.58ZM67.424 146.12C66.564 146.12 65.789 145.945 65.099 145.595C64.419 145.235 63.884 144.74 63.494 144.11C63.114 143.48 62.924 142.765 62.924 141.965C62.924 141.165 63.114 140.45 63.494 139.82C63.884 139.19 64.419 138.7 65.099 138.35C65.789 137.99 66.564 137.81 67.424 137.81C68.274 137.81 69.014 137.99 69.644 138.35C70.284 138.7 70.749 139.205 71.039 139.865L69.224 140.84C68.804 140.1 68.199 139.73 67.409 139.73C66.799 139.73 66.294 139.93 65.894 140.33C65.494 140.73 65.294 141.275 65.294 141.965C65.294 142.655 65.494 143.2 65.894 143.6C66.294 144 66.799 144.2 67.409 144.2C68.209 144.2 68.814 143.83 69.224 143.09L71.039 144.08C70.749 144.72 70.284 145.22 69.644 145.58C69.014 145.94 68.274 146.12 67.424 146.12ZM79.2116 139.85H76.4816V146H74.1566V139.85H71.4266V137.93H79.2116V139.85ZM87.9671 141.995C87.9671 142.025 87.9521 142.235 87.9221 142.625H81.8171C81.9271 143.125 82.1871 143.52 82.5971 143.81C83.0071 144.1 83.5171 144.245 84.1271 144.245C84.5471 144.245 84.9171 144.185 85.2371 144.065C85.5671 143.935 85.8721 143.735 86.1521 143.465L87.3971 144.815C86.6371 145.685 85.5271 146.12 84.0671 146.12C83.1571 146.12 82.3521 145.945 81.6521 145.595C80.9521 145.235 80.4121 144.74 80.0321 144.11C79.6521 143.48 79.4621 142.765 79.4621 141.965C79.4621 141.175 79.6471 140.465 80.0171 139.835C80.3971 139.195 80.9121 138.7 81.5621 138.35C82.2221 137.99 82.9571 137.81 83.7671 137.81C84.5571 137.81 85.2721 137.98 85.9121 138.32C86.5521 138.66 87.0521 139.15 87.4121 139.79C87.7821 140.42 87.9671 141.155 87.9671 141.995ZM83.7821 139.58C83.2521 139.58 82.8071 139.73 82.4471 140.03C82.0871 140.33 81.8671 140.74 81.7871 141.26H85.7621C85.6821 140.75 85.4621 140.345 85.1021 140.045C84.7421 139.735 84.3021 139.58 83.7821 139.58ZM94.5157 137.81C95.2657 137.81 95.9457 137.985 96.5557 138.335C97.1757 138.675 97.6607 139.16 98.0107 139.79C98.3607 140.41 98.5357 141.135 98.5357 141.965C98.5357 142.795 98.3607 143.525 98.0107 144.155C97.6607 144.775 97.1757 145.26 96.5557 145.61C95.9457 145.95 95.2657 146.12 94.5157 146.12C93.4857 146.12 92.6757 145.795 92.0857 145.145V148.91H89.7457V137.93H91.9807V138.86C92.5607 138.16 93.4057 137.81 94.5157 137.81ZM94.1107 144.2C94.7107 144.2 95.2007 144 95.5807 143.6C95.9707 143.19 96.1657 142.645 96.1657 141.965C96.1657 141.285 95.9707 140.745 95.5807 140.345C95.2007 139.935 94.7107 139.73 94.1107 139.73C93.5107 139.73 93.0157 139.935 92.6257 140.345C92.2457 140.745 92.0557 141.285 92.0557 141.965C92.0557 142.645 92.2457 143.19 92.6257 143.6C93.0157 144 93.5107 144.2 94.1107 144.2ZM100.176 137.93H102.501V141.08H106.011V137.93H108.351V146H106.011V142.985H102.501V146H100.176V137.93ZM114.836 140.51C115.886 140.52 116.681 140.755 117.221 141.215C117.761 141.675 118.031 142.335 118.031 143.195C118.031 144.095 117.726 144.79 117.116 145.28C116.506 145.77 115.641 146.015 114.521 146.015L110.591 146V137.93H112.916V140.51H114.836ZM118.901 137.93H121.226V146H118.901V137.93ZM114.311 144.35C114.761 144.36 115.106 144.265 115.346 144.065C115.586 143.865 115.706 143.565 115.706 143.165C115.706 142.775 115.586 142.49 115.346 142.31C115.116 142.13 114.771 142.035 114.311 142.025L112.916 142.01V144.35H114.311Z" fill="white"/>
<path d="M102.6 41.2C99.4 40.8 100 43 98.8 46.6L96.8 55.2C96.2 57.2 95.4 58 92.8 57.8L82 56.6C78.8 56.2 75.8 58.6 75.6 61.8C75.2 65 77.6 68 80.8 68.2L93.4 69.6C99.4 70.2 104.4 67.8 105.4 58.8C105.4 58.8 106.6 49.4 106 45.6C105.4 42.4 105.2 41.4 102.6 41.2Z" fill="#7CB342"/>
<path d="M56.4 49.2C59.6 49 59 51 60.2 54.8L62.8 67.4C63.4 69.4 64.2 70.2 66.8 70L77.6 69.2C80.8 69 83.6 71.4 84 74.6C84.2 77.8 81.8 80.6 78.6 81L66 82C60 82.4 55 80 54.2 71C54.2 71 52.6 57.6 53.2 54C53.4 50.4 53.6 49.4 56.4 49.2Z" fill="#7CB342"/>
<path d="M80 32C75.2 32 72 33.2 71 38.4C71 38.4 66.8 72.2 71 102.6C71.6 109 75 105 79.8 105C84.6 105 87.4 110.4 88.6 103.4C93.6 73.2 88.6 38.2 88.6 38.2C87.4 32.4 84.8 32 80 32Z" fill="#8BC34A"/>
<path d="M109.6 108H50.4C50.4 108 60.2 103.4 80 103.4C99.8 103.4 109.6 108 109.6 108Z" fill="#FFB74D"/>
</svg>
