<svg width="385" height="385" viewBox="0 0 385 385" fill="none" xmlns="http://www.w3.org/2000/svg">
<g clip-path="url(#clip0)">
<path d="M192.485 0C86.173 0 0 86.173 0 192.485C0 298.785 86.173 384.97 192.485 384.97C298.785 384.97 384.97 298.785 384.97 192.485C384.97 86.173 298.785 0 192.485 0ZM192.485 360.909C99.611 360.909 24.061 285.359 24.061 192.485C24.061 99.611 99.611 23.688 192.485 23.688C285.359 23.688 360.909 99.611 360.909 192.485C360.909 285.359 285.359 360.909 192.485 360.909Z" fill="white"/>
<path d="M166.114 99.503C161.41 94.763 153.795 94.763 149.103 99.503C144.399 104.255 144.399 111.942 149.103 116.694L223.631 192.304L149.091 267.914C144.387 272.654 144.387 280.353 149.091 285.105C153.795 289.845 161.41 289.845 166.102 285.105L249.111 200.905C253.683 196.273 253.695 188.345 249.111 183.714L166.114 99.503Z" fill="white"/>
</g>
<defs>
<clipPath id="clip0">
<rect width="384.97" height="384.97" fill="white"/>
</clipPath>
</defs>
</svg>
