<svg width="385" height="385" viewBox="0 0 385 385" fill="none" xmlns="http://www.w3.org/2000/svg">
<g clip-path="url(#clip0)">
<path d="M192.485 0C298.797 0 384.97 86.173 384.97 192.485C384.97 298.785 298.797 384.97 192.485 384.97C86.185 384.97 -3.05176e-05 298.785 -3.05176e-05 192.485C-3.05176e-05 86.173 86.185 0 192.485 0ZM192.485 360.909C285.359 360.909 360.909 285.359 360.909 192.485C360.909 99.611 285.359 23.688 192.485 23.688C99.611 23.688 24.061 99.611 24.061 192.485C24.061 285.359 99.611 360.909 192.485 360.909Z" fill="white"/>
<path d="M218.856 99.503C223.56 94.763 231.175 94.763 235.867 99.503C240.571 104.255 240.571 111.942 235.867 116.694L161.339 192.304L235.879 267.914C240.583 272.654 240.583 280.353 235.879 285.105C231.175 289.845 223.56 289.845 218.868 285.105L135.859 200.905C131.287 196.273 131.275 188.345 135.859 183.714L218.856 99.503Z" fill="white"/>
</g>
<defs>
<clipPath id="clip0">
<rect width="384.97" height="384.97" fill="white" transform="matrix(-1 0 0 1 384.97 0)"/>
</clipPath>
</defs>
</svg>
